<?xml version="1.0" encoding="utf-8" standalone="no"?>
<!DOCTYPE svg PUBLIC "-//W3C//DTD SVG 1.1//EN"
  "http://www.w3.org/Graphics/SVG/1.1/DTD/svg11.dtd">
<svg xmlns:xlink="http://www.w3.org/1999/xlink" width="837.36pt" height="345.6pt" viewBox="0 0 837.36 345.6" xmlns="http://www.w3.org/2000/svg" version="1.1">
 <metadata>
  <rdf:RDF xmlns:dc="http://purl.org/dc/elements/1.1/" xmlns:cc="http://creativecommons.org/ns#" xmlns:rdf="http://www.w3.org/1999/02/22-rdf-syntax-ns#">
   <cc:Work>
    <dc:type rdf:resource="http://purl.org/dc/dcmitype/StillImage"/>
    <dc:date>2022-02-17T17:59:20.090391</dc:date>
    <dc:format>image/svg+xml</dc:format>
    <dc:creator>
     <cc:Agent>
      <dc:title>Matplotlib v3.5.0, https://matplotlib.org/</dc:title>
     </cc:Agent>
    </dc:creator>
   </cc:Work>
  </rdf:RDF>
 </metadata>
 <defs>
  <style type="text/css">*{stroke-linejoin: round; stroke-linecap: butt}</style>
 </defs>
 <g id="figure_1">
  <g id="patch_1">
   <path d="M 0 345.6 
L 837.36 345.6 
L 837.36 0 
L 0 0 
z
" style="fill: #ffffff"/>
  </g>
  <g id="axes_1">
   <g id="patch_2">
    <path d="M 104.67 307.584 
L 399.649091 307.584 
L 399.649091 41.472 
L 104.67 41.472 
z
" style="fill: #ffffff"/>
   </g>
   <g id="PolyCollection_1">
    <path d="M 118.07814 -711.537432 
L 118.07814 650.389605 
L 140.425041 260.239002 
L 162.771942 274.722479 
L 185.118843 270.036189 
L 207.465744 277.589197 
L 229.812645 277.853051 
L 252.159545 287.030609 
L 274.506446 280.893162 
L 296.853347 275.28699 
L 319.200248 273.245366 
L 341.547149 276.808469 
L 341.547149 249.957864 
L 341.547149 249.957864 
L 319.200248 253.822086 
L 296.853347 246.928125 
L 274.506446 261.166125 
L 252.159545 268.494803 
L 229.812645 261.748049 
L 207.465744 255.250124 
L 185.118843 259.225186 
L 162.771942 239.134969 
L 140.425041 225.099327 
L 118.07814 -711.537432 
z
" clip-path="url(#p63e2720d73)" style="fill: #1f77b4; fill-opacity: 0.2"/>
   </g>
   <g id="PolyCollection_2">
    <path d="M 118.07814 -712.660193 
L 118.07814 627.578302 
L 140.425041 278.745067 
L 162.771942 281.86293 
L 185.118843 293.01242 
L 207.465744 302.461065 
L 229.812645 290.941239 
L 252.159545 287.63821 
L 274.506446 290.960579 
L 296.853347 294.646966 
L 296.853347 280.55573 
L 296.853347 280.55573 
L 274.506446 283.64455 
L 252.159545 275.338667 
L 229.812645 278.629191 
L 207.465744 281.463229 
L 185.118843 275.272464 
L 162.771942 259.326986 
L 140.425041 246.739207 
L 118.07814 -712.660193 
z
" clip-path="url(#p63e2720d73)" style="fill: #ff7f0e; fill-opacity: 0.2"/>
   </g>
   <g id="PolyCollection_3">
    <path d="M 118.07814 -721.915053 
L 118.07814 657.138715 
L 140.425041 278.76293 
L 162.771942 284.315514 
L 185.118843 286.66129 
L 207.465744 287.043148 
L 229.812645 283.171154 
L 229.812645 270.111646 
L 229.812645 270.111646 
L 207.465744 270.284181 
L 185.118843 265.348277 
L 162.771942 256.322132 
L 140.425041 251.271373 
L 118.07814 -721.915053 
z
" clip-path="url(#p63e2720d73)" style="fill: #2ca02c; fill-opacity: 0.2"/>
   </g>
   <g id="PolyCollection_4">
    <path d="M 118.07814 -739.900645 
L 118.07814 646.661408 
L 140.425041 261.359724 
L 162.771942 269.431524 
L 185.118843 273.13681 
L 207.465744 277.340378 
L 229.812645 278.726518 
L 252.159545 280.813239 
L 274.506446 282.592058 
L 296.853347 287.346517 
L 319.200248 282.945367 
L 341.547149 279.60979 
L 363.89405 277.955081 
L 386.24095 272.153801 
L 386.24095 265.777305 
L 386.24095 265.777305 
L 363.89405 269.237947 
L 341.547149 270.440846 
L 319.200248 272.606799 
L 296.853347 274.434547 
L 274.506446 264.743863 
L 252.159545 262.692094 
L 229.812645 253.668554 
L 207.465744 260.359382 
L 185.118843 261.197758 
L 162.771942 240.070325 
L 140.425041 236.645781 
L 118.07814 -739.900645 
z
" clip-path="url(#p63e2720d73)" style="fill: #d62728; fill-opacity: 0.2"/>
   </g>
   <g id="matplotlib.axis_1">
    <g id="xtick_1">
     <g id="line2d_1">
      <defs>
       <path id="mc5d146fb1c" d="M 0 0 
L 0 3.5 
" style="stroke: #000000; stroke-width: 0.8"/>
      </defs>
      <g>
       <use xlink:href="#mc5d146fb1c" x="106.90469" y="307.584" style="stroke: #000000; stroke-width: 0.8"/>
      </g>
     </g>
     <g id="text_1">
      <!-- 0 -->
      <g transform="translate(103.72344 322.182437)scale(0.1 -0.1)">
       <defs>
        <path id="DejaVuSans-30" d="M 2034 4250 
Q 1547 4250 1301 3770 
Q 1056 3291 1056 2328 
Q 1056 1369 1301 889 
Q 1547 409 2034 409 
Q 2525 409 2770 889 
Q 3016 1369 3016 2328 
Q 3016 3291 2770 3770 
Q 2525 4250 2034 4250 
z
M 2034 4750 
Q 2819 4750 3233 4129 
Q 3647 3509 3647 2328 
Q 3647 1150 3233 529 
Q 2819 -91 2034 -91 
Q 1250 -91 836 529 
Q 422 1150 422 2328 
Q 422 3509 836 4129 
Q 1250 4750 2034 4750 
z
" transform="scale(0.015625)"/>
       </defs>
       <use xlink:href="#DejaVuSans-30"/>
      </g>
     </g>
    </g>
    <g id="xtick_2">
     <g id="line2d_2">
      <g>
       <use xlink:href="#mc5d146fb1c" x="142.659731" y="307.584" style="stroke: #000000; stroke-width: 0.8"/>
      </g>
     </g>
     <g id="text_2">
      <!-- 2000 -->
      <g transform="translate(129.934731 322.182437)scale(0.1 -0.1)">
       <defs>
        <path id="DejaVuSans-32" d="M 1228 531 
L 3431 531 
L 3431 0 
L 469 0 
L 469 531 
Q 828 903 1448 1529 
Q 2069 2156 2228 2338 
Q 2531 2678 2651 2914 
Q 2772 3150 2772 3378 
Q 2772 3750 2511 3984 
Q 2250 4219 1831 4219 
Q 1534 4219 1204 4116 
Q 875 4013 500 3803 
L 500 4441 
Q 881 4594 1212 4672 
Q 1544 4750 1819 4750 
Q 2544 4750 2975 4387 
Q 3406 4025 3406 3419 
Q 3406 3131 3298 2873 
Q 3191 2616 2906 2266 
Q 2828 2175 2409 1742 
Q 1991 1309 1228 531 
z
" transform="scale(0.015625)"/>
       </defs>
       <use xlink:href="#DejaVuSans-32"/>
       <use xlink:href="#DejaVuSans-30" x="63.623047"/>
       <use xlink:href="#DejaVuSans-30" x="127.246094"/>
       <use xlink:href="#DejaVuSans-30" x="190.869141"/>
      </g>
     </g>
    </g>
    <g id="xtick_3">
     <g id="line2d_3">
      <g>
       <use xlink:href="#mc5d146fb1c" x="178.414773" y="307.584" style="stroke: #000000; stroke-width: 0.8"/>
      </g>
     </g>
     <g id="text_3">
      <!-- 4000 -->
      <g transform="translate(165.689773 322.182437)scale(0.1 -0.1)">
       <defs>
        <path id="DejaVuSans-34" d="M 2419 4116 
L 825 1625 
L 2419 1625 
L 2419 4116 
z
M 2253 4666 
L 3047 4666 
L 3047 1625 
L 3713 1625 
L 3713 1100 
L 3047 1100 
L 3047 0 
L 2419 0 
L 2419 1100 
L 313 1100 
L 313 1709 
L 2253 4666 
z
" transform="scale(0.015625)"/>
       </defs>
       <use xlink:href="#DejaVuSans-34"/>
       <use xlink:href="#DejaVuSans-30" x="63.623047"/>
       <use xlink:href="#DejaVuSans-30" x="127.246094"/>
       <use xlink:href="#DejaVuSans-30" x="190.869141"/>
      </g>
     </g>
    </g>
    <g id="xtick_4">
     <g id="line2d_4">
      <g>
       <use xlink:href="#mc5d146fb1c" x="214.169814" y="307.584" style="stroke: #000000; stroke-width: 0.8"/>
      </g>
     </g>
     <g id="text_4">
      <!-- 6000 -->
      <g transform="translate(201.444814 322.182437)scale(0.1 -0.1)">
       <defs>
        <path id="DejaVuSans-36" d="M 2113 2584 
Q 1688 2584 1439 2293 
Q 1191 2003 1191 1497 
Q 1191 994 1439 701 
Q 1688 409 2113 409 
Q 2538 409 2786 701 
Q 3034 994 3034 1497 
Q 3034 2003 2786 2293 
Q 2538 2584 2113 2584 
z
M 3366 4563 
L 3366 3988 
Q 3128 4100 2886 4159 
Q 2644 4219 2406 4219 
Q 1781 4219 1451 3797 
Q 1122 3375 1075 2522 
Q 1259 2794 1537 2939 
Q 1816 3084 2150 3084 
Q 2853 3084 3261 2657 
Q 3669 2231 3669 1497 
Q 3669 778 3244 343 
Q 2819 -91 2113 -91 
Q 1303 -91 875 529 
Q 447 1150 447 2328 
Q 447 3434 972 4092 
Q 1497 4750 2381 4750 
Q 2619 4750 2861 4703 
Q 3103 4656 3366 4563 
z
" transform="scale(0.015625)"/>
       </defs>
       <use xlink:href="#DejaVuSans-36"/>
       <use xlink:href="#DejaVuSans-30" x="63.623047"/>
       <use xlink:href="#DejaVuSans-30" x="127.246094"/>
       <use xlink:href="#DejaVuSans-30" x="190.869141"/>
      </g>
     </g>
    </g>
    <g id="xtick_5">
     <g id="line2d_5">
      <g>
       <use xlink:href="#mc5d146fb1c" x="249.924855" y="307.584" style="stroke: #000000; stroke-width: 0.8"/>
      </g>
     </g>
     <g id="text_5">
      <!-- 8000 -->
      <g transform="translate(237.199855 322.182437)scale(0.1 -0.1)">
       <defs>
        <path id="DejaVuSans-38" d="M 2034 2216 
Q 1584 2216 1326 1975 
Q 1069 1734 1069 1313 
Q 1069 891 1326 650 
Q 1584 409 2034 409 
Q 2484 409 2743 651 
Q 3003 894 3003 1313 
Q 3003 1734 2745 1975 
Q 2488 2216 2034 2216 
z
M 1403 2484 
Q 997 2584 770 2862 
Q 544 3141 544 3541 
Q 544 4100 942 4425 
Q 1341 4750 2034 4750 
Q 2731 4750 3128 4425 
Q 3525 4100 3525 3541 
Q 3525 3141 3298 2862 
Q 3072 2584 2669 2484 
Q 3125 2378 3379 2068 
Q 3634 1759 3634 1313 
Q 3634 634 3220 271 
Q 2806 -91 2034 -91 
Q 1263 -91 848 271 
Q 434 634 434 1313 
Q 434 1759 690 2068 
Q 947 2378 1403 2484 
z
M 1172 3481 
Q 1172 3119 1398 2916 
Q 1625 2713 2034 2713 
Q 2441 2713 2670 2916 
Q 2900 3119 2900 3481 
Q 2900 3844 2670 4047 
Q 2441 4250 2034 4250 
Q 1625 4250 1398 4047 
Q 1172 3844 1172 3481 
z
" transform="scale(0.015625)"/>
       </defs>
       <use xlink:href="#DejaVuSans-38"/>
       <use xlink:href="#DejaVuSans-30" x="63.623047"/>
       <use xlink:href="#DejaVuSans-30" x="127.246094"/>
       <use xlink:href="#DejaVuSans-30" x="190.869141"/>
      </g>
     </g>
    </g>
    <g id="xtick_6">
     <g id="line2d_6">
      <g>
       <use xlink:href="#mc5d146fb1c" x="285.679897" y="307.584" style="stroke: #000000; stroke-width: 0.8"/>
      </g>
     </g>
     <g id="text_6">
      <!-- 10000 -->
      <g transform="translate(269.773647 322.182437)scale(0.1 -0.1)">
       <defs>
        <path id="DejaVuSans-31" d="M 794 531 
L 1825 531 
L 1825 4091 
L 703 3866 
L 703 4441 
L 1819 4666 
L 2450 4666 
L 2450 531 
L 3481 531 
L 3481 0 
L 794 0 
L 794 531 
z
" transform="scale(0.015625)"/>
       </defs>
       <use xlink:href="#DejaVuSans-31"/>
       <use xlink:href="#DejaVuSans-30" x="63.623047"/>
       <use xlink:href="#DejaVuSans-30" x="127.246094"/>
       <use xlink:href="#DejaVuSans-30" x="190.869141"/>
       <use xlink:href="#DejaVuSans-30" x="254.492188"/>
      </g>
     </g>
    </g>
    <g id="xtick_7">
     <g id="line2d_7">
      <g>
       <use xlink:href="#mc5d146fb1c" x="321.434938" y="307.584" style="stroke: #000000; stroke-width: 0.8"/>
      </g>
     </g>
     <g id="text_7">
      <!-- 12000 -->
      <g transform="translate(305.528688 322.182437)scale(0.1 -0.1)">
       <use xlink:href="#DejaVuSans-31"/>
       <use xlink:href="#DejaVuSans-32" x="63.623047"/>
       <use xlink:href="#DejaVuSans-30" x="127.246094"/>
       <use xlink:href="#DejaVuSans-30" x="190.869141"/>
       <use xlink:href="#DejaVuSans-30" x="254.492188"/>
      </g>
     </g>
    </g>
    <g id="xtick_8">
     <g id="line2d_8">
      <g>
       <use xlink:href="#mc5d146fb1c" x="357.189979" y="307.584" style="stroke: #000000; stroke-width: 0.8"/>
      </g>
     </g>
     <g id="text_8">
      <!-- 14000 -->
      <g transform="translate(341.283729 322.182437)scale(0.1 -0.1)">
       <use xlink:href="#DejaVuSans-31"/>
       <use xlink:href="#DejaVuSans-34" x="63.623047"/>
       <use xlink:href="#DejaVuSans-30" x="127.246094"/>
       <use xlink:href="#DejaVuSans-30" x="190.869141"/>
       <use xlink:href="#DejaVuSans-30" x="254.492188"/>
      </g>
     </g>
    </g>
    <g id="xtick_9">
     <g id="line2d_9">
      <g>
       <use xlink:href="#mc5d146fb1c" x="392.945021" y="307.584" style="stroke: #000000; stroke-width: 0.8"/>
      </g>
     </g>
     <g id="text_9">
      <!-- 16000 -->
      <g transform="translate(377.038771 322.182437)scale(0.1 -0.1)">
       <use xlink:href="#DejaVuSans-31"/>
       <use xlink:href="#DejaVuSans-36" x="63.623047"/>
       <use xlink:href="#DejaVuSans-30" x="127.246094"/>
       <use xlink:href="#DejaVuSans-30" x="190.869141"/>
       <use xlink:href="#DejaVuSans-30" x="254.492188"/>
      </g>
     </g>
    </g>
   </g>
   <g id="matplotlib.axis_2">
    <g id="ytick_1">
     <g id="line2d_10">
      <defs>
       <path id="mfe5c34d85a" d="M 0 0 
L -3.5 0 
" style="stroke: #000000; stroke-width: 0.8"/>
      </defs>
      <g>
       <use xlink:href="#mfe5c34d85a" x="104.67" y="307.584" style="stroke: #000000; stroke-width: 0.8"/>
      </g>
     </g>
     <g id="text_10">
      <!-- 0.15 -->
      <g transform="translate(75.404375 311.383219)scale(0.1 -0.1)">
       <defs>
        <path id="DejaVuSans-2e" d="M 684 794 
L 1344 794 
L 1344 0 
L 684 0 
L 684 794 
z
" transform="scale(0.015625)"/>
        <path id="DejaVuSans-35" d="M 691 4666 
L 3169 4666 
L 3169 4134 
L 1269 4134 
L 1269 2991 
Q 1406 3038 1543 3061 
Q 1681 3084 1819 3084 
Q 2600 3084 3056 2656 
Q 3513 2228 3513 1497 
Q 3513 744 3044 326 
Q 2575 -91 1722 -91 
Q 1428 -91 1123 -41 
Q 819 9 494 109 
L 494 744 
Q 775 591 1075 516 
Q 1375 441 1709 441 
Q 2250 441 2565 725 
Q 2881 1009 2881 1497 
Q 2881 1984 2565 2268 
Q 2250 2553 1709 2553 
Q 1456 2553 1204 2497 
Q 953 2441 691 2322 
L 691 4666 
z
" transform="scale(0.015625)"/>
       </defs>
       <use xlink:href="#DejaVuSans-30"/>
       <use xlink:href="#DejaVuSans-2e" x="63.623047"/>
       <use xlink:href="#DejaVuSans-31" x="95.410156"/>
       <use xlink:href="#DejaVuSans-35" x="159.033203"/>
      </g>
     </g>
    </g>
    <g id="ytick_2">
     <g id="line2d_11">
      <g>
       <use xlink:href="#mfe5c34d85a" x="104.67" y="254.3616" style="stroke: #000000; stroke-width: 0.8"/>
      </g>
     </g>
     <g id="text_11">
      <!-- 0.20 -->
      <g transform="translate(75.404375 258.160819)scale(0.1 -0.1)">
       <use xlink:href="#DejaVuSans-30"/>
       <use xlink:href="#DejaVuSans-2e" x="63.623047"/>
       <use xlink:href="#DejaVuSans-32" x="95.410156"/>
       <use xlink:href="#DejaVuSans-30" x="159.033203"/>
      </g>
     </g>
    </g>
    <g id="ytick_3">
     <g id="line2d_12">
      <g>
       <use xlink:href="#mfe5c34d85a" x="104.67" y="201.1392" style="stroke: #000000; stroke-width: 0.8"/>
      </g>
     </g>
     <g id="text_12">
      <!-- 0.25 -->
      <g transform="translate(75.404375 204.938419)scale(0.1 -0.1)">
       <use xlink:href="#DejaVuSans-30"/>
       <use xlink:href="#DejaVuSans-2e" x="63.623047"/>
       <use xlink:href="#DejaVuSans-32" x="95.410156"/>
       <use xlink:href="#DejaVuSans-35" x="159.033203"/>
      </g>
     </g>
    </g>
    <g id="ytick_4">
     <g id="line2d_13">
      <g>
       <use xlink:href="#mfe5c34d85a" x="104.67" y="147.9168" style="stroke: #000000; stroke-width: 0.8"/>
      </g>
     </g>
     <g id="text_13">
      <!-- 0.30 -->
      <g transform="translate(75.404375 151.716019)scale(0.1 -0.1)">
       <defs>
        <path id="DejaVuSans-33" d="M 2597 2516 
Q 3050 2419 3304 2112 
Q 3559 1806 3559 1356 
Q 3559 666 3084 287 
Q 2609 -91 1734 -91 
Q 1441 -91 1130 -33 
Q 819 25 488 141 
L 488 750 
Q 750 597 1062 519 
Q 1375 441 1716 441 
Q 2309 441 2620 675 
Q 2931 909 2931 1356 
Q 2931 1769 2642 2001 
Q 2353 2234 1838 2234 
L 1294 2234 
L 1294 2753 
L 1863 2753 
Q 2328 2753 2575 2939 
Q 2822 3125 2822 3475 
Q 2822 3834 2567 4026 
Q 2313 4219 1838 4219 
Q 1578 4219 1281 4162 
Q 984 4106 628 3988 
L 628 4550 
Q 988 4650 1302 4700 
Q 1616 4750 1894 4750 
Q 2613 4750 3031 4423 
Q 3450 4097 3450 3541 
Q 3450 3153 3228 2886 
Q 3006 2619 2597 2516 
z
" transform="scale(0.015625)"/>
       </defs>
       <use xlink:href="#DejaVuSans-30"/>
       <use xlink:href="#DejaVuSans-2e" x="63.623047"/>
       <use xlink:href="#DejaVuSans-33" x="95.410156"/>
       <use xlink:href="#DejaVuSans-30" x="159.033203"/>
      </g>
     </g>
    </g>
    <g id="ytick_5">
     <g id="line2d_14">
      <g>
       <use xlink:href="#mfe5c34d85a" x="104.67" y="94.6944" style="stroke: #000000; stroke-width: 0.8"/>
      </g>
     </g>
     <g id="text_14">
      <!-- 0.35 -->
      <g transform="translate(75.404375 98.493619)scale(0.1 -0.1)">
       <use xlink:href="#DejaVuSans-30"/>
       <use xlink:href="#DejaVuSans-2e" x="63.623047"/>
       <use xlink:href="#DejaVuSans-33" x="95.410156"/>
       <use xlink:href="#DejaVuSans-35" x="159.033203"/>
      </g>
     </g>
    </g>
    <g id="ytick_6">
     <g id="line2d_15">
      <g>
       <use xlink:href="#mfe5c34d85a" x="104.67" y="41.472" style="stroke: #000000; stroke-width: 0.8"/>
      </g>
     </g>
     <g id="text_15">
      <!-- 0.40 -->
      <g transform="translate(75.404375 45.271219)scale(0.1 -0.1)">
       <use xlink:href="#DejaVuSans-30"/>
       <use xlink:href="#DejaVuSans-2e" x="63.623047"/>
       <use xlink:href="#DejaVuSans-34" x="95.410156"/>
       <use xlink:href="#DejaVuSans-30" x="159.033203"/>
      </g>
     </g>
    </g>
    <g id="text_16">
     <!-- Train loss -->
     <g transform="translate(69.324687 197.768625)rotate(-90)scale(0.1 -0.1)">
      <defs>
       <path id="DejaVuSans-54" d="M -19 4666 
L 3928 4666 
L 3928 4134 
L 2272 4134 
L 2272 0 
L 1638 0 
L 1638 4134 
L -19 4134 
L -19 4666 
z
" transform="scale(0.015625)"/>
       <path id="DejaVuSans-72" d="M 2631 2963 
Q 2534 3019 2420 3045 
Q 2306 3072 2169 3072 
Q 1681 3072 1420 2755 
Q 1159 2438 1159 1844 
L 1159 0 
L 581 0 
L 581 3500 
L 1159 3500 
L 1159 2956 
Q 1341 3275 1631 3429 
Q 1922 3584 2338 3584 
Q 2397 3584 2469 3576 
Q 2541 3569 2628 3553 
L 2631 2963 
z
" transform="scale(0.015625)"/>
       <path id="DejaVuSans-61" d="M 2194 1759 
Q 1497 1759 1228 1600 
Q 959 1441 959 1056 
Q 959 750 1161 570 
Q 1363 391 1709 391 
Q 2188 391 2477 730 
Q 2766 1069 2766 1631 
L 2766 1759 
L 2194 1759 
z
M 3341 1997 
L 3341 0 
L 2766 0 
L 2766 531 
Q 2569 213 2275 61 
Q 1981 -91 1556 -91 
Q 1019 -91 701 211 
Q 384 513 384 1019 
Q 384 1609 779 1909 
Q 1175 2209 1959 2209 
L 2766 2209 
L 2766 2266 
Q 2766 2663 2505 2880 
Q 2244 3097 1772 3097 
Q 1472 3097 1187 3025 
Q 903 2953 641 2809 
L 641 3341 
Q 956 3463 1253 3523 
Q 1550 3584 1831 3584 
Q 2591 3584 2966 3190 
Q 3341 2797 3341 1997 
z
" transform="scale(0.015625)"/>
       <path id="DejaVuSans-69" d="M 603 3500 
L 1178 3500 
L 1178 0 
L 603 0 
L 603 3500 
z
M 603 4863 
L 1178 4863 
L 1178 4134 
L 603 4134 
L 603 4863 
z
" transform="scale(0.015625)"/>
       <path id="DejaVuSans-6e" d="M 3513 2113 
L 3513 0 
L 2938 0 
L 2938 2094 
Q 2938 2591 2744 2837 
Q 2550 3084 2163 3084 
Q 1697 3084 1428 2787 
Q 1159 2491 1159 1978 
L 1159 0 
L 581 0 
L 581 3500 
L 1159 3500 
L 1159 2956 
Q 1366 3272 1645 3428 
Q 1925 3584 2291 3584 
Q 2894 3584 3203 3211 
Q 3513 2838 3513 2113 
z
" transform="scale(0.015625)"/>
       <path id="DejaVuSans-20" transform="scale(0.015625)"/>
       <path id="DejaVuSans-6c" d="M 603 4863 
L 1178 4863 
L 1178 0 
L 603 0 
L 603 4863 
z
" transform="scale(0.015625)"/>
       <path id="DejaVuSans-6f" d="M 1959 3097 
Q 1497 3097 1228 2736 
Q 959 2375 959 1747 
Q 959 1119 1226 758 
Q 1494 397 1959 397 
Q 2419 397 2687 759 
Q 2956 1122 2956 1747 
Q 2956 2369 2687 2733 
Q 2419 3097 1959 3097 
z
M 1959 3584 
Q 2709 3584 3137 3096 
Q 3566 2609 3566 1747 
Q 3566 888 3137 398 
Q 2709 -91 1959 -91 
Q 1206 -91 779 398 
Q 353 888 353 1747 
Q 353 2609 779 3096 
Q 1206 3584 1959 3584 
z
" transform="scale(0.015625)"/>
       <path id="DejaVuSans-73" d="M 2834 3397 
L 2834 2853 
Q 2591 2978 2328 3040 
Q 2066 3103 1784 3103 
Q 1356 3103 1142 2972 
Q 928 2841 928 2578 
Q 928 2378 1081 2264 
Q 1234 2150 1697 2047 
L 1894 2003 
Q 2506 1872 2764 1633 
Q 3022 1394 3022 966 
Q 3022 478 2636 193 
Q 2250 -91 1575 -91 
Q 1294 -91 989 -36 
Q 684 19 347 128 
L 347 722 
Q 666 556 975 473 
Q 1284 391 1588 391 
Q 1994 391 2212 530 
Q 2431 669 2431 922 
Q 2431 1156 2273 1281 
Q 2116 1406 1581 1522 
L 1381 1569 
Q 847 1681 609 1914 
Q 372 2147 372 2553 
Q 372 3047 722 3315 
Q 1072 3584 1716 3584 
Q 2034 3584 2315 3537 
Q 2597 3491 2834 3397 
z
" transform="scale(0.015625)"/>
      </defs>
      <use xlink:href="#DejaVuSans-54"/>
      <use xlink:href="#DejaVuSans-72" x="46.333984"/>
      <use xlink:href="#DejaVuSans-61" x="87.447266"/>
      <use xlink:href="#DejaVuSans-69" x="148.726562"/>
      <use xlink:href="#DejaVuSans-6e" x="176.509766"/>
      <use xlink:href="#DejaVuSans-20" x="239.888672"/>
      <use xlink:href="#DejaVuSans-6c" x="271.675781"/>
      <use xlink:href="#DejaVuSans-6f" x="299.458984"/>
      <use xlink:href="#DejaVuSans-73" x="360.640625"/>
      <use xlink:href="#DejaVuSans-73" x="412.740234"/>
     </g>
    </g>
   </g>
   <g id="line2d_16">
    <path d="M 120.496812 -1 
L 140.425041 242.669165 
L 162.771942 256.928724 
L 185.118843 264.630687 
L 207.465744 266.41966 
L 229.812645 269.80055 
L 252.159545 277.762706 
L 274.506446 271.029644 
L 296.853347 261.107557 
L 319.200248 263.533726 
L 341.547149 263.383167 
" clip-path="url(#p63e2720d73)" style="fill: none; stroke: #1f77b4; stroke-width: 1.5; stroke-linecap: square"/>
   </g>
   <g id="line2d_17">
    <path d="M 121.118962 -1 
L 140.425041 262.742137 
L 162.771942 270.594958 
L 185.118843 284.142442 
L 207.465744 291.962147 
L 229.812645 284.785215 
L 252.159545 281.488439 
L 274.506446 287.302564 
L 296.853347 287.601348 
" clip-path="url(#p63e2720d73)" style="fill: none; stroke: #2ca02c; stroke-width: 1.5; stroke-linecap: square"/>
   </g>
   <g id="line2d_18">
    <path d="M 120.436633 -1 
L 140.425041 265.017152 
L 162.771942 270.318823 
L 185.118843 276.004783 
L 207.465744 278.663664 
L 229.812645 276.6414 
" clip-path="url(#p63e2720d73)" style="fill: none; stroke: #ff7f0e; stroke-width: 1.5; stroke-linecap: square"/>
   </g>
   <g id="line2d_19">
    <path d="M 121.526652 -1 
L 140.425041 249.002752 
L 162.771942 254.750924 
L 185.118843 267.167284 
L 207.465744 268.84988 
L 229.812645 266.197536 
L 252.159545 271.752667 
L 274.506446 273.667961 
L 296.853347 280.890532 
L 319.200248 277.776083 
L 341.547149 275.025318 
L 363.89405 273.596514 
L 386.24095 268.965553 
" clip-path="url(#p63e2720d73)" style="fill: none; stroke: #d62728; stroke-width: 1.5; stroke-linecap: square"/>
   </g>
   <g id="patch_3">
    <path d="M 104.67 307.584 
L 104.67 41.472 
" style="fill: none; stroke: #000000; stroke-width: 0.8; stroke-linejoin: miter; stroke-linecap: square"/>
   </g>
   <g id="patch_4">
    <path d="M 399.649091 307.584 
L 399.649091 41.472 
" style="fill: none; stroke: #000000; stroke-width: 0.8; stroke-linejoin: miter; stroke-linecap: square"/>
   </g>
   <g id="patch_5">
    <path d="M 104.67 307.584 
L 399.649091 307.584 
" style="fill: none; stroke: #000000; stroke-width: 0.8; stroke-linejoin: miter; stroke-linecap: square"/>
   </g>
   <g id="patch_6">
    <path d="M 104.67 41.472 
L 399.649091 41.472 
" style="fill: none; stroke: #000000; stroke-width: 0.8; stroke-linejoin: miter; stroke-linecap: square"/>
   </g>
  </g>
  <g id="axes_2">
   <g id="patch_7">
    <path d="M 458.644909 307.584 
L 753.624 307.584 
L 753.624 41.472 
L 458.644909 41.472 
z
" style="fill: #ffffff"/>
   </g>
   <g id="matplotlib.axis_3">
    <g id="xtick_10">
     <g id="line2d_20">
      <g>
       <use xlink:href="#mc5d146fb1c" x="472.05305" y="307.584" style="stroke: #000000; stroke-width: 0.8"/>
      </g>
     </g>
     <g id="text_17">
      <!-- 0 -->
      <g transform="translate(468.8718 322.182437)scale(0.1 -0.1)">
       <use xlink:href="#DejaVuSans-30"/>
      </g>
     </g>
    </g>
    <g id="xtick_11">
     <g id="line2d_21">
      <g>
       <use xlink:href="#mc5d146fb1c" x="511.200905" y="307.584" style="stroke: #000000; stroke-width: 0.8"/>
      </g>
     </g>
     <g id="text_18">
      <!-- 2500 -->
      <g transform="translate(498.475905 322.182437)scale(0.1 -0.1)">
       <use xlink:href="#DejaVuSans-32"/>
       <use xlink:href="#DejaVuSans-35" x="63.623047"/>
       <use xlink:href="#DejaVuSans-30" x="127.246094"/>
       <use xlink:href="#DejaVuSans-30" x="190.869141"/>
      </g>
     </g>
    </g>
    <g id="xtick_12">
     <g id="line2d_22">
      <g>
       <use xlink:href="#mc5d146fb1c" x="550.348761" y="307.584" style="stroke: #000000; stroke-width: 0.8"/>
      </g>
     </g>
     <g id="text_19">
      <!-- 5000 -->
      <g transform="translate(537.623761 322.182437)scale(0.1 -0.1)">
       <use xlink:href="#DejaVuSans-35"/>
       <use xlink:href="#DejaVuSans-30" x="63.623047"/>
       <use xlink:href="#DejaVuSans-30" x="127.246094"/>
       <use xlink:href="#DejaVuSans-30" x="190.869141"/>
      </g>
     </g>
    </g>
    <g id="xtick_13">
     <g id="line2d_23">
      <g>
       <use xlink:href="#mc5d146fb1c" x="589.496616" y="307.584" style="stroke: #000000; stroke-width: 0.8"/>
      </g>
     </g>
     <g id="text_20">
      <!-- 7500 -->
      <g transform="translate(576.771616 322.182437)scale(0.1 -0.1)">
       <defs>
        <path id="DejaVuSans-37" d="M 525 4666 
L 3525 4666 
L 3525 4397 
L 1831 0 
L 1172 0 
L 2766 4134 
L 525 4134 
L 525 4666 
z
" transform="scale(0.015625)"/>
       </defs>
       <use xlink:href="#DejaVuSans-37"/>
       <use xlink:href="#DejaVuSans-35" x="63.623047"/>
       <use xlink:href="#DejaVuSans-30" x="127.246094"/>
       <use xlink:href="#DejaVuSans-30" x="190.869141"/>
      </g>
     </g>
    </g>
    <g id="xtick_14">
     <g id="line2d_24">
      <g>
       <use xlink:href="#mc5d146fb1c" x="628.644471" y="307.584" style="stroke: #000000; stroke-width: 0.8"/>
      </g>
     </g>
     <g id="text_21">
      <!-- 10000 -->
      <g transform="translate(612.738221 322.182437)scale(0.1 -0.1)">
       <use xlink:href="#DejaVuSans-31"/>
       <use xlink:href="#DejaVuSans-30" x="63.623047"/>
       <use xlink:href="#DejaVuSans-30" x="127.246094"/>
       <use xlink:href="#DejaVuSans-30" x="190.869141"/>
       <use xlink:href="#DejaVuSans-30" x="254.492188"/>
      </g>
     </g>
    </g>
    <g id="xtick_15">
     <g id="line2d_25">
      <g>
       <use xlink:href="#mc5d146fb1c" x="667.792327" y="307.584" style="stroke: #000000; stroke-width: 0.8"/>
      </g>
     </g>
     <g id="text_22">
      <!-- 12500 -->
      <g transform="translate(651.886077 322.182437)scale(0.1 -0.1)">
       <use xlink:href="#DejaVuSans-31"/>
       <use xlink:href="#DejaVuSans-32" x="63.623047"/>
       <use xlink:href="#DejaVuSans-35" x="127.246094"/>
       <use xlink:href="#DejaVuSans-30" x="190.869141"/>
       <use xlink:href="#DejaVuSans-30" x="254.492188"/>
      </g>
     </g>
    </g>
    <g id="xtick_16">
     <g id="line2d_26">
      <g>
       <use xlink:href="#mc5d146fb1c" x="706.940182" y="307.584" style="stroke: #000000; stroke-width: 0.8"/>
      </g>
     </g>
     <g id="text_23">
      <!-- 15000 -->
      <g transform="translate(691.033932 322.182437)scale(0.1 -0.1)">
       <use xlink:href="#DejaVuSans-31"/>
       <use xlink:href="#DejaVuSans-35" x="63.623047"/>
       <use xlink:href="#DejaVuSans-30" x="127.246094"/>
       <use xlink:href="#DejaVuSans-30" x="190.869141"/>
       <use xlink:href="#DejaVuSans-30" x="254.492188"/>
      </g>
     </g>
    </g>
    <g id="xtick_17">
     <g id="line2d_27">
      <g>
       <use xlink:href="#mc5d146fb1c" x="746.088038" y="307.584" style="stroke: #000000; stroke-width: 0.8"/>
      </g>
     </g>
     <g id="text_24">
      <!-- 17500 -->
      <g transform="translate(730.181788 322.182437)scale(0.1 -0.1)">
       <use xlink:href="#DejaVuSans-31"/>
       <use xlink:href="#DejaVuSans-37" x="63.623047"/>
       <use xlink:href="#DejaVuSans-35" x="127.246094"/>
       <use xlink:href="#DejaVuSans-30" x="190.869141"/>
       <use xlink:href="#DejaVuSans-30" x="254.492188"/>
      </g>
     </g>
    </g>
   </g>
   <g id="matplotlib.axis_4">
    <g id="ytick_7">
     <g id="line2d_28">
      <g>
       <use xlink:href="#mfe5c34d85a" x="458.644909" y="289.8432" style="stroke: #000000; stroke-width: 0.8"/>
      </g>
     </g>
     <g id="text_25">
      <!-- 0.86 -->
      <g transform="translate(429.379284 293.642419)scale(0.1 -0.1)">
       <use xlink:href="#DejaVuSans-30"/>
       <use xlink:href="#DejaVuSans-2e" x="63.623047"/>
       <use xlink:href="#DejaVuSans-38" x="95.410156"/>
       <use xlink:href="#DejaVuSans-36" x="159.033203"/>
      </g>
     </g>
    </g>
    <g id="ytick_8">
     <g id="line2d_29">
      <g>
       <use xlink:href="#mfe5c34d85a" x="458.644909" y="254.3616" style="stroke: #000000; stroke-width: 0.8"/>
      </g>
     </g>
     <g id="text_26">
      <!-- 0.88 -->
      <g transform="translate(429.379284 258.160819)scale(0.1 -0.1)">
       <use xlink:href="#DejaVuSans-30"/>
       <use xlink:href="#DejaVuSans-2e" x="63.623047"/>
       <use xlink:href="#DejaVuSans-38" x="95.410156"/>
       <use xlink:href="#DejaVuSans-38" x="159.033203"/>
      </g>
     </g>
    </g>
    <g id="ytick_9">
     <g id="line2d_30">
      <g>
       <use xlink:href="#mfe5c34d85a" x="458.644909" y="218.88" style="stroke: #000000; stroke-width: 0.8"/>
      </g>
     </g>
     <g id="text_27">
      <!-- 0.90 -->
      <g transform="translate(429.379284 222.679219)scale(0.1 -0.1)">
       <defs>
        <path id="DejaVuSans-39" d="M 703 97 
L 703 672 
Q 941 559 1184 500 
Q 1428 441 1663 441 
Q 2288 441 2617 861 
Q 2947 1281 2994 2138 
Q 2813 1869 2534 1725 
Q 2256 1581 1919 1581 
Q 1219 1581 811 2004 
Q 403 2428 403 3163 
Q 403 3881 828 4315 
Q 1253 4750 1959 4750 
Q 2769 4750 3195 4129 
Q 3622 3509 3622 2328 
Q 3622 1225 3098 567 
Q 2575 -91 1691 -91 
Q 1453 -91 1209 -44 
Q 966 3 703 97 
z
M 1959 2075 
Q 2384 2075 2632 2365 
Q 2881 2656 2881 3163 
Q 2881 3666 2632 3958 
Q 2384 4250 1959 4250 
Q 1534 4250 1286 3958 
Q 1038 3666 1038 3163 
Q 1038 2656 1286 2365 
Q 1534 2075 1959 2075 
z
" transform="scale(0.015625)"/>
       </defs>
       <use xlink:href="#DejaVuSans-30"/>
       <use xlink:href="#DejaVuSans-2e" x="63.623047"/>
       <use xlink:href="#DejaVuSans-39" x="95.410156"/>
       <use xlink:href="#DejaVuSans-30" x="159.033203"/>
      </g>
     </g>
    </g>
    <g id="ytick_10">
     <g id="line2d_31">
      <g>
       <use xlink:href="#mfe5c34d85a" x="458.644909" y="183.3984" style="stroke: #000000; stroke-width: 0.8"/>
      </g>
     </g>
     <g id="text_28">
      <!-- 0.92 -->
      <g transform="translate(429.379284 187.197619)scale(0.1 -0.1)">
       <use xlink:href="#DejaVuSans-30"/>
       <use xlink:href="#DejaVuSans-2e" x="63.623047"/>
       <use xlink:href="#DejaVuSans-39" x="95.410156"/>
       <use xlink:href="#DejaVuSans-32" x="159.033203"/>
      </g>
     </g>
    </g>
    <g id="ytick_11">
     <g id="line2d_32">
      <g>
       <use xlink:href="#mfe5c34d85a" x="458.644909" y="147.9168" style="stroke: #000000; stroke-width: 0.8"/>
      </g>
     </g>
     <g id="text_29">
      <!-- 0.94 -->
      <g transform="translate(429.379284 151.716019)scale(0.1 -0.1)">
       <use xlink:href="#DejaVuSans-30"/>
       <use xlink:href="#DejaVuSans-2e" x="63.623047"/>
       <use xlink:href="#DejaVuSans-39" x="95.410156"/>
       <use xlink:href="#DejaVuSans-34" x="159.033203"/>
      </g>
     </g>
    </g>
    <g id="ytick_12">
     <g id="line2d_33">
      <g>
       <use xlink:href="#mfe5c34d85a" x="458.644909" y="112.4352" style="stroke: #000000; stroke-width: 0.8"/>
      </g>
     </g>
     <g id="text_30">
      <!-- 0.96 -->
      <g transform="translate(429.379284 116.234419)scale(0.1 -0.1)">
       <use xlink:href="#DejaVuSans-30"/>
       <use xlink:href="#DejaVuSans-2e" x="63.623047"/>
       <use xlink:href="#DejaVuSans-39" x="95.410156"/>
       <use xlink:href="#DejaVuSans-36" x="159.033203"/>
      </g>
     </g>
    </g>
    <g id="ytick_13">
     <g id="line2d_34">
      <g>
       <use xlink:href="#mfe5c34d85a" x="458.644909" y="76.9536" style="stroke: #000000; stroke-width: 0.8"/>
      </g>
     </g>
     <g id="text_31">
      <!-- 0.98 -->
      <g transform="translate(429.379284 80.752819)scale(0.1 -0.1)">
       <use xlink:href="#DejaVuSans-30"/>
       <use xlink:href="#DejaVuSans-2e" x="63.623047"/>
       <use xlink:href="#DejaVuSans-39" x="95.410156"/>
       <use xlink:href="#DejaVuSans-38" x="159.033203"/>
      </g>
     </g>
    </g>
    <g id="ytick_14">
     <g id="line2d_35">
      <g>
       <use xlink:href="#mfe5c34d85a" x="458.644909" y="41.472" style="stroke: #000000; stroke-width: 0.8"/>
      </g>
     </g>
     <g id="text_32">
      <!-- 1.00 -->
      <g transform="translate(429.379284 45.271219)scale(0.1 -0.1)">
       <use xlink:href="#DejaVuSans-31"/>
       <use xlink:href="#DejaVuSans-2e" x="63.623047"/>
       <use xlink:href="#DejaVuSans-30" x="95.410156"/>
       <use xlink:href="#DejaVuSans-30" x="159.033203"/>
      </g>
     </g>
    </g>
    <g id="text_33">
     <!-- Validation Accuracy -->
     <g transform="translate(423.299597 223.635812)rotate(-90)scale(0.1 -0.1)">
      <defs>
       <path id="DejaVuSans-56" d="M 1831 0 
L 50 4666 
L 709 4666 
L 2188 738 
L 3669 4666 
L 4325 4666 
L 2547 0 
L 1831 0 
z
" transform="scale(0.015625)"/>
       <path id="DejaVuSans-64" d="M 2906 2969 
L 2906 4863 
L 3481 4863 
L 3481 0 
L 2906 0 
L 2906 525 
Q 2725 213 2448 61 
Q 2172 -91 1784 -91 
Q 1150 -91 751 415 
Q 353 922 353 1747 
Q 353 2572 751 3078 
Q 1150 3584 1784 3584 
Q 2172 3584 2448 3432 
Q 2725 3281 2906 2969 
z
M 947 1747 
Q 947 1113 1208 752 
Q 1469 391 1925 391 
Q 2381 391 2643 752 
Q 2906 1113 2906 1747 
Q 2906 2381 2643 2742 
Q 2381 3103 1925 3103 
Q 1469 3103 1208 2742 
Q 947 2381 947 1747 
z
" transform="scale(0.015625)"/>
       <path id="DejaVuSans-74" d="M 1172 4494 
L 1172 3500 
L 2356 3500 
L 2356 3053 
L 1172 3053 
L 1172 1153 
Q 1172 725 1289 603 
Q 1406 481 1766 481 
L 2356 481 
L 2356 0 
L 1766 0 
Q 1100 0 847 248 
Q 594 497 594 1153 
L 594 3053 
L 172 3053 
L 172 3500 
L 594 3500 
L 594 4494 
L 1172 4494 
z
" transform="scale(0.015625)"/>
       <path id="DejaVuSans-41" d="M 2188 4044 
L 1331 1722 
L 3047 1722 
L 2188 4044 
z
M 1831 4666 
L 2547 4666 
L 4325 0 
L 3669 0 
L 3244 1197 
L 1141 1197 
L 716 0 
L 50 0 
L 1831 4666 
z
" transform="scale(0.015625)"/>
       <path id="DejaVuSans-63" d="M 3122 3366 
L 3122 2828 
Q 2878 2963 2633 3030 
Q 2388 3097 2138 3097 
Q 1578 3097 1268 2742 
Q 959 2388 959 1747 
Q 959 1106 1268 751 
Q 1578 397 2138 397 
Q 2388 397 2633 464 
Q 2878 531 3122 666 
L 3122 134 
Q 2881 22 2623 -34 
Q 2366 -91 2075 -91 
Q 1284 -91 818 406 
Q 353 903 353 1747 
Q 353 2603 823 3093 
Q 1294 3584 2113 3584 
Q 2378 3584 2631 3529 
Q 2884 3475 3122 3366 
z
" transform="scale(0.015625)"/>
       <path id="DejaVuSans-75" d="M 544 1381 
L 544 3500 
L 1119 3500 
L 1119 1403 
Q 1119 906 1312 657 
Q 1506 409 1894 409 
Q 2359 409 2629 706 
Q 2900 1003 2900 1516 
L 2900 3500 
L 3475 3500 
L 3475 0 
L 2900 0 
L 2900 538 
Q 2691 219 2414 64 
Q 2138 -91 1772 -91 
Q 1169 -91 856 284 
Q 544 659 544 1381 
z
M 1991 3584 
L 1991 3584 
z
" transform="scale(0.015625)"/>
       <path id="DejaVuSans-79" d="M 2059 -325 
Q 1816 -950 1584 -1140 
Q 1353 -1331 966 -1331 
L 506 -1331 
L 506 -850 
L 844 -850 
Q 1081 -850 1212 -737 
Q 1344 -625 1503 -206 
L 1606 56 
L 191 3500 
L 800 3500 
L 1894 763 
L 2988 3500 
L 3597 3500 
L 2059 -325 
z
" transform="scale(0.015625)"/>
      </defs>
      <use xlink:href="#DejaVuSans-56"/>
      <use xlink:href="#DejaVuSans-61" x="60.658203"/>
      <use xlink:href="#DejaVuSans-6c" x="121.9375"/>
      <use xlink:href="#DejaVuSans-69" x="149.720703"/>
      <use xlink:href="#DejaVuSans-64" x="177.503906"/>
      <use xlink:href="#DejaVuSans-61" x="240.980469"/>
      <use xlink:href="#DejaVuSans-74" x="302.259766"/>
      <use xlink:href="#DejaVuSans-69" x="341.46875"/>
      <use xlink:href="#DejaVuSans-6f" x="369.251953"/>
      <use xlink:href="#DejaVuSans-6e" x="430.433594"/>
      <use xlink:href="#DejaVuSans-20" x="493.8125"/>
      <use xlink:href="#DejaVuSans-41" x="525.599609"/>
      <use xlink:href="#DejaVuSans-63" x="592.257812"/>
      <use xlink:href="#DejaVuSans-63" x="647.238281"/>
      <use xlink:href="#DejaVuSans-75" x="702.21875"/>
      <use xlink:href="#DejaVuSans-72" x="765.597656"/>
      <use xlink:href="#DejaVuSans-61" x="806.710938"/>
      <use xlink:href="#DejaVuSans-63" x="867.990234"/>
      <use xlink:href="#DejaVuSans-79" x="922.970703"/>
     </g>
    </g>
   </g>
   <g id="line2d_36">
    <path d="M 473.836921 346.6 
L 474.010442 232.1856 
L 475.967835 216.573696 
L 477.925228 182.866176 
L 479.882621 177.721344 
L 481.840013 172.931328 
L 483.797406 165.125376 
L 485.754799 153.23904 
L 487.712192 149.336064 
L 489.669585 151.287552 
L 491.626977 163.173888 
L 493.58437 154.303488 
L 495.541763 148.094208 
L 497.499156 147.384576 
L 499.456548 149.513472 
L 501.413941 144.191232 
L 503.371334 142.59456 
L 505.328727 157.319424 
L 507.28612 169.20576 
L 509.243512 149.336064 
L 511.200905 172.931328 
L 513.158298 138.15936 
L 515.115691 153.593856 
L 517.073083 132.482304 
L 519.030476 155.90016 
L 520.987869 142.59456 
L 522.945262 143.4816 
L 524.902654 134.256384 
L 526.860047 141.884928 
L 528.81744 142.59456 
L 530.774833 141.175296 
L 532.732226 140.82048 
L 534.689618 134.966016 
L 536.647011 137.981952 
L 538.604404 137.449728 
L 540.561797 136.562688 
L 542.519189 132.127488 
L 544.476582 132.127488 
L 546.433975 131.240448 
L 548.391368 134.966016 
L 550.348761 146.497536 
L 552.306153 133.901568 
L 554.263546 132.304896 
L 556.220939 128.934144 
L 558.178332 129.466368 
L 560.135724 132.482304 
L 562.093117 134.078976 
L 564.05051 134.256384 
L 566.007903 134.256384 
L 567.965295 133.72416 
L 569.922688 131.417856 
L 571.880081 130.708224 
L 573.837474 136.030464 
L 575.794867 136.207872 
L 577.752259 126.62784 
L 579.709652 124.498944 
L 581.667045 125.385984 
L 583.624438 121.837824 
L 585.58183 128.40192 
L 587.539223 126.805248 
L 589.496616 123.257088 
L 591.454009 128.047104 
L 593.411402 124.85376 
L 595.368794 119.886336 
L 597.326187 131.06304 
L 599.28358 117.047808 
L 601.240973 121.837824 
L 603.198365 125.563392 
L 605.155758 125.385984 
L 607.113151 130.176 
L 609.070544 123.611904 
L 611.027936 128.934144 
L 612.985329 118.112256 
L 614.942722 127.869696 
L 616.900115 133.191936 
L 618.857508 132.659712 
L 620.8149 126.62784 
L 622.772293 126.805248 
L 624.729686 137.627136 
L 626.687079 125.031168 
L 628.644471 129.28896 
L 630.601864 121.660416 
L 632.559257 141.352704 
L 634.51665 118.64448 
L 636.474043 145.25568 
L 638.431435 132.482304 
L 640.388828 121.660416 
L 642.346221 120.241152 
L 644.303614 125.7408 
L 646.261006 125.563392 
L 648.218399 126.273024 
L 650.175792 125.385984 
L 652.133185 129.28896 
L 654.090577 124.85376 
L 656.04797 120.595968 
L 658.005363 126.62784 
L 659.962756 118.64448 
L 661.920149 135.143424 
L 663.877541 123.789312 
L 665.834934 125.208576 
L 667.792327 125.918208 
L 669.74972 118.467072 
L 671.707112 119.176704 
L 673.664505 117.75744 
L 675.621898 127.692288 
L 677.579291 120.41856 
L 679.536684 114.031872 
L 681.494076 121.483008 
L 683.451469 132.83712 
L 685.408862 127.692288 
L 687.366255 123.07968 
L 689.323647 117.580032 
L 691.28104 116.8704 
L 693.238433 115.273728 
L 695.195826 120.241152 
L 697.153218 120.41856 
" clip-path="url(#p80e2042df4)" style="fill: none; stroke: #1f77b4; stroke-width: 1.5; stroke-linecap: square"/>
   </g>
   <g id="line2d_37">
    <path d="M 473.870954 346.6 
L 474.010442 256.5792 
L 475.967835 197.413632 
L 477.925228 208.67904 
L 479.882621 163.173888 
L 481.840013 157.496832 
L 483.797406 143.126784 
L 485.754799 158.649984 
L 487.712192 128.934144 
L 489.669585 127.426176 
L 491.626977 123.611904 
L 493.58437 114.6528 
L 495.541763 111.636864 
L 497.499156 130.885632 
L 499.456548 99.218304 
L 501.413941 103.298688 
L 503.371334 103.387392 
L 505.328727 108.177408 
L 507.28612 100.01664 
L 509.243512 95.404032 
L 511.200905 109.596672 
L 513.158298 92.565504 
L 515.115691 89.904384 
L 517.073083 87.243264 
L 519.030476 90.791424 
L 520.987869 86.533632 
L 522.945262 89.283456 
L 524.902654 94.516992 
L 526.860047 82.808064 
L 528.81744 90.436608 
L 530.774833 86.178816 
L 532.732226 80.413056 
L 534.689618 77.042304 
L 536.647011 71.18784 
L 538.604404 80.767872 
L 540.561797 83.340288 
L 542.519189 80.146944 
L 544.476582 74.913408 
L 546.433975 72.07488 
L 548.391368 71.720064 
L 550.348761 70.566912 
L 552.306153 74.026368 
L 554.263546 60.809472 
L 556.220939 67.905792 
L 558.178332 62.849664 
L 560.135724 71.542656 
L 562.093117 61.341696 
L 564.05051 62.406144 
L 566.007903 65.155968 
L 567.965295 67.817088 
L 569.922688 69.679872 
L 571.880081 68.438016 
L 573.837474 62.228736 
L 575.794867 69.679872 
L 577.752259 61.696512 
L 579.709652 64.180224 
L 581.667045 60.188544 
L 583.624438 58.503168 
L 585.58183 63.293184 
L 587.539223 66.75264 
L 589.496616 62.228736 
L 591.454009 58.857984 
L 593.411402 59.567616 
L 595.368794 63.027072 
L 597.326187 60.54336 
L 599.28358 73.582848 
L 601.240973 60.454656 
L 603.198365 54.511488 
L 605.155758 57.083904 
L 607.113151 61.252992 
L 609.070544 62.140032 
L 611.027936 55.398528 
L 612.985329 57.793536 
L 614.942722 52.914816 
L 616.900115 53.269632 
L 618.857508 51.761664 
L 620.8149 52.382592 
L 622.772293 51.495552 
L 624.729686 49.721472 
L 626.687079 48.213504 
L 628.644471 52.471296 
L 630.601864 51.584256 
L 632.559257 47.592576 
L 634.51665 47.68128 
L 636.474043 47.060352 
L 638.431435 46.971648 
L 640.388828 50.3424 
L 642.346221 51.939072 
L 644.303614 49.632768 
L 646.261006 49.544064 
L 648.218399 48.745728 
L 650.175792 46.79424 
L 652.133185 45.374976 
" clip-path="url(#p80e2042df4)" style="fill: none; stroke: #ff7f0e; stroke-width: 1.5; stroke-linecap: square"/>
   </g>
   <g id="line2d_38">
    <path d="M 473.814736 346.6 
L 474.010442 212.759424 
L 475.967835 184.551552 
L 477.925228 171.068544 
L 479.882621 149.779584 
L 481.840013 173.020032 
L 483.797406 145.521792 
L 485.754799 125.829504 
L 487.712192 131.50656 
L 489.669585 121.216896 
L 491.626977 126.539136 
L 493.58437 117.75744 
L 495.541763 109.241856 
L 497.499156 115.451136 
L 499.456548 106.492032 
L 501.413941 104.363136 
L 503.371334 84.582144 
L 505.328727 94.428288 
L 507.28612 92.742912 
L 509.243512 99.750528 
L 511.200905 103.032576 
L 513.158298 90.347904 
L 515.115691 88.573824 
L 517.073083 101.081088 
L 519.030476 87.686784 
L 520.987869 103.209984 
L 522.945262 77.574528 
L 524.902654 85.025664 
L 526.860047 86.178816 
L 528.81744 88.48512 
L 530.774833 97.444224 
L 532.732226 81.566208 
L 534.689618 86.444928 
L 536.647011 81.122688 
L 538.604404 79.61472 
L 540.561797 82.009728 
L 542.519189 74.203776 
L 544.476582 71.453952 
L 546.433975 80.324352 
L 548.391368 75.711744 
L 550.348761 72.07488 
L 552.306153 66.75264 
L 554.263546 67.728384 
L 556.220939 78.018048 
L 558.178332 76.776192 
L 560.135724 75.090816 
L 562.093117 68.438016 
L 564.05051 68.97024 
L 566.007903 69.058944 
L 567.965295 65.333376 
L 569.922688 65.776896 
L 571.880081 67.373568 
L 573.837474 64.180224 
L 575.794867 66.486528 
L 577.752259 59.922432 
L 579.709652 66.663936 
L 581.667045 64.268928 
L 583.624438 65.42208 
L 585.58183 61.252992 
L 587.539223 63.559296 
L 589.496616 64.446336 
L 591.454009 61.4304 
L 593.411402 56.10816 
L 595.368794 53.624448 
L 597.326187 57.88224 
L 599.28358 57.083904 
L 601.240973 56.374272 
" clip-path="url(#p80e2042df4)" style="fill: none; stroke: #2ca02c; stroke-width: 1.5; stroke-linecap: square"/>
   </g>
   <g id="line2d_39">
    <path d="M 473.837038 346.6 
L 474.010442 229.968 
L 475.967835 195.728256 
L 477.925228 176.124672 
L 479.882621 177.455232 
L 481.840013 157.23072 
L 483.797406 144.102528 
L 485.754799 150.045696 
L 487.712192 133.369344 
L 489.669585 134.699904 
L 491.626977 128.490624 
L 493.58437 117.136512 
L 495.541763 130.442112 
L 497.499156 109.241856 
L 499.456548 122.015232 
L 501.413941 117.846144 
L 503.371334 118.467072 
L 505.328727 120.063744 
L 507.28612 108.532224 
L 509.243512 100.46016 
L 511.200905 112.87872 
L 513.158298 96.113664 
L 515.115691 113.233536 
L 517.073083 94.25088 
L 519.030476 95.936256 
L 520.987869 91.944576 
L 522.945262 101.702016 
L 524.902654 86.799744 
L 526.860047 89.017344 
L 528.81744 106.137216 
L 530.774833 93.984768 
L 532.732226 89.904384 
L 534.689618 88.0416 
L 536.647011 89.904384 
L 538.604404 85.469184 
L 540.561797 79.437312 
L 542.519189 88.130304 
L 544.476582 90.880128 
L 546.433975 89.81568 
L 548.391368 76.598784 
L 550.348761 86.622336 
L 552.306153 78.195456 
L 554.263546 84.848256 
L 556.220939 77.39712 
L 558.178332 80.324352 
L 560.135724 76.776192 
L 562.093117 73.671552 
L 564.05051 67.550976 
L 566.007903 72.873216 
L 567.965295 74.558592 
L 569.922688 87.420672 
L 571.880081 88.662528 
L 573.837474 79.1712 
L 575.794867 72.784512 
L 577.752259 78.372864 
L 579.709652 78.018048 
L 581.667045 65.42208 
L 583.624438 68.615424 
L 585.58183 66.131712 
L 587.539223 76.776192 
L 589.496616 75.268224 
L 591.454009 62.938368 
L 593.411402 62.31744 
L 595.368794 62.140032 
L 597.326187 70.389504 
L 599.28358 84.49344 
L 601.240973 67.373568 
L 603.198365 63.559296 
L 605.155758 62.938368 
L 607.113151 71.276544 
L 609.070544 68.171904 
L 611.027936 58.680576 
L 612.985329 61.519104 
L 614.942722 60.454656 
L 616.900115 54.7776 
L 618.857508 56.374272 
L 620.8149 57.43872 
L 622.772293 58.32576 
L 624.729686 59.745024 
L 626.687079 56.640384 
L 630.601864 59.124096 
L 632.559257 51.67296 
L 634.51665 51.406848 
L 636.474043 58.059648 
L 638.431435 50.697216 
L 640.388828 50.3424 
L 642.346221 47.68128 
L 644.303614 51.761664 
L 646.261006 48.657024 
L 648.218399 49.189248 
L 650.175792 54.067968 
L 652.133185 47.858688 
L 654.090577 48.302208 
L 656.04797 51.850368 
L 658.005363 50.253696 
L 659.962756 48.834432 
L 661.920149 49.01184 
L 663.877541 50.253696 
L 665.834934 47.149056 
L 667.792327 53.801856 
L 669.74972 49.721472 
L 671.707112 48.1248 
L 673.664505 46.35072 
L 675.621898 45.552384 
L 677.579291 46.616832 
L 679.536684 45.9072 
L 681.494076 46.35072 
L 683.451469 47.060352 
L 685.408862 44.665344 
L 687.366255 43.955712 
L 689.323647 43.867008 
L 691.28104 43.423488 
L 693.238433 43.157376 
L 695.195826 43.512192 
L 697.153218 44.754048 
L 699.110611 43.867008 
L 703.025397 43.6896 
L 704.98279 42.979968 
L 706.940182 45.374976 
L 708.897575 42.891264 
L 710.854968 42.979968 
L 712.812361 42.713856 
L 714.769753 42.891264 
L 716.727146 42.536448 
L 720.641932 42.536448 
L 724.556717 42.270336 
L 726.51411 42.35904 
L 730.428896 42.181632 
L 732.386288 42.447744 
L 738.258467 42.004224 
L 740.21586 42.181632 
L 740.21586 42.181632 
" clip-path="url(#p80e2042df4)" style="fill: none; stroke: #d62728; stroke-width: 1.5; stroke-linecap: square"/>
   </g>
   <g id="patch_8">
    <path d="M 458.644909 307.584 
L 458.644909 41.472 
" style="fill: none; stroke: #000000; stroke-width: 0.8; stroke-linejoin: miter; stroke-linecap: square"/>
   </g>
   <g id="patch_9">
    <path d="M 753.624 307.584 
L 753.624 41.472 
" style="fill: none; stroke: #000000; stroke-width: 0.8; stroke-linejoin: miter; stroke-linecap: square"/>
   </g>
   <g id="patch_10">
    <path d="M 458.644909 307.584 
L 753.624 307.584 
" style="fill: none; stroke: #000000; stroke-width: 0.8; stroke-linejoin: miter; stroke-linecap: square"/>
   </g>
   <g id="patch_11">
    <path d="M 458.644909 41.472 
L 753.624 41.472 
" style="fill: none; stroke: #000000; stroke-width: 0.8; stroke-linejoin: miter; stroke-linecap: square"/>
   </g>
   <g id="legend_1">
    <g id="patch_12">
     <path d="M 505.933375 302.584 
L 746.624 302.584 
Q 748.624 302.584 748.624 300.584 
L 748.624 242.8715 
Q 748.624 240.8715 746.624 240.8715 
L 505.933375 240.8715 
Q 503.933375 240.8715 503.933375 242.8715 
L 503.933375 300.584 
Q 503.933375 302.584 505.933375 302.584 
z
" style="fill: #ffffff; opacity: 0.8; stroke: #cccccc; stroke-linejoin: miter"/>
    </g>
    <g id="line2d_40">
     <path d="M 507.933375 248.969937 
L 517.933375 248.969937 
L 527.933375 248.969937 
" style="fill: none; stroke: #1f77b4; stroke-width: 1.5; stroke-linecap: square"/>
    </g>
    <g id="text_34">
     <!-- Task 2 Model -->
     <g transform="translate(535.933375 252.469937)scale(0.1 -0.1)">
      <defs>
       <path id="DejaVuSans-6b" d="M 581 4863 
L 1159 4863 
L 1159 1991 
L 2875 3500 
L 3609 3500 
L 1753 1863 
L 3688 0 
L 2938 0 
L 1159 1709 
L 1159 0 
L 581 0 
L 581 4863 
z
" transform="scale(0.015625)"/>
       <path id="DejaVuSans-4d" d="M 628 4666 
L 1569 4666 
L 2759 1491 
L 3956 4666 
L 4897 4666 
L 4897 0 
L 4281 0 
L 4281 4097 
L 3078 897 
L 2444 897 
L 1241 4097 
L 1241 0 
L 628 0 
L 628 4666 
z
" transform="scale(0.015625)"/>
       <path id="DejaVuSans-65" d="M 3597 1894 
L 3597 1613 
L 953 1613 
Q 991 1019 1311 708 
Q 1631 397 2203 397 
Q 2534 397 2845 478 
Q 3156 559 3463 722 
L 3463 178 
Q 3153 47 2828 -22 
Q 2503 -91 2169 -91 
Q 1331 -91 842 396 
Q 353 884 353 1716 
Q 353 2575 817 3079 
Q 1281 3584 2069 3584 
Q 2775 3584 3186 3129 
Q 3597 2675 3597 1894 
z
M 3022 2063 
Q 3016 2534 2758 2815 
Q 2500 3097 2075 3097 
Q 1594 3097 1305 2825 
Q 1016 2553 972 2059 
L 3022 2063 
z
" transform="scale(0.015625)"/>
      </defs>
      <use xlink:href="#DejaVuSans-54"/>
      <use xlink:href="#DejaVuSans-61" x="44.583984"/>
      <use xlink:href="#DejaVuSans-73" x="105.863281"/>
      <use xlink:href="#DejaVuSans-6b" x="157.962891"/>
      <use xlink:href="#DejaVuSans-20" x="215.873047"/>
      <use xlink:href="#DejaVuSans-32" x="247.660156"/>
      <use xlink:href="#DejaVuSans-20" x="311.283203"/>
      <use xlink:href="#DejaVuSans-4d" x="343.070312"/>
      <use xlink:href="#DejaVuSans-6f" x="429.349609"/>
      <use xlink:href="#DejaVuSans-64" x="490.53125"/>
      <use xlink:href="#DejaVuSans-65" x="554.007812"/>
      <use xlink:href="#DejaVuSans-6c" x="615.53125"/>
     </g>
    </g>
    <g id="line2d_41">
     <path d="M 507.933375 263.648062 
L 517.933375 263.648062 
L 527.933375 263.648062 
" style="fill: none; stroke: #ff7f0e; stroke-width: 1.5; stroke-linecap: square"/>
    </g>
    <g id="text_35">
     <!-- Task 2 Model - Added improved weights -->
     <g transform="translate(535.933375 267.148062)scale(0.1 -0.1)">
      <defs>
       <path id="DejaVuSans-2d" d="M 313 2009 
L 1997 2009 
L 1997 1497 
L 313 1497 
L 313 2009 
z
" transform="scale(0.015625)"/>
       <path id="DejaVuSans-6d" d="M 3328 2828 
Q 3544 3216 3844 3400 
Q 4144 3584 4550 3584 
Q 5097 3584 5394 3201 
Q 5691 2819 5691 2113 
L 5691 0 
L 5113 0 
L 5113 2094 
Q 5113 2597 4934 2840 
Q 4756 3084 4391 3084 
Q 3944 3084 3684 2787 
Q 3425 2491 3425 1978 
L 3425 0 
L 2847 0 
L 2847 2094 
Q 2847 2600 2669 2842 
Q 2491 3084 2119 3084 
Q 1678 3084 1418 2786 
Q 1159 2488 1159 1978 
L 1159 0 
L 581 0 
L 581 3500 
L 1159 3500 
L 1159 2956 
Q 1356 3278 1631 3431 
Q 1906 3584 2284 3584 
Q 2666 3584 2933 3390 
Q 3200 3197 3328 2828 
z
" transform="scale(0.015625)"/>
       <path id="DejaVuSans-70" d="M 1159 525 
L 1159 -1331 
L 581 -1331 
L 581 3500 
L 1159 3500 
L 1159 2969 
Q 1341 3281 1617 3432 
Q 1894 3584 2278 3584 
Q 2916 3584 3314 3078 
Q 3713 2572 3713 1747 
Q 3713 922 3314 415 
Q 2916 -91 2278 -91 
Q 1894 -91 1617 61 
Q 1341 213 1159 525 
z
M 3116 1747 
Q 3116 2381 2855 2742 
Q 2594 3103 2138 3103 
Q 1681 3103 1420 2742 
Q 1159 2381 1159 1747 
Q 1159 1113 1420 752 
Q 1681 391 2138 391 
Q 2594 391 2855 752 
Q 3116 1113 3116 1747 
z
" transform="scale(0.015625)"/>
       <path id="DejaVuSans-76" d="M 191 3500 
L 800 3500 
L 1894 563 
L 2988 3500 
L 3597 3500 
L 2284 0 
L 1503 0 
L 191 3500 
z
" transform="scale(0.015625)"/>
       <path id="DejaVuSans-77" d="M 269 3500 
L 844 3500 
L 1563 769 
L 2278 3500 
L 2956 3500 
L 3675 769 
L 4391 3500 
L 4966 3500 
L 4050 0 
L 3372 0 
L 2619 2869 
L 1863 0 
L 1184 0 
L 269 3500 
z
" transform="scale(0.015625)"/>
       <path id="DejaVuSans-67" d="M 2906 1791 
Q 2906 2416 2648 2759 
Q 2391 3103 1925 3103 
Q 1463 3103 1205 2759 
Q 947 2416 947 1791 
Q 947 1169 1205 825 
Q 1463 481 1925 481 
Q 2391 481 2648 825 
Q 2906 1169 2906 1791 
z
M 3481 434 
Q 3481 -459 3084 -895 
Q 2688 -1331 1869 -1331 
Q 1566 -1331 1297 -1286 
Q 1028 -1241 775 -1147 
L 775 -588 
Q 1028 -725 1275 -790 
Q 1522 -856 1778 -856 
Q 2344 -856 2625 -561 
Q 2906 -266 2906 331 
L 2906 616 
Q 2728 306 2450 153 
Q 2172 0 1784 0 
Q 1141 0 747 490 
Q 353 981 353 1791 
Q 353 2603 747 3093 
Q 1141 3584 1784 3584 
Q 2172 3584 2450 3431 
Q 2728 3278 2906 2969 
L 2906 3500 
L 3481 3500 
L 3481 434 
z
" transform="scale(0.015625)"/>
       <path id="DejaVuSans-68" d="M 3513 2113 
L 3513 0 
L 2938 0 
L 2938 2094 
Q 2938 2591 2744 2837 
Q 2550 3084 2163 3084 
Q 1697 3084 1428 2787 
Q 1159 2491 1159 1978 
L 1159 0 
L 581 0 
L 581 4863 
L 1159 4863 
L 1159 2956 
Q 1366 3272 1645 3428 
Q 1925 3584 2291 3584 
Q 2894 3584 3203 3211 
Q 3513 2838 3513 2113 
z
" transform="scale(0.015625)"/>
      </defs>
      <use xlink:href="#DejaVuSans-54"/>
      <use xlink:href="#DejaVuSans-61" x="44.583984"/>
      <use xlink:href="#DejaVuSans-73" x="105.863281"/>
      <use xlink:href="#DejaVuSans-6b" x="157.962891"/>
      <use xlink:href="#DejaVuSans-20" x="215.873047"/>
      <use xlink:href="#DejaVuSans-32" x="247.660156"/>
      <use xlink:href="#DejaVuSans-20" x="311.283203"/>
      <use xlink:href="#DejaVuSans-4d" x="343.070312"/>
      <use xlink:href="#DejaVuSans-6f" x="429.349609"/>
      <use xlink:href="#DejaVuSans-64" x="490.53125"/>
      <use xlink:href="#DejaVuSans-65" x="554.007812"/>
      <use xlink:href="#DejaVuSans-6c" x="615.53125"/>
      <use xlink:href="#DejaVuSans-20" x="643.314453"/>
      <use xlink:href="#DejaVuSans-2d" x="675.101562"/>
      <use xlink:href="#DejaVuSans-20" x="711.185547"/>
      <use xlink:href="#DejaVuSans-41" x="742.972656"/>
      <use xlink:href="#DejaVuSans-64" x="809.630859"/>
      <use xlink:href="#DejaVuSans-64" x="873.107422"/>
      <use xlink:href="#DejaVuSans-65" x="936.583984"/>
      <use xlink:href="#DejaVuSans-64" x="998.107422"/>
      <use xlink:href="#DejaVuSans-20" x="1061.583984"/>
      <use xlink:href="#DejaVuSans-69" x="1093.371094"/>
      <use xlink:href="#DejaVuSans-6d" x="1121.154297"/>
      <use xlink:href="#DejaVuSans-70" x="1218.566406"/>
      <use xlink:href="#DejaVuSans-72" x="1282.042969"/>
      <use xlink:href="#DejaVuSans-6f" x="1320.90625"/>
      <use xlink:href="#DejaVuSans-76" x="1382.087891"/>
      <use xlink:href="#DejaVuSans-65" x="1441.267578"/>
      <use xlink:href="#DejaVuSans-64" x="1502.791016"/>
      <use xlink:href="#DejaVuSans-20" x="1566.267578"/>
      <use xlink:href="#DejaVuSans-77" x="1598.054688"/>
      <use xlink:href="#DejaVuSans-65" x="1679.841797"/>
      <use xlink:href="#DejaVuSans-69" x="1741.365234"/>
      <use xlink:href="#DejaVuSans-67" x="1769.148438"/>
      <use xlink:href="#DejaVuSans-68" x="1832.625"/>
      <use xlink:href="#DejaVuSans-74" x="1896.003906"/>
      <use xlink:href="#DejaVuSans-73" x="1935.212891"/>
     </g>
    </g>
    <g id="line2d_42">
     <path d="M 507.933375 278.326187 
L 517.933375 278.326187 
L 527.933375 278.326187 
" style="fill: none; stroke: #2ca02c; stroke-width: 1.5; stroke-linecap: square"/>
    </g>
    <g id="text_36">
     <!-- Task 2 Model - Added improved sigmoid -->
     <g transform="translate(535.933375 281.826187)scale(0.1 -0.1)">
      <use xlink:href="#DejaVuSans-54"/>
      <use xlink:href="#DejaVuSans-61" x="44.583984"/>
      <use xlink:href="#DejaVuSans-73" x="105.863281"/>
      <use xlink:href="#DejaVuSans-6b" x="157.962891"/>
      <use xlink:href="#DejaVuSans-20" x="215.873047"/>
      <use xlink:href="#DejaVuSans-32" x="247.660156"/>
      <use xlink:href="#DejaVuSans-20" x="311.283203"/>
      <use xlink:href="#DejaVuSans-4d" x="343.070312"/>
      <use xlink:href="#DejaVuSans-6f" x="429.349609"/>
      <use xlink:href="#DejaVuSans-64" x="490.53125"/>
      <use xlink:href="#DejaVuSans-65" x="554.007812"/>
      <use xlink:href="#DejaVuSans-6c" x="615.53125"/>
      <use xlink:href="#DejaVuSans-20" x="643.314453"/>
      <use xlink:href="#DejaVuSans-2d" x="675.101562"/>
      <use xlink:href="#DejaVuSans-20" x="711.185547"/>
      <use xlink:href="#DejaVuSans-41" x="742.972656"/>
      <use xlink:href="#DejaVuSans-64" x="809.630859"/>
      <use xlink:href="#DejaVuSans-64" x="873.107422"/>
      <use xlink:href="#DejaVuSans-65" x="936.583984"/>
      <use xlink:href="#DejaVuSans-64" x="998.107422"/>
      <use xlink:href="#DejaVuSans-20" x="1061.583984"/>
      <use xlink:href="#DejaVuSans-69" x="1093.371094"/>
      <use xlink:href="#DejaVuSans-6d" x="1121.154297"/>
      <use xlink:href="#DejaVuSans-70" x="1218.566406"/>
      <use xlink:href="#DejaVuSans-72" x="1282.042969"/>
      <use xlink:href="#DejaVuSans-6f" x="1320.90625"/>
      <use xlink:href="#DejaVuSans-76" x="1382.087891"/>
      <use xlink:href="#DejaVuSans-65" x="1441.267578"/>
      <use xlink:href="#DejaVuSans-64" x="1502.791016"/>
      <use xlink:href="#DejaVuSans-20" x="1566.267578"/>
      <use xlink:href="#DejaVuSans-73" x="1598.054688"/>
      <use xlink:href="#DejaVuSans-69" x="1650.154297"/>
      <use xlink:href="#DejaVuSans-67" x="1677.9375"/>
      <use xlink:href="#DejaVuSans-6d" x="1741.414062"/>
      <use xlink:href="#DejaVuSans-6f" x="1838.826172"/>
      <use xlink:href="#DejaVuSans-69" x="1900.007812"/>
      <use xlink:href="#DejaVuSans-64" x="1927.791016"/>
     </g>
    </g>
    <g id="line2d_43">
     <path d="M 507.933375 293.004312 
L 517.933375 293.004312 
L 527.933375 293.004312 
" style="fill: none; stroke: #d62728; stroke-width: 1.5; stroke-linecap: square"/>
    </g>
    <g id="text_37">
     <!-- Task 2 Model - Added momentum gamma -->
     <g transform="translate(535.933375 296.504312)scale(0.1 -0.1)">
      <use xlink:href="#DejaVuSans-54"/>
      <use xlink:href="#DejaVuSans-61" x="44.583984"/>
      <use xlink:href="#DejaVuSans-73" x="105.863281"/>
      <use xlink:href="#DejaVuSans-6b" x="157.962891"/>
      <use xlink:href="#DejaVuSans-20" x="215.873047"/>
      <use xlink:href="#DejaVuSans-32" x="247.660156"/>
      <use xlink:href="#DejaVuSans-20" x="311.283203"/>
      <use xlink:href="#DejaVuSans-4d" x="343.070312"/>
      <use xlink:href="#DejaVuSans-6f" x="429.349609"/>
      <use xlink:href="#DejaVuSans-64" x="490.53125"/>
      <use xlink:href="#DejaVuSans-65" x="554.007812"/>
      <use xlink:href="#DejaVuSans-6c" x="615.53125"/>
      <use xlink:href="#DejaVuSans-20" x="643.314453"/>
      <use xlink:href="#DejaVuSans-2d" x="675.101562"/>
      <use xlink:href="#DejaVuSans-20" x="711.185547"/>
      <use xlink:href="#DejaVuSans-41" x="742.972656"/>
      <use xlink:href="#DejaVuSans-64" x="809.630859"/>
      <use xlink:href="#DejaVuSans-64" x="873.107422"/>
      <use xlink:href="#DejaVuSans-65" x="936.583984"/>
      <use xlink:href="#DejaVuSans-64" x="998.107422"/>
      <use xlink:href="#DejaVuSans-20" x="1061.583984"/>
      <use xlink:href="#DejaVuSans-6d" x="1093.371094"/>
      <use xlink:href="#DejaVuSans-6f" x="1190.783203"/>
      <use xlink:href="#DejaVuSans-6d" x="1251.964844"/>
      <use xlink:href="#DejaVuSans-65" x="1349.376953"/>
      <use xlink:href="#DejaVuSans-6e" x="1410.900391"/>
      <use xlink:href="#DejaVuSans-74" x="1474.279297"/>
      <use xlink:href="#DejaVuSans-75" x="1513.488281"/>
      <use xlink:href="#DejaVuSans-6d" x="1576.867188"/>
      <use xlink:href="#DejaVuSans-20" x="1674.279297"/>
      <use xlink:href="#DejaVuSans-67" x="1706.066406"/>
      <use xlink:href="#DejaVuSans-61" x="1769.542969"/>
      <use xlink:href="#DejaVuSans-6d" x="1830.822266"/>
      <use xlink:href="#DejaVuSans-6d" x="1928.234375"/>
      <use xlink:href="#DejaVuSans-61" x="2025.646484"/>
     </g>
    </g>
   </g>
  </g>
 </g>
 <defs>
  <clipPath id="p63e2720d73">
   <rect x="104.67" y="41.472" width="294.979091" height="266.112"/>
  </clipPath>
  <clipPath id="p80e2042df4">
   <rect x="458.644909" y="41.472" width="294.979091" height="266.112"/>
  </clipPath>
 </defs>
</svg>
