<?xml version="1.0" encoding="utf-8" standalone="no"?>
<!DOCTYPE svg PUBLIC "-//W3C//DTD SVG 1.1//EN"
  "http://www.w3.org/Graphics/SVG/1.1/DTD/svg11.dtd">
<svg xmlns:xlink="http://www.w3.org/1999/xlink" width="432pt" height="288pt" viewBox="0 0 432 288" xmlns="http://www.w3.org/2000/svg" version="1.1">
 <metadata>
  <rdf:RDF xmlns:dc="http://purl.org/dc/elements/1.1/" xmlns:cc="http://creativecommons.org/ns#" xmlns:rdf="http://www.w3.org/1999/02/22-rdf-syntax-ns#">
   <cc:Work>
    <dc:type rdf:resource="http://purl.org/dc/dcmitype/StillImage"/>
    <dc:date>2022-03-24T12:10:40.349643</dc:date>
    <dc:format>image/svg+xml</dc:format>
    <dc:creator>
     <cc:Agent>
      <dc:title>Matplotlib v3.5.1, https://matplotlib.org/</dc:title>
     </cc:Agent>
    </dc:creator>
   </cc:Work>
  </rdf:RDF>
 </metadata>
 <defs>
  <style type="text/css">*{stroke-linejoin: round; stroke-linecap: butt}</style>
 </defs>
 <g id="figure_1">
  <g id="patch_1">
   <path d="M 0 288 
L 432 288 
L 432 0 
L 0 0 
L 0 288 
z
" style="fill: none"/>
  </g>
  <g id="axes_1">
   <g id="patch_2">
    <path d="M 54 252 
L 388.8 252 
L 388.8 34.56 
L 54 34.56 
z
" style="fill: #ffffff"/>
   </g>
   <g id="patch_3">
    <path d="M 120.96 208.512 
L 321.84 208.512 
L 321.84 78.048 
L 120.96 78.048 
z
" clip-path="url(#p373974f9e0)" style="fill: #1f77b4"/>
   </g>
   <g id="patch_4">
    <path d="M 228.09601 229.82112 
C 242.47999 229.82112 256.276775 226.109562 266.447785 219.503874 
C 276.618795 212.898186 282.33361 203.937693 282.33361 194.59584 
C 282.33361 185.253987 276.618795 176.293494 266.447785 169.687806 
C 256.276775 163.082118 242.47999 159.37056 228.09601 159.37056 
C 213.712031 159.37056 199.915245 163.082118 189.744235 169.687806 
C 179.573226 176.293494 173.85841 185.253987 173.85841 194.59584 
C 173.85841 203.937693 179.573226 212.898186 189.744235 219.503874 
C 199.915245 226.109562 213.712031 229.82112 228.09601 229.82112 
z
" clip-path="url(#p373974f9e0)" style="fill: #ff0000; opacity: 0.1; stroke: #ff0000; stroke-linejoin: miter"/>
   </g>
   <g id="patch_5">
    <path d="M 270.9504 229.82112 
C 285.33438 229.82112 299.131165 226.109562 309.302175 219.503874 
C 319.473184 212.898186 325.188 203.937693 325.188 194.59584 
C 325.188 185.253987 319.473184 176.293494 309.302175 169.687806 
C 299.131165 163.082118 285.33438 159.37056 270.9504 159.37056 
C 256.56642 159.37056 242.769635 163.082118 232.598625 169.687806 
C 222.427616 176.293494 216.7128 185.253987 216.7128 194.59584 
C 216.7128 203.937693 222.427616 212.898186 232.598625 219.503874 
C 242.769635 226.109562 256.56642 229.82112 270.9504 229.82112 
z
" clip-path="url(#p373974f9e0)" style="fill: #008000; opacity: 0.1; stroke: #008000; stroke-linejoin: miter"/>
   </g>
   <g id="patch_6">
    <path d="M 313.8048 229.82112 
C 328.18878 229.82112 341.985565 226.109562 352.156575 219.503874 
C 362.327584 212.898186 368.0424 203.937693 368.0424 194.59584 
C 368.0424 185.253987 362.327584 176.293494 352.156575 169.687806 
C 341.985565 163.082118 328.18878 159.37056 313.8048 159.37056 
C 299.42082 159.37056 285.624035 163.082118 275.453025 169.687806 
C 265.282016 176.293494 259.5672 185.253987 259.5672 194.59584 
C 259.5672 203.937693 265.282016 212.898186 275.453025 219.503874 
C 285.624035 226.109562 299.42082 229.82112 313.8048 229.82112 
z
" clip-path="url(#p373974f9e0)" style="fill: #0000ff; opacity: 0.1; stroke: #0000ff; stroke-linejoin: miter"/>
   </g>
   <g id="patch_7">
    <path d="M 142.3872 201.9888 
C 156.77118 201.9888 170.567965 198.277242 180.738975 191.671554 
C 190.909984 185.065866 196.6248 176.105373 196.6248 166.76352 
C 196.6248 157.421667 190.909984 148.461174 180.738975 141.855486 
C 170.567965 135.249798 156.77118 131.53824 142.3872 131.53824 
C 128.00322 131.53824 114.206435 135.249798 104.035425 141.855486 
C 93.864416 148.461174 88.1496 157.421667 88.1496 166.76352 
C 88.1496 176.105373 93.864416 185.065866 104.035425 191.671554 
C 114.206435 198.277242 128.00322 201.9888 142.3872 201.9888 
z
" clip-path="url(#p373974f9e0)" style="fill: #bfbf00; opacity: 0.1; stroke: #bfbf00; stroke-linejoin: miter"/>
   </g>
   <g id="patch_8">
    <path d="M 270.9504 201.9888 
C 285.33438 201.9888 299.131165 198.277242 309.302175 191.671554 
C 319.473184 185.065866 325.188 176.105373 325.188 166.76352 
C 325.188 157.421667 319.473184 148.461174 309.302175 141.855486 
C 299.131165 135.249798 285.33438 131.53824 270.9504 131.53824 
C 256.56642 131.53824 242.769635 135.249798 232.598625 141.855486 
C 222.427616 148.461174 216.7128 157.421667 216.7128 166.76352 
C 216.7128 176.105373 222.427616 185.065866 232.598625 191.671554 
C 242.769635 198.277242 256.56642 201.9888 270.9504 201.9888 
z
" clip-path="url(#p373974f9e0)" style="fill: #ff0000; opacity: 0.1; stroke: #ff0000; stroke-linejoin: miter"/>
   </g>
   <g id="patch_9">
    <path d="M 313.8048 201.9888 
C 328.18878 201.9888 341.985565 198.277242 352.156575 191.671554 
C 362.327584 185.065866 368.0424 176.105373 368.0424 166.76352 
C 368.0424 157.421667 362.327584 148.461174 352.156575 141.855486 
C 341.985565 135.249798 328.18878 131.53824 313.8048 131.53824 
C 299.42082 131.53824 285.624035 135.249798 275.453025 141.855486 
C 265.282016 148.461174 259.5672 157.421667 259.5672 166.76352 
C 259.5672 176.105373 265.282016 185.065866 275.453025 191.671554 
C 285.624035 198.277242 299.42082 201.9888 313.8048 201.9888 
z
" clip-path="url(#p373974f9e0)" style="fill: #008000; opacity: 0.1; stroke: #008000; stroke-linejoin: miter"/>
   </g>
   <g id="patch_10">
    <path d="M 142.3872 174.156473 
C 156.77118 174.156473 170.567965 170.444916 180.738975 163.839228 
C 190.909984 157.23354 196.6248 148.273047 196.6248 138.931193 
C 196.6248 129.58934 190.909984 120.628847 180.738975 114.023159 
C 170.567965 107.417471 156.77118 103.705913 142.3872 103.705913 
C 128.00322 103.705913 114.206435 107.417471 104.035425 114.023159 
C 93.864416 120.628847 88.1496 129.58934 88.1496 138.931193 
C 88.1496 148.273047 93.864416 157.23354 104.035425 163.839228 
C 114.206435 170.444916 128.00322 174.156473 142.3872 174.156473 
z
" clip-path="url(#p373974f9e0)" style="fill: #0000ff; opacity: 0.1; stroke: #0000ff; stroke-linejoin: miter"/>
   </g>
   <g id="patch_11">
    <path d="M 185.2416 174.156473 
C 199.62558 174.156473 213.422365 170.444916 223.593375 163.839228 
C 233.764384 157.23354 239.4792 148.273047 239.4792 138.931193 
C 239.4792 129.58934 233.764384 120.628847 223.593375 114.023159 
C 213.422365 107.417471 199.62558 103.705913 185.2416 103.705913 
C 170.85762 103.705913 157.060835 107.417471 146.889825 114.023159 
C 136.718816 120.628847 131.004 129.58934 131.004 138.931193 
C 131.004 148.273047 136.718816 157.23354 146.889825 163.839228 
C 157.060835 170.444916 170.85762 174.156473 185.2416 174.156473 
z
" clip-path="url(#p373974f9e0)" style="fill: #bfbf00; opacity: 0.1; stroke: #bfbf00; stroke-linejoin: miter"/>
   </g>
   <g id="patch_12">
    <path d="M 313.8048 174.156473 
C 328.18878 174.156473 341.985565 170.444916 352.156575 163.839228 
C 362.327584 157.23354 368.0424 148.273047 368.0424 138.931193 
C 368.0424 129.58934 362.327584 120.628847 352.156575 114.023159 
C 341.985565 107.417471 328.18878 103.705913 313.8048 103.705913 
C 299.42082 103.705913 285.624035 107.417471 275.453025 114.023159 
C 265.282016 120.628847 259.5672 129.58934 259.5672 138.931193 
C 259.5672 148.273047 265.282016 157.23354 275.453025 163.839228 
C 285.624035 170.444916 299.42082 174.156473 313.8048 174.156473 
z
" clip-path="url(#p373974f9e0)" style="fill: #ff0000; opacity: 0.1; stroke: #ff0000; stroke-linejoin: miter"/>
   </g>
   <g id="patch_13">
    <path d="M 142.3872 146.32416 
C 156.77118 146.32416 170.567965 142.612602 180.738975 136.006914 
C 190.909984 129.401226 196.6248 120.440733 196.6248 111.09888 
C 196.6248 101.757027 190.909984 92.796534 180.738975 86.190846 
C 170.567965 79.585158 156.77118 75.8736 142.3872 75.8736 
C 128.00322 75.8736 114.206435 79.585158 104.035425 86.190846 
C 93.864416 92.796534 88.1496 101.757027 88.1496 111.09888 
C 88.1496 120.440733 93.864416 129.401226 104.035425 136.006914 
C 114.206435 142.612602 128.00322 146.32416 142.3872 146.32416 
z
" clip-path="url(#p373974f9e0)" style="fill: #008000; opacity: 0.1; stroke: #008000; stroke-linejoin: miter"/>
   </g>
   <g id="patch_14">
    <path d="M 185.2416 146.32416 
C 199.62558 146.32416 213.422365 142.612602 223.593375 136.006914 
C 233.764384 129.401226 239.4792 120.440733 239.4792 111.09888 
C 239.4792 101.757027 233.764384 92.796534 223.593375 86.190846 
C 213.422365 79.585158 199.62558 75.8736 185.2416 75.8736 
C 170.85762 75.8736 157.060835 79.585158 146.889825 86.190846 
C 136.718816 92.796534 131.004 101.757027 131.004 111.09888 
C 131.004 120.440733 136.718816 129.401226 146.889825 136.006914 
C 157.060835 142.612602 170.85762 146.32416 185.2416 146.32416 
z
" clip-path="url(#p373974f9e0)" style="fill: #0000ff; opacity: 0.1; stroke: #0000ff; stroke-linejoin: miter"/>
   </g>
   <g id="patch_15">
    <path d="M 228.09601 146.32416 
C 242.47999 146.32416 256.276775 142.612602 266.447785 136.006914 
C 276.618795 129.401226 282.33361 120.440733 282.33361 111.09888 
C 282.33361 101.757027 276.618795 92.796534 266.447785 86.190846 
C 256.276775 79.585158 242.47999 75.8736 228.09601 75.8736 
C 213.712031 75.8736 199.915245 79.585158 189.744235 86.190846 
C 179.573226 92.796534 173.85841 101.757027 173.85841 111.09888 
C 173.85841 120.440733 179.573226 129.401226 189.744235 136.006914 
C 199.915245 142.612602 213.712031 146.32416 228.09601 146.32416 
z
" clip-path="url(#p373974f9e0)" style="fill: #bfbf00; opacity: 0.1; stroke: #bfbf00; stroke-linejoin: miter"/>
   </g>
   <g id="patch_16">
    <path d="M 142.3872 118.49184 
C 156.77118 118.49184 170.567965 114.780282 180.738975 108.174594 
C 190.909984 101.568906 196.6248 92.608413 196.6248 83.26656 
C 196.6248 73.924707 190.909984 64.964214 180.738975 58.358526 
C 170.567965 51.752838 156.77118 48.04128 142.3872 48.04128 
C 128.00322 48.04128 114.206435 51.752838 104.035425 58.358526 
C 93.864416 64.964214 88.1496 73.924707 88.1496 83.26656 
C 88.1496 92.608413 93.864416 101.568906 104.035425 108.174594 
C 114.206435 114.780282 128.00322 118.49184 142.3872 118.49184 
z
" clip-path="url(#p373974f9e0)" style="fill: #ff0000; opacity: 0.1; stroke: #ff0000; stroke-linejoin: miter"/>
   </g>
   <g id="patch_17">
    <path d="M 185.2416 118.49184 
C 199.62558 118.49184 213.422365 114.780282 223.593375 108.174594 
C 233.764384 101.568906 239.4792 92.608413 239.4792 83.26656 
C 239.4792 73.924707 233.764384 64.964214 223.593375 58.358526 
C 213.422365 51.752838 199.62558 48.04128 185.2416 48.04128 
C 170.85762 48.04128 157.060835 51.752838 146.889825 58.358526 
C 136.718816 64.964214 131.004 73.924707 131.004 83.26656 
C 131.004 92.608413 136.718816 101.568906 146.889825 108.174594 
C 157.060835 114.780282 170.85762 118.49184 185.2416 118.49184 
z
" clip-path="url(#p373974f9e0)" style="fill: #008000; opacity: 0.1; stroke: #008000; stroke-linejoin: miter"/>
   </g>
   <g id="patch_18">
    <path d="M 228.09601 118.49184 
C 242.47999 118.49184 256.276775 114.780282 266.447785 108.174594 
C 276.618795 101.568906 282.33361 92.608413 282.33361 83.26656 
C 282.33361 73.924707 276.618795 64.964214 266.447785 58.358526 
C 256.276775 51.752838 242.47999 48.04128 228.09601 48.04128 
C 213.712031 48.04128 199.915245 51.752838 189.744235 58.358526 
C 179.573226 64.964214 173.85841 73.924707 173.85841 83.26656 
C 173.85841 92.608413 179.573226 101.568906 189.744235 108.174594 
C 199.915245 114.780282 213.712031 118.49184 228.09601 118.49184 
z
" clip-path="url(#p373974f9e0)" style="fill: #0000ff; opacity: 0.1; stroke: #0000ff; stroke-linejoin: miter"/>
   </g>
   <g id="patch_19">
    <path d="M 270.9504 118.49184 
C 285.33438 118.49184 299.131165 114.780282 309.302175 108.174594 
C 319.473184 101.568906 325.188 92.608413 325.188 83.26656 
C 325.188 73.924707 319.473184 64.964214 309.302175 58.358526 
C 299.131165 51.752838 285.33438 48.04128 270.9504 48.04128 
C 256.56642 48.04128 242.769635 51.752838 232.598625 58.358526 
C 222.427616 64.964214 216.7128 73.924707 216.7128 83.26656 
C 216.7128 92.608413 222.427616 101.568906 232.598625 108.174594 
C 242.769635 114.780282 256.56642 118.49184 270.9504 118.49184 
z
" clip-path="url(#p373974f9e0)" style="fill: #bfbf00; opacity: 0.1; stroke: #bfbf00; stroke-linejoin: miter"/>
   </g>
   <g id="patch_20">
    <path d="M 185.2416 234.987039 
C 201.735044 234.987039 217.555179 230.731167 229.217806 223.15673 
C 240.880432 215.582294 247.433346 205.307711 247.433346 194.59584 
C 247.433346 183.883969 240.880432 173.609386 229.217806 166.03495 
C 217.555179 158.460513 201.735044 154.204641 185.2416 154.204641 
C 168.748156 154.204641 152.928021 158.460513 141.265394 166.03495 
C 129.602768 173.609386 123.049854 183.883969 123.049854 194.59584 
C 123.049854 205.307711 129.602768 215.582294 141.265394 223.15673 
C 152.928021 230.731167 168.748156 234.987039 185.2416 234.987039 
z
" clip-path="url(#p373974f9e0)" style="fill: #ff0000; opacity: 0.1; stroke: #ff0000; stroke-linejoin: miter"/>
   </g>
   <g id="patch_21">
    <path d="M 228.09601 234.987039 
C 244.589454 234.987039 260.40959 230.731167 272.072216 223.15673 
C 283.734842 215.582294 290.287756 205.307711 290.287756 194.59584 
C 290.287756 183.883969 283.734842 173.609386 272.072216 166.03495 
C 260.40959 158.460513 244.589454 154.204641 228.09601 154.204641 
C 211.602566 154.204641 195.782431 158.460513 184.119805 166.03495 
C 172.457179 173.609386 165.904264 183.883969 165.904264 194.59584 
C 165.904264 205.307711 172.457179 215.582294 184.119805 223.15673 
C 195.782431 230.731167 211.602566 234.987039 228.09601 234.987039 
z
" clip-path="url(#p373974f9e0)" style="fill: #008000; opacity: 0.1; stroke: #008000; stroke-linejoin: miter"/>
   </g>
   <g id="patch_22">
    <path d="M 270.9504 234.987039 
C 287.443844 234.987039 303.263979 230.731167 314.926606 223.15673 
C 326.589232 215.582294 333.142146 205.307711 333.142146 194.59584 
C 333.142146 183.883969 326.589232 173.609386 314.926606 166.03495 
C 303.263979 158.460513 287.443844 154.204641 270.9504 154.204641 
C 254.456956 154.204641 238.636821 158.460513 226.974194 166.03495 
C 215.311568 173.609386 208.758654 183.883969 208.758654 194.59584 
C 208.758654 205.307711 215.311568 215.582294 226.974194 223.15673 
C 238.636821 230.731167 254.456956 234.987039 270.9504 234.987039 
z
" clip-path="url(#p373974f9e0)" style="fill: #0000ff; opacity: 0.1; stroke: #0000ff; stroke-linejoin: miter"/>
   </g>
   <g id="patch_23">
    <path d="M 313.8048 234.987039 
C 330.298244 234.987039 346.118379 230.731167 357.781006 223.15673 
C 369.443632 215.582294 375.996546 205.307711 375.996546 194.59584 
C 375.996546 183.883969 369.443632 173.609386 357.781006 166.03495 
C 346.118379 158.460513 330.298244 154.204641 313.8048 154.204641 
C 297.311356 154.204641 281.491221 158.460513 269.828594 166.03495 
C 258.165968 173.609386 251.613054 183.883969 251.613054 194.59584 
C 251.613054 205.307711 258.165968 215.582294 269.828594 223.15673 
C 281.491221 230.731167 297.311356 234.987039 313.8048 234.987039 
z
" clip-path="url(#p373974f9e0)" style="fill: #bfbf00; opacity: 0.1; stroke: #bfbf00; stroke-linejoin: miter"/>
   </g>
   <g id="patch_24">
    <path d="M 228.09601 207.154719 
C 244.589454 207.154719 260.40959 202.898847 272.072216 195.32441 
C 283.734842 187.749974 290.287756 177.475391 290.287756 166.76352 
C 290.287756 156.051649 283.734842 145.777066 272.072216 138.20263 
C 260.40959 130.628193 244.589454 126.372321 228.09601 126.372321 
C 211.602566 126.372321 195.782431 130.628193 184.119805 138.20263 
C 172.457179 145.777066 165.904264 156.051649 165.904264 166.76352 
C 165.904264 177.475391 172.457179 187.749974 184.119805 195.32441 
C 195.782431 202.898847 211.602566 207.154719 228.09601 207.154719 
z
" clip-path="url(#p373974f9e0)" style="fill: #ff0000; opacity: 0.1; stroke: #ff0000; stroke-linejoin: miter"/>
   </g>
   <g id="patch_25">
    <path d="M 270.9504 207.154719 
C 287.443844 207.154719 303.263979 202.898847 314.926606 195.32441 
C 326.589232 187.749974 333.142146 177.475391 333.142146 166.76352 
C 333.142146 156.051649 326.589232 145.777066 314.926606 138.20263 
C 303.263979 130.628193 287.443844 126.372321 270.9504 126.372321 
C 254.456956 126.372321 238.636821 130.628193 226.974194 138.20263 
C 215.311568 145.777066 208.758654 156.051649 208.758654 166.76352 
C 208.758654 177.475391 215.311568 187.749974 226.974194 195.32441 
C 238.636821 202.898847 254.456956 207.154719 270.9504 207.154719 
z
" clip-path="url(#p373974f9e0)" style="fill: #008000; opacity: 0.1; stroke: #008000; stroke-linejoin: miter"/>
   </g>
   <g id="patch_26">
    <path d="M 313.8048 207.154719 
C 330.298244 207.154719 346.118379 202.898847 357.781006 195.32441 
C 369.443632 187.749974 375.996546 177.475391 375.996546 166.76352 
C 375.996546 156.051649 369.443632 145.777066 357.781006 138.20263 
C 346.118379 130.628193 330.298244 126.372321 313.8048 126.372321 
C 297.311356 126.372321 281.491221 130.628193 269.828594 138.20263 
C 258.165968 145.777066 251.613054 156.051649 251.613054 166.76352 
C 251.613054 177.475391 258.165968 187.749974 269.828594 195.32441 
C 281.491221 202.898847 297.311356 207.154719 313.8048 207.154719 
z
" clip-path="url(#p373974f9e0)" style="fill: #0000ff; opacity: 0.1; stroke: #0000ff; stroke-linejoin: miter"/>
   </g>
   <g id="patch_27">
    <path d="M 142.3872 179.322392 
C 158.880644 179.322392 174.700779 175.066521 186.363406 167.492084 
C 198.026032 159.917647 204.578946 149.643064 204.578946 138.931193 
C 204.578946 128.219322 198.026032 117.94474 186.363406 110.370303 
C 174.700779 102.795866 158.880644 98.539995 142.3872 98.539995 
C 125.893756 98.539995 110.073621 102.795866 98.410994 110.370303 
C 86.748368 117.94474 80.195454 128.219322 80.195454 138.931193 
C 80.195454 149.643064 86.748368 159.917647 98.410994 167.492084 
C 110.073621 175.066521 125.893756 179.322392 142.3872 179.322392 
z
" clip-path="url(#p373974f9e0)" style="fill: #bfbf00; opacity: 0.1; stroke: #bfbf00; stroke-linejoin: miter"/>
   </g>
   <g id="patch_28">
    <path d="M 270.9504 179.322392 
C 287.443844 179.322392 303.263979 175.066521 314.926606 167.492084 
C 326.589232 159.917647 333.142146 149.643064 333.142146 138.931193 
C 333.142146 128.219322 326.589232 117.94474 314.926606 110.370303 
C 303.263979 102.795866 287.443844 98.539995 270.9504 98.539995 
C 254.456956 98.539995 238.636821 102.795866 226.974194 110.370303 
C 215.311568 117.94474 208.758654 128.219322 208.758654 138.931193 
C 208.758654 149.643064 215.311568 159.917647 226.974194 167.492084 
C 238.636821 175.066521 254.456956 179.322392 270.9504 179.322392 
z
" clip-path="url(#p373974f9e0)" style="fill: #ff0000; opacity: 0.1; stroke: #ff0000; stroke-linejoin: miter"/>
   </g>
   <g id="patch_29">
    <path d="M 313.8048 179.322392 
C 330.298244 179.322392 346.118379 175.066521 357.781006 167.492084 
C 369.443632 159.917647 375.996546 149.643064 375.996546 138.931193 
C 375.996546 128.219322 369.443632 117.94474 357.781006 110.370303 
C 346.118379 102.795866 330.298244 98.539995 313.8048 98.539995 
C 297.311356 98.539995 281.491221 102.795866 269.828594 110.370303 
C 258.165968 117.94474 251.613054 128.219322 251.613054 138.931193 
C 251.613054 149.643064 258.165968 159.917647 269.828594 167.492084 
C 281.491221 175.066521 297.311356 179.322392 313.8048 179.322392 
z
" clip-path="url(#p373974f9e0)" style="fill: #008000; opacity: 0.1; stroke: #008000; stroke-linejoin: miter"/>
   </g>
   <g id="patch_30">
    <path d="M 142.3872 151.490079 
C 158.880644 151.490079 174.700779 147.234207 186.363406 139.65977 
C 198.026032 132.085334 204.578946 121.810751 204.578946 111.09888 
C 204.578946 100.387009 198.026032 90.112426 186.363406 82.53799 
C 174.700779 74.963553 158.880644 70.707681 142.3872 70.707681 
C 125.893756 70.707681 110.073621 74.963553 98.410994 82.53799 
C 86.748368 90.112426 80.195454 100.387009 80.195454 111.09888 
C 80.195454 121.810751 86.748368 132.085334 98.410994 139.65977 
C 110.073621 147.234207 125.893756 151.490079 142.3872 151.490079 
z
" clip-path="url(#p373974f9e0)" style="fill: #0000ff; opacity: 0.1; stroke: #0000ff; stroke-linejoin: miter"/>
   </g>
   <g id="patch_31">
    <path d="M 185.2416 151.490079 
C 201.735044 151.490079 217.555179 147.234207 229.217806 139.65977 
C 240.880432 132.085334 247.433346 121.810751 247.433346 111.09888 
C 247.433346 100.387009 240.880432 90.112426 229.217806 82.53799 
C 217.555179 74.963553 201.735044 70.707681 185.2416 70.707681 
C 168.748156 70.707681 152.928021 74.963553 141.265394 82.53799 
C 129.602768 90.112426 123.049854 100.387009 123.049854 111.09888 
C 123.049854 121.810751 129.602768 132.085334 141.265394 139.65977 
C 152.928021 147.234207 168.748156 151.490079 185.2416 151.490079 
z
" clip-path="url(#p373974f9e0)" style="fill: #bfbf00; opacity: 0.1; stroke: #bfbf00; stroke-linejoin: miter"/>
   </g>
   <g id="patch_32">
    <path d="M 313.8048 151.490079 
C 330.298244 151.490079 346.118379 147.234207 357.781006 139.65977 
C 369.443632 132.085334 375.996546 121.810751 375.996546 111.09888 
C 375.996546 100.387009 369.443632 90.112426 357.781006 82.53799 
C 346.118379 74.963553 330.298244 70.707681 313.8048 70.707681 
C 297.311356 70.707681 281.491221 74.963553 269.828594 82.53799 
C 258.165968 90.112426 251.613054 100.387009 251.613054 111.09888 
C 251.613054 121.810751 258.165968 132.085334 269.828594 139.65977 
C 281.491221 147.234207 297.311356 151.490079 313.8048 151.490079 
z
" clip-path="url(#p373974f9e0)" style="fill: #ff0000; opacity: 0.1; stroke: #ff0000; stroke-linejoin: miter"/>
   </g>
   <g id="patch_33">
    <path d="M 142.3872 123.657759 
C 158.880644 123.657759 174.700779 119.401887 186.363406 111.82745 
C 198.026032 104.253014 204.578946 93.978431 204.578946 83.26656 
C 204.578946 72.554689 198.026032 62.280106 186.363406 54.70567 
C 174.700779 47.131233 158.880644 42.875361 142.3872 42.875361 
C 125.893756 42.875361 110.073621 47.131233 98.410994 54.70567 
C 86.748368 62.280106 80.195454 72.554689 80.195454 83.26656 
C 80.195454 93.978431 86.748368 104.253014 98.410994 111.82745 
C 110.073621 119.401887 125.893756 123.657759 142.3872 123.657759 
z
" clip-path="url(#p373974f9e0)" style="fill: #008000; opacity: 0.1; stroke: #008000; stroke-linejoin: miter"/>
   </g>
   <g id="patch_34">
    <path d="M 185.2416 123.657759 
C 201.735044 123.657759 217.555179 119.401887 229.217806 111.82745 
C 240.880432 104.253014 247.433346 93.978431 247.433346 83.26656 
C 247.433346 72.554689 240.880432 62.280106 229.217806 54.70567 
C 217.555179 47.131233 201.735044 42.875361 185.2416 42.875361 
C 168.748156 42.875361 152.928021 47.131233 141.265394 54.70567 
C 129.602768 62.280106 123.049854 72.554689 123.049854 83.26656 
C 123.049854 93.978431 129.602768 104.253014 141.265394 111.82745 
C 152.928021 119.401887 168.748156 123.657759 185.2416 123.657759 
z
" clip-path="url(#p373974f9e0)" style="fill: #0000ff; opacity: 0.1; stroke: #0000ff; stroke-linejoin: miter"/>
   </g>
   <g id="patch_35">
    <path d="M 228.09601 123.657759 
C 244.589454 123.657759 260.40959 119.401887 272.072216 111.82745 
C 283.734842 104.253014 290.287756 93.978431 290.287756 83.26656 
C 290.287756 72.554689 283.734842 62.280106 272.072216 54.70567 
C 260.40959 47.131233 244.589454 42.875361 228.09601 42.875361 
C 211.602566 42.875361 195.782431 47.131233 184.119805 54.70567 
C 172.457179 62.280106 165.904264 72.554689 165.904264 83.26656 
C 165.904264 93.978431 172.457179 104.253014 184.119805 111.82745 
C 195.782431 119.401887 211.602566 123.657759 228.09601 123.657759 
z
" clip-path="url(#p373974f9e0)" style="fill: #bfbf00; opacity: 0.1; stroke: #bfbf00; stroke-linejoin: miter"/>
   </g>
   <g id="patch_36">
    <path d="M 142.3872 219.503875 
C 162.729219 219.503875 182.240821 216.879407 196.624801 212.20848 
C 211.008781 207.537553 219.090751 201.201528 219.090751 194.59584 
C 219.090751 187.990152 211.008781 181.654127 196.624801 176.9832 
C 182.240821 172.312273 162.729219 169.687805 142.3872 169.687805 
C 122.045181 169.687805 102.533579 172.312273 88.149599 176.9832 
C 73.765619 181.654127 65.683649 187.990152 65.683649 194.59584 
C 65.683649 201.201528 73.765619 207.537553 88.149599 212.20848 
C 102.533579 216.879407 122.045181 219.503875 142.3872 219.503875 
z
" clip-path="url(#p373974f9e0)" style="fill: #ff0000; opacity: 0.1; stroke: #ff0000; stroke-linejoin: miter"/>
   </g>
   <g id="patch_37">
    <path d="M 185.2416 219.503875 
C 205.583619 219.503875 225.095221 216.879407 239.479201 212.20848 
C 253.863181 207.537553 261.945151 201.201528 261.945151 194.59584 
C 261.945151 187.990152 253.863181 181.654127 239.479201 176.9832 
C 225.095221 172.312273 205.583619 169.687805 185.2416 169.687805 
C 164.899581 169.687805 145.387979 172.312273 131.003999 176.9832 
C 116.620019 181.654127 108.538049 187.990152 108.538049 194.59584 
C 108.538049 201.201528 116.620019 207.537553 131.003999 212.20848 
C 145.387979 216.879407 164.899581 219.503875 185.2416 219.503875 
z
" clip-path="url(#p373974f9e0)" style="fill: #008000; opacity: 0.1; stroke: #008000; stroke-linejoin: miter"/>
   </g>
   <g id="patch_38">
    <path d="M 228.09601 219.503875 
C 248.43803 219.503875 267.949631 216.879407 282.333611 212.20848 
C 296.717591 207.537553 304.799561 201.201528 304.799561 194.59584 
C 304.799561 187.990152 296.717591 181.654127 282.333611 176.9832 
C 267.949631 172.312273 248.43803 169.687805 228.09601 169.687805 
C 207.753991 169.687805 188.242389 172.312273 173.85841 176.9832 
C 159.47443 181.654127 151.39246 187.990152 151.39246 194.59584 
C 151.39246 201.201528 159.47443 207.537553 173.85841 212.20848 
C 188.242389 216.879407 207.753991 219.503875 228.09601 219.503875 
z
" clip-path="url(#p373974f9e0)" style="fill: #0000ff; opacity: 0.1; stroke: #0000ff; stroke-linejoin: miter"/>
   </g>
   <g id="patch_39">
    <path d="M 270.9504 219.503875 
C 291.292419 219.503875 310.804021 216.879407 325.188001 212.20848 
C 339.571981 207.537553 347.653951 201.201528 347.653951 194.59584 
C 347.653951 187.990152 339.571981 181.654127 325.188001 176.9832 
C 310.804021 172.312273 291.292419 169.687805 270.9504 169.687805 
C 250.608381 169.687805 231.096779 172.312273 216.712799 176.9832 
C 202.328819 181.654127 194.246849 187.990152 194.246849 194.59584 
C 194.246849 201.201528 202.328819 207.537553 216.712799 212.20848 
C 231.096779 216.879407 250.608381 219.503875 270.9504 219.503875 
z
" clip-path="url(#p373974f9e0)" style="fill: #bfbf00; opacity: 0.1; stroke: #bfbf00; stroke-linejoin: miter"/>
   </g>
   <g id="patch_40">
    <path d="M 185.2416 191.671555 
C 205.583619 191.671555 225.095221 189.047087 239.479201 184.37616 
C 253.863181 179.705233 261.945151 173.369208 261.945151 166.76352 
C 261.945151 160.157832 253.863181 153.821807 239.479201 149.15088 
C 225.095221 144.479953 205.583619 141.855485 185.2416 141.855485 
C 164.899581 141.855485 145.387979 144.479953 131.003999 149.15088 
C 116.620019 153.821807 108.538049 160.157832 108.538049 166.76352 
C 108.538049 173.369208 116.620019 179.705233 131.003999 184.37616 
C 145.387979 189.047087 164.899581 191.671555 185.2416 191.671555 
z
" clip-path="url(#p373974f9e0)" style="fill: #ff0000; opacity: 0.1; stroke: #ff0000; stroke-linejoin: miter"/>
   </g>
   <g id="patch_41">
    <path d="M 228.09601 191.671555 
C 248.43803 191.671555 267.949631 189.047087 282.333611 184.37616 
C 296.717591 179.705233 304.799561 173.369208 304.799561 166.76352 
C 304.799561 160.157832 296.717591 153.821807 282.333611 149.15088 
C 267.949631 144.479953 248.43803 141.855485 228.09601 141.855485 
C 207.753991 141.855485 188.242389 144.479953 173.85841 149.15088 
C 159.47443 153.821807 151.39246 160.157832 151.39246 166.76352 
C 151.39246 173.369208 159.47443 179.705233 173.85841 184.37616 
C 188.242389 189.047087 207.753991 191.671555 228.09601 191.671555 
z
" clip-path="url(#p373974f9e0)" style="fill: #008000; opacity: 0.1; stroke: #008000; stroke-linejoin: miter"/>
   </g>
   <g id="patch_42">
    <path d="M 270.9504 191.671555 
C 291.292419 191.671555 310.804021 189.047087 325.188001 184.37616 
C 339.571981 179.705233 347.653951 173.369208 347.653951 166.76352 
C 347.653951 160.157832 339.571981 153.821807 325.188001 149.15088 
C 310.804021 144.479953 291.292419 141.855485 270.9504 141.855485 
C 250.608381 141.855485 231.096779 144.479953 216.712799 149.15088 
C 202.328819 153.821807 194.246849 160.157832 194.246849 166.76352 
C 194.246849 173.369208 202.328819 179.705233 216.712799 184.37616 
C 231.096779 189.047087 250.608381 191.671555 270.9504 191.671555 
z
" clip-path="url(#p373974f9e0)" style="fill: #0000ff; opacity: 0.1; stroke: #0000ff; stroke-linejoin: miter"/>
   </g>
   <g id="patch_43">
    <path d="M 313.8048 191.671555 
C 334.146819 191.671555 353.658421 189.047087 368.042401 184.37616 
C 382.426381 179.705233 390.508351 173.369208 390.508351 166.76352 
C 390.508351 160.157832 382.426381 153.821807 368.042401 149.15088 
C 353.658421 144.479953 334.146819 141.855485 313.8048 141.855485 
C 293.462781 141.855485 273.951179 144.479953 259.567199 149.15088 
C 245.183219 153.821807 237.101249 160.157832 237.101249 166.76352 
C 237.101249 173.369208 245.183219 179.705233 259.567199 184.37616 
C 273.951179 189.047087 293.462781 191.671555 313.8048 191.671555 
z
" clip-path="url(#p373974f9e0)" style="fill: #bfbf00; opacity: 0.1; stroke: #bfbf00; stroke-linejoin: miter"/>
   </g>
   <g id="patch_44">
    <path d="M 228.09601 163.839228 
C 248.43803 163.839228 267.949631 161.21476 282.333611 156.543834 
C 296.717591 151.872907 304.799561 145.536881 304.799561 138.931193 
C 304.799561 132.325505 296.717591 125.98948 282.333611 121.318553 
C 267.949631 116.647626 248.43803 114.023159 228.09601 114.023159 
C 207.753991 114.023159 188.242389 116.647626 173.85841 121.318553 
C 159.47443 125.98948 151.39246 132.325505 151.39246 138.931193 
C 151.39246 145.536881 159.47443 151.872907 173.85841 156.543834 
C 188.242389 161.21476 207.753991 163.839228 228.09601 163.839228 
z
" clip-path="url(#p373974f9e0)" style="fill: #ff0000; opacity: 0.1; stroke: #ff0000; stroke-linejoin: miter"/>
   </g>
   <g id="patch_45">
    <path d="M 270.9504 163.839228 
C 291.292419 163.839228 310.804021 161.21476 325.188001 156.543834 
C 339.571981 151.872907 347.653951 145.536881 347.653951 138.931193 
C 347.653951 132.325505 339.571981 125.98948 325.188001 121.318553 
C 310.804021 116.647626 291.292419 114.023159 270.9504 114.023159 
C 250.608381 114.023159 231.096779 116.647626 216.712799 121.318553 
C 202.328819 125.98948 194.246849 132.325505 194.246849 138.931193 
C 194.246849 145.536881 202.328819 151.872907 216.712799 156.543834 
C 231.096779 161.21476 250.608381 163.839228 270.9504 163.839228 
z
" clip-path="url(#p373974f9e0)" style="fill: #008000; opacity: 0.1; stroke: #008000; stroke-linejoin: miter"/>
   </g>
   <g id="patch_46">
    <path d="M 313.8048 163.839228 
C 334.146819 163.839228 353.658421 161.21476 368.042401 156.543834 
C 382.426381 151.872907 390.508351 145.536881 390.508351 138.931193 
C 390.508351 132.325505 382.426381 125.98948 368.042401 121.318553 
C 353.658421 116.647626 334.146819 114.023159 313.8048 114.023159 
C 293.462781 114.023159 273.951179 116.647626 259.567199 121.318553 
C 245.183219 125.98948 237.101249 132.325505 237.101249 138.931193 
C 237.101249 145.536881 245.183219 151.872907 259.567199 156.543834 
C 273.951179 161.21476 293.462781 163.839228 313.8048 163.839228 
z
" clip-path="url(#p373974f9e0)" style="fill: #0000ff; opacity: 0.1; stroke: #0000ff; stroke-linejoin: miter"/>
   </g>
   <g id="patch_47">
    <path d="M 142.3872 136.006915 
C 162.729219 136.006915 182.240821 133.382447 196.624801 128.71152 
C 211.008781 124.040593 219.090751 117.704568 219.090751 111.09888 
C 219.090751 104.493192 211.008781 98.157167 196.624801 93.48624 
C 182.240821 88.815313 162.729219 86.190845 142.3872 86.190845 
C 122.045181 86.190845 102.533579 88.815313 88.149599 93.48624 
C 73.765619 98.157167 65.683649 104.493192 65.683649 111.09888 
C 65.683649 117.704568 73.765619 124.040593 88.149599 128.71152 
C 102.533579 133.382447 122.045181 136.006915 142.3872 136.006915 
z
" clip-path="url(#p373974f9e0)" style="fill: #bfbf00; opacity: 0.1; stroke: #bfbf00; stroke-linejoin: miter"/>
   </g>
   <g id="patch_48">
    <path d="M 270.9504 136.006915 
C 291.292419 136.006915 310.804021 133.382447 325.188001 128.71152 
C 339.571981 124.040593 347.653951 117.704568 347.653951 111.09888 
C 347.653951 104.493192 339.571981 98.157167 325.188001 93.48624 
C 310.804021 88.815313 291.292419 86.190845 270.9504 86.190845 
C 250.608381 86.190845 231.096779 88.815313 216.712799 93.48624 
C 202.328819 98.157167 194.246849 104.493192 194.246849 111.09888 
C 194.246849 117.704568 202.328819 124.040593 216.712799 128.71152 
C 231.096779 133.382447 250.608381 136.006915 270.9504 136.006915 
z
" clip-path="url(#p373974f9e0)" style="fill: #ff0000; opacity: 0.1; stroke: #ff0000; stroke-linejoin: miter"/>
   </g>
   <g id="patch_49">
    <path d="M 313.8048 136.006915 
C 334.146819 136.006915 353.658421 133.382447 368.042401 128.71152 
C 382.426381 124.040593 390.508351 117.704568 390.508351 111.09888 
C 390.508351 104.493192 382.426381 98.157167 368.042401 93.48624 
C 353.658421 88.815313 334.146819 86.190845 313.8048 86.190845 
C 293.462781 86.190845 273.951179 88.815313 259.567199 93.48624 
C 245.183219 98.157167 237.101249 104.493192 237.101249 111.09888 
C 237.101249 117.704568 245.183219 124.040593 259.567199 128.71152 
C 273.951179 133.382447 293.462781 136.006915 313.8048 136.006915 
z
" clip-path="url(#p373974f9e0)" style="fill: #008000; opacity: 0.1; stroke: #008000; stroke-linejoin: miter"/>
   </g>
   <g id="patch_50">
    <path d="M 142.3872 108.174595 
C 162.729219 108.174595 182.240821 105.550127 196.624801 100.8792 
C 211.008781 96.208273 219.090751 89.872248 219.090751 83.26656 
C 219.090751 76.660872 211.008781 70.324847 196.624801 65.65392 
C 182.240821 60.982993 162.729219 58.358525 142.3872 58.358525 
C 122.045181 58.358525 102.533579 60.982993 88.149599 65.65392 
C 73.765619 70.324847 65.683649 76.660872 65.683649 83.26656 
C 65.683649 89.872248 73.765619 96.208273 88.149599 100.8792 
C 102.533579 105.550127 122.045181 108.174595 142.3872 108.174595 
z
" clip-path="url(#p373974f9e0)" style="fill: #0000ff; opacity: 0.1; stroke: #0000ff; stroke-linejoin: miter"/>
   </g>
   <g id="patch_51">
    <path d="M 185.2416 108.174595 
C 205.583619 108.174595 225.095221 105.550127 239.479201 100.8792 
C 253.863181 96.208273 261.945151 89.872248 261.945151 83.26656 
C 261.945151 76.660872 253.863181 70.324847 239.479201 65.65392 
C 225.095221 60.982993 205.583619 58.358525 185.2416 58.358525 
C 164.899581 58.358525 145.387979 60.982993 131.003999 65.65392 
C 116.620019 70.324847 108.538049 76.660872 108.538049 83.26656 
C 108.538049 89.872248 116.620019 96.208273 131.003999 100.8792 
C 145.387979 105.550127 164.899581 108.174595 185.2416 108.174595 
z
" clip-path="url(#p373974f9e0)" style="fill: #bfbf00; opacity: 0.1; stroke: #bfbf00; stroke-linejoin: miter"/>
   </g>
   <g id="patch_52">
    <path d="M 313.8048 108.174595 
C 334.146819 108.174595 353.658421 105.550127 368.042401 100.8792 
C 382.426381 96.208273 390.508351 89.872248 390.508351 83.26656 
C 390.508351 76.660872 382.426381 70.324847 368.042401 65.65392 
C 353.658421 60.982993 334.146819 58.358525 313.8048 58.358525 
C 293.462781 58.358525 273.951179 60.982993 259.567199 65.65392 
C 245.183219 70.324847 237.101249 76.660872 237.101249 83.26656 
C 237.101249 89.872248 245.183219 96.208273 259.567199 100.8792 
C 273.951179 105.550127 293.462781 108.174595 313.8048 108.174595 
z
" clip-path="url(#p373974f9e0)" style="fill: #ff0000; opacity: 0.1; stroke: #ff0000; stroke-linejoin: miter"/>
   </g>
   <g id="patch_53">
    <path d="M 142.3872 244.411909 
C 152.55821 244.411909 162.31401 239.162974 169.506 229.82112 
C 176.69799 220.479267 180.738975 207.807216 180.738975 194.59584 
C 180.738975 181.384464 176.69799 168.712413 169.506 159.37056 
C 162.31401 150.028706 152.55821 144.779771 142.3872 144.779771 
C 132.21619 144.779771 122.46039 150.028706 115.2684 159.37056 
C 108.07641 168.712413 104.035425 181.384464 104.035425 194.59584 
C 104.035425 207.807216 108.07641 220.479267 115.2684 229.82112 
C 122.46039 239.162974 132.21619 244.411909 142.3872 244.411909 
z
" clip-path="url(#p373974f9e0)" style="fill: #008000; opacity: 0.1; stroke: #008000; stroke-linejoin: miter"/>
   </g>
   <g id="patch_54">
    <path d="M 185.2416 244.411909 
C 195.41261 244.411909 205.16841 239.162974 212.3604 229.82112 
C 219.55239 220.479267 223.593375 207.807216 223.593375 194.59584 
C 223.593375 181.384464 219.55239 168.712413 212.3604 159.37056 
C 205.16841 150.028706 195.41261 144.779771 185.2416 144.779771 
C 175.07059 144.779771 165.31479 150.028706 158.1228 159.37056 
C 150.93081 168.712413 146.889825 181.384464 146.889825 194.59584 
C 146.889825 207.807216 150.93081 220.479267 158.1228 229.82112 
C 165.31479 239.162974 175.07059 244.411909 185.2416 244.411909 
z
" clip-path="url(#p373974f9e0)" style="fill: #0000ff; opacity: 0.1; stroke: #0000ff; stroke-linejoin: miter"/>
   </g>
   <g id="patch_55">
    <path d="M 228.09601 244.411909 
C 238.26702 244.411909 248.022821 239.162974 255.214811 229.82112 
C 262.4068 220.479267 266.447785 207.807216 266.447785 194.59584 
C 266.447785 181.384464 262.4068 168.712413 255.214811 159.37056 
C 248.022821 150.028706 238.26702 144.779771 228.09601 144.779771 
C 217.925001 144.779771 208.1692 150.028706 200.97721 159.37056 
C 193.78522 168.712413 189.744235 181.384464 189.744235 194.59584 
C 189.744235 207.807216 193.78522 220.479267 200.97721 229.82112 
C 208.1692 239.162974 217.925001 244.411909 228.09601 244.411909 
z
" clip-path="url(#p373974f9e0)" style="fill: #bfbf00; opacity: 0.1; stroke: #bfbf00; stroke-linejoin: miter"/>
   </g>
   <g id="patch_56">
    <path d="M 142.3872 216.579589 
C 152.55821 216.579589 162.31401 211.330654 169.506 201.9888 
C 176.69799 192.646947 180.738975 179.974896 180.738975 166.76352 
C 180.738975 153.552144 176.69799 140.880093 169.506 131.53824 
C 162.31401 122.196386 152.55821 116.947451 142.3872 116.947451 
C 132.21619 116.947451 122.46039 122.196386 115.2684 131.53824 
C 108.07641 140.880093 104.035425 153.552144 104.035425 166.76352 
C 104.035425 179.974896 108.07641 192.646947 115.2684 201.9888 
C 122.46039 211.330654 132.21619 216.579589 142.3872 216.579589 
z
" clip-path="url(#p373974f9e0)" style="fill: #ff0000; opacity: 0.1; stroke: #ff0000; stroke-linejoin: miter"/>
   </g>
   <g id="patch_57">
    <path d="M 185.2416 216.579589 
C 195.41261 216.579589 205.16841 211.330654 212.3604 201.9888 
C 219.55239 192.646947 223.593375 179.974896 223.593375 166.76352 
C 223.593375 153.552144 219.55239 140.880093 212.3604 131.53824 
C 205.16841 122.196386 195.41261 116.947451 185.2416 116.947451 
C 175.07059 116.947451 165.31479 122.196386 158.1228 131.53824 
C 150.93081 140.880093 146.889825 153.552144 146.889825 166.76352 
C 146.889825 179.974896 150.93081 192.646947 158.1228 201.9888 
C 165.31479 211.330654 175.07059 216.579589 185.2416 216.579589 
z
" clip-path="url(#p373974f9e0)" style="fill: #008000; opacity: 0.1; stroke: #008000; stroke-linejoin: miter"/>
   </g>
   <g id="patch_58">
    <path d="M 228.09601 216.579589 
C 238.26702 216.579589 248.022821 211.330654 255.214811 201.9888 
C 262.4068 192.646947 266.447785 179.974896 266.447785 166.76352 
C 266.447785 153.552144 262.4068 140.880093 255.214811 131.53824 
C 248.022821 122.196386 238.26702 116.947451 228.09601 116.947451 
C 217.925001 116.947451 208.1692 122.196386 200.97721 131.53824 
C 193.78522 140.880093 189.744235 153.552144 189.744235 166.76352 
C 189.744235 179.974896 193.78522 192.646947 200.97721 201.9888 
C 208.1692 211.330654 217.925001 216.579589 228.09601 216.579589 
z
" clip-path="url(#p373974f9e0)" style="fill: #0000ff; opacity: 0.1; stroke: #0000ff; stroke-linejoin: miter"/>
   </g>
   <g id="patch_59">
    <path d="M 270.9504 216.579589 
C 281.12141 216.579589 290.87721 211.330654 298.0692 201.9888 
C 305.26119 192.646947 309.302175 179.974896 309.302175 166.76352 
C 309.302175 153.552144 305.26119 140.880093 298.0692 131.53824 
C 290.87721 122.196386 281.12141 116.947451 270.9504 116.947451 
C 260.77939 116.947451 251.02359 122.196386 243.8316 131.53824 
C 236.63961 140.880093 232.598625 153.552144 232.598625 166.76352 
C 232.598625 179.974896 236.63961 192.646947 243.8316 201.9888 
C 251.02359 211.330654 260.77939 216.579589 270.9504 216.579589 
z
" clip-path="url(#p373974f9e0)" style="fill: #bfbf00; opacity: 0.1; stroke: #bfbf00; stroke-linejoin: miter"/>
   </g>
   <g id="patch_60">
    <path d="M 185.2416 188.747263 
C 195.41261 188.747263 205.16841 183.498327 212.3604 174.156474 
C 219.55239 164.81462 223.593375 152.142569 223.593375 138.931193 
C 223.593375 125.719817 219.55239 113.047766 212.3604 103.705913 
C 205.16841 94.364059 195.41261 89.115124 185.2416 89.115124 
C 175.07059 89.115124 165.31479 94.364059 158.1228 103.705913 
C 150.93081 113.047766 146.889825 125.719817 146.889825 138.931193 
C 146.889825 152.142569 150.93081 164.81462 158.1228 174.156474 
C 165.31479 183.498327 175.07059 188.747263 185.2416 188.747263 
z
" clip-path="url(#p373974f9e0)" style="fill: #ff0000; opacity: 0.1; stroke: #ff0000; stroke-linejoin: miter"/>
   </g>
   <g id="patch_61">
    <path d="M 228.09601 188.747263 
C 238.26702 188.747263 248.022821 183.498327 255.214811 174.156474 
C 262.4068 164.81462 266.447785 152.142569 266.447785 138.931193 
C 266.447785 125.719817 262.4068 113.047766 255.214811 103.705913 
C 248.022821 94.364059 238.26702 89.115124 228.09601 89.115124 
C 217.925001 89.115124 208.1692 94.364059 200.97721 103.705913 
C 193.78522 113.047766 189.744235 125.719817 189.744235 138.931193 
C 189.744235 152.142569 193.78522 164.81462 200.97721 174.156474 
C 208.1692 183.498327 217.925001 188.747263 228.09601 188.747263 
z
" clip-path="url(#p373974f9e0)" style="fill: #008000; opacity: 0.1; stroke: #008000; stroke-linejoin: miter"/>
   </g>
   <g id="patch_62">
    <path d="M 270.9504 188.747263 
C 281.12141 188.747263 290.87721 183.498327 298.0692 174.156474 
C 305.26119 164.81462 309.302175 152.142569 309.302175 138.931193 
C 309.302175 125.719817 305.26119 113.047766 298.0692 103.705913 
C 290.87721 94.364059 281.12141 89.115124 270.9504 89.115124 
C 260.77939 89.115124 251.02359 94.364059 243.8316 103.705913 
C 236.63961 113.047766 232.598625 125.719817 232.598625 138.931193 
C 232.598625 152.142569 236.63961 164.81462 243.8316 174.156474 
C 251.02359 183.498327 260.77939 188.747263 270.9504 188.747263 
z
" clip-path="url(#p373974f9e0)" style="fill: #0000ff; opacity: 0.1; stroke: #0000ff; stroke-linejoin: miter"/>
   </g>
   <g id="patch_63">
    <path d="M 313.8048 188.747263 
C 323.97581 188.747263 333.73161 183.498327 340.9236 174.156474 
C 348.11559 164.81462 352.156575 152.142569 352.156575 138.931193 
C 352.156575 125.719817 348.11559 113.047766 340.9236 103.705913 
C 333.73161 94.364059 323.97581 89.115124 313.8048 89.115124 
C 303.63379 89.115124 293.87799 94.364059 286.686 103.705913 
C 279.49401 113.047766 275.453025 125.719817 275.453025 138.931193 
C 275.453025 152.142569 279.49401 164.81462 286.686 174.156474 
C 293.87799 183.498327 303.63379 188.747263 313.8048 188.747263 
z
" clip-path="url(#p373974f9e0)" style="fill: #bfbf00; opacity: 0.1; stroke: #bfbf00; stroke-linejoin: miter"/>
   </g>
   <g id="patch_64">
    <path d="M 228.09601 160.914949 
C 238.26702 160.914949 248.022821 155.666014 255.214811 146.32416 
C 262.4068 136.982307 266.447785 124.310256 266.447785 111.09888 
C 266.447785 97.887504 262.4068 85.215453 255.214811 75.8736 
C 248.022821 66.531746 238.26702 61.282811 228.09601 61.282811 
C 217.925001 61.282811 208.1692 66.531746 200.97721 75.8736 
C 193.78522 85.215453 189.744235 97.887504 189.744235 111.09888 
C 189.744235 124.310256 193.78522 136.982307 200.97721 146.32416 
C 208.1692 155.666014 217.925001 160.914949 228.09601 160.914949 
z
" clip-path="url(#p373974f9e0)" style="fill: #ff0000; opacity: 0.1; stroke: #ff0000; stroke-linejoin: miter"/>
   </g>
   <g id="patch_65">
    <path d="M 270.9504 160.914949 
C 281.12141 160.914949 290.87721 155.666014 298.0692 146.32416 
C 305.26119 136.982307 309.302175 124.310256 309.302175 111.09888 
C 309.302175 97.887504 305.26119 85.215453 298.0692 75.8736 
C 290.87721 66.531746 281.12141 61.282811 270.9504 61.282811 
C 260.77939 61.282811 251.02359 66.531746 243.8316 75.8736 
C 236.63961 85.215453 232.598625 97.887504 232.598625 111.09888 
C 232.598625 124.310256 236.63961 136.982307 243.8316 146.32416 
C 251.02359 155.666014 260.77939 160.914949 270.9504 160.914949 
z
" clip-path="url(#p373974f9e0)" style="fill: #008000; opacity: 0.1; stroke: #008000; stroke-linejoin: miter"/>
   </g>
   <g id="patch_66">
    <path d="M 313.8048 160.914949 
C 323.97581 160.914949 333.73161 155.666014 340.9236 146.32416 
C 348.11559 136.982307 352.156575 124.310256 352.156575 111.09888 
C 352.156575 97.887504 348.11559 85.215453 340.9236 75.8736 
C 333.73161 66.531746 323.97581 61.282811 313.8048 61.282811 
C 303.63379 61.282811 293.87799 66.531746 286.686 75.8736 
C 279.49401 85.215453 275.453025 97.887504 275.453025 111.09888 
C 275.453025 124.310256 279.49401 136.982307 286.686 146.32416 
C 293.87799 155.666014 303.63379 160.914949 313.8048 160.914949 
z
" clip-path="url(#p373974f9e0)" style="fill: #0000ff; opacity: 0.1; stroke: #0000ff; stroke-linejoin: miter"/>
   </g>
   <g id="patch_67">
    <path d="M 142.3872 133.082629 
C 152.55821 133.082629 162.31401 127.833694 169.506 118.49184 
C 176.69799 109.149987 180.738975 96.477936 180.738975 83.26656 
C 180.738975 70.055184 176.69799 57.383133 169.506 48.04128 
C 162.31401 38.699426 152.55821 33.450491 142.3872 33.450491 
C 132.21619 33.450491 122.46039 38.699426 115.2684 48.04128 
C 108.07641 57.383133 104.035425 70.055184 104.035425 83.26656 
C 104.035425 96.477936 108.07641 109.149987 115.2684 118.49184 
C 122.46039 127.833694 132.21619 133.082629 142.3872 133.082629 
z
" clip-path="url(#p373974f9e0)" style="fill: #bfbf00; opacity: 0.1; stroke: #bfbf00; stroke-linejoin: miter"/>
   </g>
   <g id="patch_68">
    <path d="M 270.9504 133.082629 
C 281.12141 133.082629 290.87721 127.833694 298.0692 118.49184 
C 305.26119 109.149987 309.302175 96.477936 309.302175 83.26656 
C 309.302175 70.055184 305.26119 57.383133 298.0692 48.04128 
C 290.87721 38.699426 281.12141 33.450491 270.9504 33.450491 
C 260.77939 33.450491 251.02359 38.699426 243.8316 48.04128 
C 236.63961 57.383133 232.598625 70.055184 232.598625 83.26656 
C 232.598625 96.477936 236.63961 109.149987 243.8316 118.49184 
C 251.02359 127.833694 260.77939 133.082629 270.9504 133.082629 
z
" clip-path="url(#p373974f9e0)" style="fill: #ff0000; opacity: 0.1; stroke: #ff0000; stroke-linejoin: miter"/>
   </g>
   <g id="patch_69">
    <path d="M 313.8048 133.082629 
C 323.97581 133.082629 333.73161 127.833694 340.9236 118.49184 
C 348.11559 109.149987 352.156575 96.477936 352.156575 83.26656 
C 352.156575 70.055184 348.11559 57.383133 340.9236 48.04128 
C 333.73161 38.699426 323.97581 33.450491 313.8048 33.450491 
C 303.63379 33.450491 293.87799 38.699426 286.686 48.04128 
C 279.49401 57.383133 275.453025 70.055184 275.453025 83.26656 
C 275.453025 96.477936 279.49401 109.149987 286.686 118.49184 
C 293.87799 127.833694 303.63379 133.082629 313.8048 133.082629 
z
" clip-path="url(#p373974f9e0)" style="fill: #008000; opacity: 0.1; stroke: #008000; stroke-linejoin: miter"/>
   </g>
   <g id="patch_70">
    <path d="M 142.3872 214.933166 
C 167.300983 214.933166 191.197716 212.790297 208.814421 208.976501 
C 226.431126 205.162705 236.329477 199.989362 236.329477 194.59584 
C 236.329477 189.202318 226.431126 184.028975 208.814421 180.215179 
C 191.197716 176.401383 167.300983 174.258514 142.3872 174.258514 
C 117.473417 174.258514 93.576684 176.401383 75.959979 180.215179 
C 58.343274 184.028975 48.444923 189.202318 48.444923 194.59584 
C 48.444923 199.989362 58.343274 205.162705 75.959979 208.976501 
C 93.576684 212.790297 117.473417 214.933166 142.3872 214.933166 
z
" clip-path="url(#p373974f9e0)" style="fill: #0000ff; opacity: 0.1; stroke: #0000ff; stroke-linejoin: miter"/>
   </g>
   <g id="patch_71">
    <path d="M 185.2416 214.933166 
C 210.155383 214.933166 234.052116 212.790297 251.668821 208.976501 
C 269.285526 205.162705 279.183877 199.989362 279.183877 194.59584 
C 279.183877 189.202318 269.285526 184.028975 251.668821 180.215179 
C 234.052116 176.401383 210.155383 174.258514 185.2416 174.258514 
C 160.327817 174.258514 136.431084 176.401383 118.814379 180.215179 
C 101.197674 184.028975 91.299323 189.202318 91.299323 194.59584 
C 91.299323 199.989362 101.197674 205.162705 118.814379 208.976501 
C 136.431084 212.790297 160.327817 214.933166 185.2416 214.933166 
z
" clip-path="url(#p373974f9e0)" style="fill: #bfbf00; opacity: 0.1; stroke: #bfbf00; stroke-linejoin: miter"/>
   </g>
   <g id="patch_72">
    <path d="M 313.8048 214.933166 
C 338.718583 214.933166 362.615316 212.790297 380.232021 208.976501 
C 397.848726 205.162705 407.747077 199.989362 407.747077 194.59584 
C 407.747077 189.202318 397.848726 184.028975 380.232021 180.215179 
C 362.615316 176.401383 338.718583 174.258514 313.8048 174.258514 
C 288.891017 174.258514 264.994284 176.401383 247.377579 180.215179 
C 229.760874 184.028975 219.862523 189.202318 219.862523 194.59584 
C 219.862523 199.989362 229.760874 205.162705 247.377579 208.976501 
C 264.994284 212.790297 288.891017 214.933166 313.8048 214.933166 
z
" clip-path="url(#p373974f9e0)" style="fill: #ff0000; opacity: 0.1; stroke: #ff0000; stroke-linejoin: miter"/>
   </g>
   <g id="patch_73">
    <path d="M 142.3872 187.100846 
C 167.300983 187.100846 191.197716 184.957977 208.814421 181.144181 
C 226.431126 177.330385 236.329477 172.157042 236.329477 166.76352 
C 236.329477 161.369998 226.431126 156.196655 208.814421 152.382859 
C 191.197716 148.569063 167.300983 146.426194 142.3872 146.426194 
C 117.473417 146.426194 93.576684 148.569063 75.959979 152.382859 
C 58.343274 156.196655 48.444923 161.369998 48.444923 166.76352 
C 48.444923 172.157042 58.343274 177.330385 75.959979 181.144181 
C 93.576684 184.957977 117.473417 187.100846 142.3872 187.100846 
z
" clip-path="url(#p373974f9e0)" style="fill: #008000; opacity: 0.1; stroke: #008000; stroke-linejoin: miter"/>
   </g>
   <g id="patch_74">
    <path d="M 185.2416 187.100846 
C 210.155383 187.100846 234.052116 184.957977 251.668821 181.144181 
C 269.285526 177.330385 279.183877 172.157042 279.183877 166.76352 
C 279.183877 161.369998 269.285526 156.196655 251.668821 152.382859 
C 234.052116 148.569063 210.155383 146.426194 185.2416 146.426194 
C 160.327817 146.426194 136.431084 148.569063 118.814379 152.382859 
C 101.197674 156.196655 91.299323 161.369998 91.299323 166.76352 
C 91.299323 172.157042 101.197674 177.330385 118.814379 181.144181 
C 136.431084 184.957977 160.327817 187.100846 185.2416 187.100846 
z
" clip-path="url(#p373974f9e0)" style="fill: #0000ff; opacity: 0.1; stroke: #0000ff; stroke-linejoin: miter"/>
   </g>
   <g id="patch_75">
    <path d="M 228.09601 187.100846 
C 253.009793 187.100846 276.906526 184.957977 294.523231 181.144181 
C 312.139936 177.330385 322.038287 172.157042 322.038287 166.76352 
C 322.038287 161.369998 312.139936 156.196655 294.523231 152.382859 
C 276.906526 148.569063 253.009793 146.426194 228.09601 146.426194 
C 203.182227 146.426194 179.285494 148.569063 161.668789 152.382859 
C 144.052084 156.196655 134.153734 161.369998 134.153734 166.76352 
C 134.153734 172.157042 144.052084 177.330385 161.668789 181.144181 
C 179.285494 184.957977 203.182227 187.100846 228.09601 187.100846 
z
" clip-path="url(#p373974f9e0)" style="fill: #bfbf00; opacity: 0.1; stroke: #bfbf00; stroke-linejoin: miter"/>
   </g>
   <g id="patch_76">
    <path d="M 142.3872 159.268519 
C 167.300983 159.268519 191.197716 157.12565 208.814421 153.311854 
C 226.431126 149.498058 236.329477 144.324715 236.329477 138.931193 
C 236.329477 133.537672 226.431126 128.364328 208.814421 124.550533 
C 191.197716 120.736737 167.300983 118.593868 142.3872 118.593868 
C 117.473417 118.593868 93.576684 120.736737 75.959979 124.550533 
C 58.343274 128.364328 48.444923 133.537672 48.444923 138.931193 
C 48.444923 144.324715 58.343274 149.498058 75.959979 153.311854 
C 93.576684 157.12565 117.473417 159.268519 142.3872 159.268519 
z
" clip-path="url(#p373974f9e0)" style="fill: #ff0000; opacity: 0.1; stroke: #ff0000; stroke-linejoin: miter"/>
   </g>
   <g id="patch_77">
    <path d="M 185.2416 159.268519 
C 210.155383 159.268519 234.052116 157.12565 251.668821 153.311854 
C 269.285526 149.498058 279.183877 144.324715 279.183877 138.931193 
C 279.183877 133.537672 269.285526 128.364328 251.668821 124.550533 
C 234.052116 120.736737 210.155383 118.593868 185.2416 118.593868 
C 160.327817 118.593868 136.431084 120.736737 118.814379 124.550533 
C 101.197674 128.364328 91.299323 133.537672 91.299323 138.931193 
C 91.299323 144.324715 101.197674 149.498058 118.814379 153.311854 
C 136.431084 157.12565 160.327817 159.268519 185.2416 159.268519 
z
" clip-path="url(#p373974f9e0)" style="fill: #008000; opacity: 0.1; stroke: #008000; stroke-linejoin: miter"/>
   </g>
   <g id="patch_78">
    <path d="M 228.09601 159.268519 
C 253.009793 159.268519 276.906526 157.12565 294.523231 153.311854 
C 312.139936 149.498058 322.038287 144.324715 322.038287 138.931193 
C 322.038287 133.537672 312.139936 128.364328 294.523231 124.550533 
C 276.906526 120.736737 253.009793 118.593868 228.09601 118.593868 
C 203.182227 118.593868 179.285494 120.736737 161.668789 124.550533 
C 144.052084 128.364328 134.153734 133.537672 134.153734 138.931193 
C 134.153734 144.324715 144.052084 149.498058 161.668789 153.311854 
C 179.285494 157.12565 203.182227 159.268519 228.09601 159.268519 
z
" clip-path="url(#p373974f9e0)" style="fill: #0000ff; opacity: 0.1; stroke: #0000ff; stroke-linejoin: miter"/>
   </g>
   <g id="patch_79">
    <path d="M 270.9504 159.268519 
C 295.864183 159.268519 319.760916 157.12565 337.377621 153.311854 
C 354.994326 149.498058 364.892677 144.324715 364.892677 138.931193 
C 364.892677 133.537672 354.994326 128.364328 337.377621 124.550533 
C 319.760916 120.736737 295.864183 118.593868 270.9504 118.593868 
C 246.036617 118.593868 222.139884 120.736737 204.523179 124.550533 
C 186.906474 128.364328 177.008123 133.537672 177.008123 138.931193 
C 177.008123 144.324715 186.906474 149.498058 204.523179 153.311854 
C 222.139884 157.12565 246.036617 159.268519 270.9504 159.268519 
z
" clip-path="url(#p373974f9e0)" style="fill: #bfbf00; opacity: 0.1; stroke: #bfbf00; stroke-linejoin: miter"/>
   </g>
   <g id="patch_80">
    <path d="M 185.2416 131.436206 
C 210.155383 131.436206 234.052116 129.293337 251.668821 125.479541 
C 269.285526 121.665745 279.183877 116.492402 279.183877 111.09888 
C 279.183877 105.705358 269.285526 100.532015 251.668821 96.718219 
C 234.052116 92.904423 210.155383 90.761554 185.2416 90.761554 
C 160.327817 90.761554 136.431084 92.904423 118.814379 96.718219 
C 101.197674 100.532015 91.299323 105.705358 91.299323 111.09888 
C 91.299323 116.492402 101.197674 121.665745 118.814379 125.479541 
C 136.431084 129.293337 160.327817 131.436206 185.2416 131.436206 
z
" clip-path="url(#p373974f9e0)" style="fill: #ff0000; opacity: 0.1; stroke: #ff0000; stroke-linejoin: miter"/>
   </g>
   <g id="patch_81">
    <path d="M 228.09601 131.436206 
C 253.009793 131.436206 276.906526 129.293337 294.523231 125.479541 
C 312.139936 121.665745 322.038287 116.492402 322.038287 111.09888 
C 322.038287 105.705358 312.139936 100.532015 294.523231 96.718219 
C 276.906526 92.904423 253.009793 90.761554 228.09601 90.761554 
C 203.182227 90.761554 179.285494 92.904423 161.668789 96.718219 
C 144.052084 100.532015 134.153734 105.705358 134.153734 111.09888 
C 134.153734 116.492402 144.052084 121.665745 161.668789 125.479541 
C 179.285494 129.293337 203.182227 131.436206 228.09601 131.436206 
z
" clip-path="url(#p373974f9e0)" style="fill: #008000; opacity: 0.1; stroke: #008000; stroke-linejoin: miter"/>
   </g>
   <g id="patch_82">
    <path d="M 270.9504 131.436206 
C 295.864183 131.436206 319.760916 129.293337 337.377621 125.479541 
C 354.994326 121.665745 364.892677 116.492402 364.892677 111.09888 
C 364.892677 105.705358 354.994326 100.532015 337.377621 96.718219 
C 319.760916 92.904423 295.864183 90.761554 270.9504 90.761554 
C 246.036617 90.761554 222.139884 92.904423 204.523179 96.718219 
C 186.906474 100.532015 177.008123 105.705358 177.008123 111.09888 
C 177.008123 116.492402 186.906474 121.665745 204.523179 125.479541 
C 222.139884 129.293337 246.036617 131.436206 270.9504 131.436206 
z
" clip-path="url(#p373974f9e0)" style="fill: #0000ff; opacity: 0.1; stroke: #0000ff; stroke-linejoin: miter"/>
   </g>
   <g id="patch_83">
    <path d="M 313.8048 131.436206 
C 338.718583 131.436206 362.615316 129.293337 380.232021 125.479541 
C 397.848726 121.665745 407.747077 116.492402 407.747077 111.09888 
C 407.747077 105.705358 397.848726 100.532015 380.232021 96.718219 
C 362.615316 92.904423 338.718583 90.761554 313.8048 90.761554 
C 288.891017 90.761554 264.994284 92.904423 247.377579 96.718219 
C 229.760874 100.532015 219.862523 105.705358 219.862523 111.09888 
C 219.862523 116.492402 229.760874 121.665745 247.377579 125.479541 
C 264.994284 129.293337 288.891017 131.436206 313.8048 131.436206 
z
" clip-path="url(#p373974f9e0)" style="fill: #bfbf00; opacity: 0.1; stroke: #bfbf00; stroke-linejoin: miter"/>
   </g>
   <g id="patch_84">
    <path d="M 228.09601 103.603886 
C 253.009793 103.603886 276.906526 101.461017 294.523231 97.647221 
C 312.139936 93.833425 322.038287 88.660082 322.038287 83.26656 
C 322.038287 77.873038 312.139936 72.699695 294.523231 68.885899 
C 276.906526 65.072103 253.009793 62.929234 228.09601 62.929234 
C 203.182227 62.929234 179.285494 65.072103 161.668789 68.885899 
C 144.052084 72.699695 134.153734 77.873038 134.153734 83.26656 
C 134.153734 88.660082 144.052084 93.833425 161.668789 97.647221 
C 179.285494 101.461017 203.182227 103.603886 228.09601 103.603886 
z
" clip-path="url(#p373974f9e0)" style="fill: #ff0000; opacity: 0.1; stroke: #ff0000; stroke-linejoin: miter"/>
   </g>
   <g id="patch_85">
    <path d="M 270.9504 103.603886 
C 295.864183 103.603886 319.760916 101.461017 337.377621 97.647221 
C 354.994326 93.833425 364.892677 88.660082 364.892677 83.26656 
C 364.892677 77.873038 354.994326 72.699695 337.377621 68.885899 
C 319.760916 65.072103 295.864183 62.929234 270.9504 62.929234 
C 246.036617 62.929234 222.139884 65.072103 204.523179 68.885899 
C 186.906474 72.699695 177.008123 77.873038 177.008123 83.26656 
C 177.008123 88.660082 186.906474 93.833425 204.523179 97.647221 
C 222.139884 101.461017 246.036617 103.603886 270.9504 103.603886 
z
" clip-path="url(#p373974f9e0)" style="fill: #008000; opacity: 0.1; stroke: #008000; stroke-linejoin: miter"/>
   </g>
   <g id="patch_86">
    <path d="M 313.8048 103.603886 
C 338.718583 103.603886 362.615316 101.461017 380.232021 97.647221 
C 397.848726 93.833425 407.747077 88.660082 407.747077 83.26656 
C 407.747077 77.873038 397.848726 72.699695 380.232021 68.885899 
C 362.615316 65.072103 338.718583 62.929234 313.8048 62.929234 
C 288.891017 62.929234 264.994284 65.072103 247.377579 68.885899 
C 229.760874 72.699695 219.862523 77.873038 219.862523 83.26656 
C 219.862523 88.660082 229.760874 93.833425 247.377579 97.647221 
C 264.994284 101.461017 288.891017 103.603886 313.8048 103.603886 
z
" clip-path="url(#p373974f9e0)" style="fill: #0000ff; opacity: 0.1; stroke: #0000ff; stroke-linejoin: miter"/>
   </g>
   <g id="patch_87">
    <path d="M 142.3872 255.607813 
C 150.691795 255.607813 158.657373 249.179207 164.529608 237.73782 
C 170.401843 226.296433 173.701294 210.776404 173.701294 194.59584 
C 173.701294 178.415276 170.401843 162.895247 164.529608 151.45386 
C 158.657373 140.012473 150.691795 133.583867 142.3872 133.583867 
C 134.082605 133.583867 126.117027 140.012473 120.244792 151.45386 
C 114.372557 162.895247 111.073106 178.415276 111.073106 194.59584 
C 111.073106 210.776404 114.372557 226.296433 120.244792 237.73782 
C 126.117027 249.179207 134.082605 255.607813 142.3872 255.607813 
z
" clip-path="url(#p373974f9e0)" style="fill: #bfbf00; opacity: 0.1; stroke: #bfbf00; stroke-linejoin: miter"/>
   </g>
   <g id="patch_88">
    <path d="M 270.9504 255.607813 
C 279.254995 255.607813 287.220573 249.179207 293.092808 237.73782 
C 298.965043 226.296433 302.264494 210.776404 302.264494 194.59584 
C 302.264494 178.415276 298.965043 162.895247 293.092808 151.45386 
C 287.220573 140.012473 279.254995 133.583867 270.9504 133.583867 
C 262.645805 133.583867 254.680227 140.012473 248.807992 151.45386 
C 242.935757 162.895247 239.636306 178.415276 239.636306 194.59584 
C 239.636306 210.776404 242.935757 226.296433 248.807992 237.73782 
C 254.680227 249.179207 262.645805 255.607813 270.9504 255.607813 
z
" clip-path="url(#p373974f9e0)" style="fill: #ff0000; opacity: 0.1; stroke: #ff0000; stroke-linejoin: miter"/>
   </g>
   <g id="patch_89">
    <path d="M 313.8048 255.607813 
C 322.109395 255.607813 330.074973 249.179207 335.947208 237.73782 
C 341.819443 226.296433 345.118894 210.776404 345.118894 194.59584 
C 345.118894 178.415276 341.819443 162.895247 335.947208 151.45386 
C 330.074973 140.012473 322.109395 133.583867 313.8048 133.583867 
C 305.500205 133.583867 297.534627 140.012473 291.662392 151.45386 
C 285.790157 162.895247 282.490706 178.415276 282.490706 194.59584 
C 282.490706 210.776404 285.790157 226.296433 291.662392 237.73782 
C 297.534627 249.179207 305.500205 255.607813 313.8048 255.607813 
z
" clip-path="url(#p373974f9e0)" style="fill: #008000; opacity: 0.1; stroke: #008000; stroke-linejoin: miter"/>
   </g>
   <g id="patch_90">
    <path d="M 142.3872 227.775493 
C 150.691795 227.775493 158.657373 221.346887 164.529608 209.9055 
C 170.401843 198.464113 173.701294 182.944084 173.701294 166.76352 
C 173.701294 150.582956 170.401843 135.062927 164.529608 123.62154 
C 158.657373 112.180153 150.691795 105.751547 142.3872 105.751547 
C 134.082605 105.751547 126.117027 112.180153 120.244792 123.62154 
C 114.372557 135.062927 111.073106 150.582956 111.073106 166.76352 
C 111.073106 182.944084 114.372557 198.464113 120.244792 209.9055 
C 126.117027 221.346887 134.082605 227.775493 142.3872 227.775493 
z
" clip-path="url(#p373974f9e0)" style="fill: #0000ff; opacity: 0.1; stroke: #0000ff; stroke-linejoin: miter"/>
   </g>
   <g id="patch_91">
    <path d="M 185.2416 227.775493 
C 193.546195 227.775493 201.511773 221.346887 207.384008 209.9055 
C 213.256243 198.464113 216.555694 182.944084 216.555694 166.76352 
C 216.555694 150.582956 213.256243 135.062927 207.384008 123.62154 
C 201.511773 112.180153 193.546195 105.751547 185.2416 105.751547 
C 176.937005 105.751547 168.971427 112.180153 163.099192 123.62154 
C 157.226957 135.062927 153.927506 150.582956 153.927506 166.76352 
C 153.927506 182.944084 157.226957 198.464113 163.099192 209.9055 
C 168.971427 221.346887 176.937005 227.775493 185.2416 227.775493 
z
" clip-path="url(#p373974f9e0)" style="fill: #bfbf00; opacity: 0.1; stroke: #bfbf00; stroke-linejoin: miter"/>
   </g>
   <g id="patch_92">
    <path d="M 313.8048 227.775493 
C 322.109395 227.775493 330.074973 221.346887 335.947208 209.9055 
C 341.819443 198.464113 345.118894 182.944084 345.118894 166.76352 
C 345.118894 150.582956 341.819443 135.062927 335.947208 123.62154 
C 330.074973 112.180153 322.109395 105.751547 313.8048 105.751547 
C 305.500205 105.751547 297.534627 112.180153 291.662392 123.62154 
C 285.790157 135.062927 282.490706 150.582956 282.490706 166.76352 
C 282.490706 182.944084 285.790157 198.464113 291.662392 209.9055 
C 297.534627 221.346887 305.500205 227.775493 313.8048 227.775493 
z
" clip-path="url(#p373974f9e0)" style="fill: #ff0000; opacity: 0.1; stroke: #ff0000; stroke-linejoin: miter"/>
   </g>
   <g id="patch_93">
    <path d="M 142.3872 199.943167 
C 150.691795 199.943167 158.657373 193.51456 164.529608 182.073173 
C 170.401843 170.631787 173.701294 155.111758 173.701294 138.931193 
C 173.701294 122.750629 170.401843 107.2306 164.529608 95.789213 
C 158.657373 84.347827 150.691795 77.91922 142.3872 77.91922 
C 134.082605 77.91922 126.117027 84.347827 120.244792 95.789213 
C 114.372557 107.2306 111.073106 122.750629 111.073106 138.931193 
C 111.073106 155.111758 114.372557 170.631787 120.244792 182.073173 
C 126.117027 193.51456 134.082605 199.943167 142.3872 199.943167 
z
" clip-path="url(#p373974f9e0)" style="fill: #008000; opacity: 0.1; stroke: #008000; stroke-linejoin: miter"/>
   </g>
   <g id="patch_94">
    <path d="M 185.2416 199.943167 
C 193.546195 199.943167 201.511773 193.51456 207.384008 182.073173 
C 213.256243 170.631787 216.555694 155.111758 216.555694 138.931193 
C 216.555694 122.750629 213.256243 107.2306 207.384008 95.789213 
C 201.511773 84.347827 193.546195 77.91922 185.2416 77.91922 
C 176.937005 77.91922 168.971427 84.347827 163.099192 95.789213 
C 157.226957 107.2306 153.927506 122.750629 153.927506 138.931193 
C 153.927506 155.111758 157.226957 170.631787 163.099192 182.073173 
C 168.971427 193.51456 176.937005 199.943167 185.2416 199.943167 
z
" clip-path="url(#p373974f9e0)" style="fill: #0000ff; opacity: 0.1; stroke: #0000ff; stroke-linejoin: miter"/>
   </g>
   <g id="patch_95">
    <path d="M 228.09601 199.943167 
C 236.400605 199.943167 244.366183 193.51456 250.238418 182.073173 
C 256.110654 170.631787 259.410104 155.111758 259.410104 138.931193 
C 259.410104 122.750629 256.110654 107.2306 250.238418 95.789213 
C 244.366183 84.347827 236.400605 77.91922 228.09601 77.91922 
C 219.791415 77.91922 211.825837 84.347827 205.953602 95.789213 
C 200.081367 107.2306 196.781916 122.750629 196.781916 138.931193 
C 196.781916 155.111758 200.081367 170.631787 205.953602 182.073173 
C 211.825837 193.51456 219.791415 199.943167 228.09601 199.943167 
z
" clip-path="url(#p373974f9e0)" style="fill: #bfbf00; opacity: 0.1; stroke: #bfbf00; stroke-linejoin: miter"/>
   </g>
   <g id="patch_96">
    <path d="M 142.3872 172.110853 
C 150.691795 172.110853 158.657373 165.682247 164.529608 154.24086 
C 170.401843 142.799473 173.701294 127.279444 173.701294 111.09888 
C 173.701294 94.918316 170.401843 79.398287 164.529608 67.9569 
C 158.657373 56.515513 150.691795 50.086907 142.3872 50.086907 
C 134.082605 50.086907 126.117027 56.515513 120.244792 67.9569 
C 114.372557 79.398287 111.073106 94.918316 111.073106 111.09888 
C 111.073106 127.279444 114.372557 142.799473 120.244792 154.24086 
C 126.117027 165.682247 134.082605 172.110853 142.3872 172.110853 
z
" clip-path="url(#p373974f9e0)" style="fill: #ff0000; opacity: 0.1; stroke: #ff0000; stroke-linejoin: miter"/>
   </g>
   <g id="patch_97">
    <path d="M 185.2416 172.110853 
C 193.546195 172.110853 201.511773 165.682247 207.384008 154.24086 
C 213.256243 142.799473 216.555694 127.279444 216.555694 111.09888 
C 216.555694 94.918316 213.256243 79.398287 207.384008 67.9569 
C 201.511773 56.515513 193.546195 50.086907 185.2416 50.086907 
C 176.937005 50.086907 168.971427 56.515513 163.099192 67.9569 
C 157.226957 79.398287 153.927506 94.918316 153.927506 111.09888 
C 153.927506 127.279444 157.226957 142.799473 163.099192 154.24086 
C 168.971427 165.682247 176.937005 172.110853 185.2416 172.110853 
z
" clip-path="url(#p373974f9e0)" style="fill: #008000; opacity: 0.1; stroke: #008000; stroke-linejoin: miter"/>
   </g>
   <g id="patch_98">
    <path d="M 228.09601 172.110853 
C 236.400605 172.110853 244.366183 165.682247 250.238418 154.24086 
C 256.110654 142.799473 259.410104 127.279444 259.410104 111.09888 
C 259.410104 94.918316 256.110654 79.398287 250.238418 67.9569 
C 244.366183 56.515513 236.400605 50.086907 228.09601 50.086907 
C 219.791415 50.086907 211.825837 56.515513 205.953602 67.9569 
C 200.081367 79.398287 196.781916 94.918316 196.781916 111.09888 
C 196.781916 127.279444 200.081367 142.799473 205.953602 154.24086 
C 211.825837 165.682247 219.791415 172.110853 228.09601 172.110853 
z
" clip-path="url(#p373974f9e0)" style="fill: #0000ff; opacity: 0.1; stroke: #0000ff; stroke-linejoin: miter"/>
   </g>
   <g id="patch_99">
    <path d="M 270.9504 172.110853 
C 279.254995 172.110853 287.220573 165.682247 293.092808 154.24086 
C 298.965043 142.799473 302.264494 127.279444 302.264494 111.09888 
C 302.264494 94.918316 298.965043 79.398287 293.092808 67.9569 
C 287.220573 56.515513 279.254995 50.086907 270.9504 50.086907 
C 262.645805 50.086907 254.680227 56.515513 248.807992 67.9569 
C 242.935757 79.398287 239.636306 94.918316 239.636306 111.09888 
C 239.636306 127.279444 242.935757 142.799473 248.807992 154.24086 
C 254.680227 165.682247 262.645805 172.110853 270.9504 172.110853 
z
" clip-path="url(#p373974f9e0)" style="fill: #bfbf00; opacity: 0.1; stroke: #bfbf00; stroke-linejoin: miter"/>
   </g>
   <g id="patch_100">
    <path d="M 185.2416 144.278533 
C 193.546195 144.278533 201.511773 137.849927 207.384008 126.40854 
C 213.256243 114.967153 216.555694 99.447124 216.555694 83.26656 
C 216.555694 67.085996 213.256243 51.565967 207.384008 40.12458 
C 201.511773 28.683193 193.546195 22.254587 185.2416 22.254587 
C 176.937005 22.254587 168.971427 28.683193 163.099192 40.12458 
C 157.226957 51.565967 153.927506 67.085996 153.927506 83.26656 
C 153.927506 99.447124 157.226957 114.967153 163.099192 126.40854 
C 168.971427 137.849927 176.937005 144.278533 185.2416 144.278533 
z
" clip-path="url(#p373974f9e0)" style="fill: #ff0000; opacity: 0.1; stroke: #ff0000; stroke-linejoin: miter"/>
   </g>
   <g id="patch_101">
    <path d="M 228.09601 144.278533 
C 236.400605 144.278533 244.366183 137.849927 250.238418 126.40854 
C 256.110654 114.967153 259.410104 99.447124 259.410104 83.26656 
C 259.410104 67.085996 256.110654 51.565967 250.238418 40.12458 
C 244.366183 28.683193 236.400605 22.254587 228.09601 22.254587 
C 219.791415 22.254587 211.825837 28.683193 205.953602 40.12458 
C 200.081367 51.565967 196.781916 67.085996 196.781916 83.26656 
C 196.781916 99.447124 200.081367 114.967153 205.953602 126.40854 
C 211.825837 137.849927 219.791415 144.278533 228.09601 144.278533 
z
" clip-path="url(#p373974f9e0)" style="fill: #008000; opacity: 0.1; stroke: #008000; stroke-linejoin: miter"/>
   </g>
   <g id="patch_102">
    <path d="M 270.9504 144.278533 
C 279.254995 144.278533 287.220573 137.849927 293.092808 126.40854 
C 298.965043 114.967153 302.264494 99.447124 302.264494 83.26656 
C 302.264494 67.085996 298.965043 51.565967 293.092808 40.12458 
C 287.220573 28.683193 279.254995 22.254587 270.9504 22.254587 
C 262.645805 22.254587 254.680227 28.683193 248.807992 40.12458 
C 242.935757 51.565967 239.636306 67.085996 239.636306 83.26656 
C 239.636306 99.447124 242.935757 114.967153 248.807992 126.40854 
C 254.680227 137.849927 262.645805 144.278533 270.9504 144.278533 
z
" clip-path="url(#p373974f9e0)" style="fill: #0000ff; opacity: 0.1; stroke: #0000ff; stroke-linejoin: miter"/>
   </g>
   <g id="patch_103">
    <path d="M 313.8048 144.278533 
C 322.109395 144.278533 330.074973 137.849927 335.947208 126.40854 
C 341.819443 114.967153 345.118894 99.447124 345.118894 83.26656 
C 345.118894 67.085996 341.819443 51.565967 335.947208 40.12458 
C 330.074973 28.683193 322.109395 22.254587 313.8048 22.254587 
C 305.500205 22.254587 297.534627 28.683193 291.662392 40.12458 
C 285.790157 51.565967 282.490706 67.085996 282.490706 83.26656 
C 282.490706 99.447124 285.790157 114.967153 291.662392 126.40854 
C 297.534627 137.849927 305.500205 144.278533 313.8048 144.278533 
z
" clip-path="url(#p373974f9e0)" style="fill: #bfbf00; opacity: 0.1; stroke: #bfbf00; stroke-linejoin: miter"/>
   </g>
   <g id="matplotlib.axis_1">
    <g id="xtick_1">
     <g id="line2d_1">
      <defs>
       <path id="m7f249446e5" d="M 0 0 
L 0 3.5 
" style="stroke: #000000; stroke-width: 0.8"/>
      </defs>
      <g>
       <use xlink:href="#m7f249446e5" x="54" y="252" style="stroke: #000000; stroke-width: 0.8"/>
      </g>
     </g>
     <g id="text_1">
      <!-- 100 -->
      <g transform="translate(40.266406 266.598437)scale(0.1 -0.1)">
       <defs>
        <path id="DejaVuSans-2212" d="M 678 2272 
L 4684 2272 
L 4684 1741 
L 678 1741 
L 678 2272 
z
" transform="scale(0.015625)"/>
        <path id="DejaVuSans-31" d="M 794 531 
L 1825 531 
L 1825 4091 
L 703 3866 
L 703 4441 
L 1819 4666 
L 2450 4666 
L 2450 531 
L 3481 531 
L 3481 0 
L 794 0 
L 794 531 
z
" transform="scale(0.015625)"/>
        <path id="DejaVuSans-30" d="M 2034 4250 
Q 1547 4250 1301 3770 
Q 1056 3291 1056 2328 
Q 1056 1369 1301 889 
Q 1547 409 2034 409 
Q 2525 409 2770 889 
Q 3016 1369 3016 2328 
Q 3016 3291 2770 3770 
Q 2525 4250 2034 4250 
z
M 2034 4750 
Q 2819 4750 3233 4129 
Q 3647 3509 3647 2328 
Q 3647 1150 3233 529 
Q 2819 -91 2034 -91 
Q 1250 -91 836 529 
Q 422 1150 422 2328 
Q 422 3509 836 4129 
Q 1250 4750 2034 4750 
z
" transform="scale(0.015625)"/>
       </defs>
       <use xlink:href="#DejaVuSans-2212"/>
       <use xlink:href="#DejaVuSans-31" x="83.789062"/>
       <use xlink:href="#DejaVuSans-30" x="147.412109"/>
       <use xlink:href="#DejaVuSans-30" x="211.035156"/>
      </g>
     </g>
    </g>
    <g id="xtick_2">
     <g id="line2d_2">
      <g>
       <use xlink:href="#m7f249446e5" x="120.96" y="252" style="stroke: #000000; stroke-width: 0.8"/>
      </g>
     </g>
     <g id="text_2">
      <!-- 0 -->
      <g transform="translate(117.77875 266.598437)scale(0.1 -0.1)">
       <use xlink:href="#DejaVuSans-30"/>
      </g>
     </g>
    </g>
    <g id="xtick_3">
     <g id="line2d_3">
      <g>
       <use xlink:href="#m7f249446e5" x="187.92" y="252" style="stroke: #000000; stroke-width: 0.8"/>
      </g>
     </g>
     <g id="text_3">
      <!-- 100 -->
      <g transform="translate(178.37625 266.598437)scale(0.1 -0.1)">
       <use xlink:href="#DejaVuSans-31"/>
       <use xlink:href="#DejaVuSans-30" x="63.623047"/>
       <use xlink:href="#DejaVuSans-30" x="127.246094"/>
      </g>
     </g>
    </g>
    <g id="xtick_4">
     <g id="line2d_4">
      <g>
       <use xlink:href="#m7f249446e5" x="254.88" y="252" style="stroke: #000000; stroke-width: 0.8"/>
      </g>
     </g>
     <g id="text_4">
      <!-- 200 -->
      <g transform="translate(245.33625 266.598437)scale(0.1 -0.1)">
       <defs>
        <path id="DejaVuSans-32" d="M 1228 531 
L 3431 531 
L 3431 0 
L 469 0 
L 469 531 
Q 828 903 1448 1529 
Q 2069 2156 2228 2338 
Q 2531 2678 2651 2914 
Q 2772 3150 2772 3378 
Q 2772 3750 2511 3984 
Q 2250 4219 1831 4219 
Q 1534 4219 1204 4116 
Q 875 4013 500 3803 
L 500 4441 
Q 881 4594 1212 4672 
Q 1544 4750 1819 4750 
Q 2544 4750 2975 4387 
Q 3406 4025 3406 3419 
Q 3406 3131 3298 2873 
Q 3191 2616 2906 2266 
Q 2828 2175 2409 1742 
Q 1991 1309 1228 531 
z
" transform="scale(0.015625)"/>
       </defs>
       <use xlink:href="#DejaVuSans-32"/>
       <use xlink:href="#DejaVuSans-30" x="63.623047"/>
       <use xlink:href="#DejaVuSans-30" x="127.246094"/>
      </g>
     </g>
    </g>
    <g id="xtick_5">
     <g id="line2d_5">
      <g>
       <use xlink:href="#m7f249446e5" x="321.84" y="252" style="stroke: #000000; stroke-width: 0.8"/>
      </g>
     </g>
     <g id="text_5">
      <!-- 300 -->
      <g transform="translate(312.29625 266.598437)scale(0.1 -0.1)">
       <defs>
        <path id="DejaVuSans-33" d="M 2597 2516 
Q 3050 2419 3304 2112 
Q 3559 1806 3559 1356 
Q 3559 666 3084 287 
Q 2609 -91 1734 -91 
Q 1441 -91 1130 -33 
Q 819 25 488 141 
L 488 750 
Q 750 597 1062 519 
Q 1375 441 1716 441 
Q 2309 441 2620 675 
Q 2931 909 2931 1356 
Q 2931 1769 2642 2001 
Q 2353 2234 1838 2234 
L 1294 2234 
L 1294 2753 
L 1863 2753 
Q 2328 2753 2575 2939 
Q 2822 3125 2822 3475 
Q 2822 3834 2567 4026 
Q 2313 4219 1838 4219 
Q 1578 4219 1281 4162 
Q 984 4106 628 3988 
L 628 4550 
Q 988 4650 1302 4700 
Q 1616 4750 1894 4750 
Q 2613 4750 3031 4423 
Q 3450 4097 3450 3541 
Q 3450 3153 3228 2886 
Q 3006 2619 2597 2516 
z
" transform="scale(0.015625)"/>
       </defs>
       <use xlink:href="#DejaVuSans-33"/>
       <use xlink:href="#DejaVuSans-30" x="63.623047"/>
       <use xlink:href="#DejaVuSans-30" x="127.246094"/>
      </g>
     </g>
    </g>
    <g id="xtick_6">
     <g id="line2d_6">
      <g>
       <use xlink:href="#m7f249446e5" x="388.8" y="252" style="stroke: #000000; stroke-width: 0.8"/>
      </g>
     </g>
     <g id="text_6">
      <!-- 400 -->
      <g transform="translate(379.25625 266.598437)scale(0.1 -0.1)">
       <defs>
        <path id="DejaVuSans-34" d="M 2419 4116 
L 825 1625 
L 2419 1625 
L 2419 4116 
z
M 2253 4666 
L 3047 4666 
L 3047 1625 
L 3713 1625 
L 3713 1100 
L 3047 1100 
L 3047 0 
L 2419 0 
L 2419 1100 
L 313 1100 
L 313 1709 
L 2253 4666 
z
" transform="scale(0.015625)"/>
       </defs>
       <use xlink:href="#DejaVuSans-34"/>
       <use xlink:href="#DejaVuSans-30" x="63.623047"/>
       <use xlink:href="#DejaVuSans-30" x="127.246094"/>
      </g>
     </g>
    </g>
   </g>
   <g id="matplotlib.axis_2">
    <g id="ytick_1">
     <g id="line2d_7">
      <defs>
       <path id="mb883bbe25e" d="M 0 0 
L -3.5 0 
" style="stroke: #000000; stroke-width: 0.8"/>
      </defs>
      <g>
       <use xlink:href="#mb883bbe25e" x="54" y="252" style="stroke: #000000; stroke-width: 0.8"/>
      </g>
     </g>
     <g id="text_7">
      <!-- 100 -->
      <g transform="translate(19.532812 255.799219)scale(0.1 -0.1)">
       <use xlink:href="#DejaVuSans-2212"/>
       <use xlink:href="#DejaVuSans-31" x="83.789062"/>
       <use xlink:href="#DejaVuSans-30" x="147.412109"/>
       <use xlink:href="#DejaVuSans-30" x="211.035156"/>
      </g>
     </g>
    </g>
    <g id="ytick_2">
     <g id="line2d_8">
      <g>
       <use xlink:href="#mb883bbe25e" x="54" y="208.512" style="stroke: #000000; stroke-width: 0.8"/>
      </g>
     </g>
     <g id="text_8">
      <!-- 0 -->
      <g transform="translate(40.6375 212.311219)scale(0.1 -0.1)">
       <use xlink:href="#DejaVuSans-30"/>
      </g>
     </g>
    </g>
    <g id="ytick_3">
     <g id="line2d_9">
      <g>
       <use xlink:href="#mb883bbe25e" x="54" y="165.024" style="stroke: #000000; stroke-width: 0.8"/>
      </g>
     </g>
     <g id="text_9">
      <!-- 100 -->
      <g transform="translate(27.9125 168.823219)scale(0.1 -0.1)">
       <use xlink:href="#DejaVuSans-31"/>
       <use xlink:href="#DejaVuSans-30" x="63.623047"/>
       <use xlink:href="#DejaVuSans-30" x="127.246094"/>
      </g>
     </g>
    </g>
    <g id="ytick_4">
     <g id="line2d_10">
      <g>
       <use xlink:href="#mb883bbe25e" x="54" y="121.536" style="stroke: #000000; stroke-width: 0.8"/>
      </g>
     </g>
     <g id="text_10">
      <!-- 200 -->
      <g transform="translate(27.9125 125.335219)scale(0.1 -0.1)">
       <use xlink:href="#DejaVuSans-32"/>
       <use xlink:href="#DejaVuSans-30" x="63.623047"/>
       <use xlink:href="#DejaVuSans-30" x="127.246094"/>
      </g>
     </g>
    </g>
    <g id="ytick_5">
     <g id="line2d_11">
      <g>
       <use xlink:href="#mb883bbe25e" x="54" y="78.048" style="stroke: #000000; stroke-width: 0.8"/>
      </g>
     </g>
     <g id="text_11">
      <!-- 300 -->
      <g transform="translate(27.9125 81.847219)scale(0.1 -0.1)">
       <use xlink:href="#DejaVuSans-33"/>
       <use xlink:href="#DejaVuSans-30" x="63.623047"/>
       <use xlink:href="#DejaVuSans-30" x="127.246094"/>
      </g>
     </g>
    </g>
    <g id="ytick_6">
     <g id="line2d_12">
      <g>
       <use xlink:href="#mb883bbe25e" x="54" y="34.56" style="stroke: #000000; stroke-width: 0.8"/>
      </g>
     </g>
     <g id="text_12">
      <!-- 400 -->
      <g transform="translate(27.9125 38.359219)scale(0.1 -0.1)">
       <use xlink:href="#DejaVuSans-34"/>
       <use xlink:href="#DejaVuSans-30" x="63.623047"/>
       <use xlink:href="#DejaVuSans-30" x="127.246094"/>
      </g>
     </g>
    </g>
   </g>
   <g id="line2d_13">
    <defs>
     <path id="mdc0d5c00bf" d="M -3 3 
L 3 -3 
M -3 -3 
L 3 3 
" style="stroke: #000000"/>
    </defs>
    <g clip-path="url(#p373974f9e0)">
     <use xlink:href="#mdc0d5c00bf" x="228.09601" y="194.59584" style="stroke: #000000"/>
    </g>
   </g>
   <g id="line2d_14">
    <g clip-path="url(#p373974f9e0)">
     <use xlink:href="#mdc0d5c00bf" x="270.9504" y="194.59584" style="stroke: #000000"/>
    </g>
   </g>
   <g id="line2d_15">
    <g clip-path="url(#p373974f9e0)">
     <use xlink:href="#mdc0d5c00bf" x="313.8048" y="194.59584" style="stroke: #000000"/>
    </g>
   </g>
   <g id="line2d_16">
    <g clip-path="url(#p373974f9e0)">
     <use xlink:href="#mdc0d5c00bf" x="142.3872" y="166.76352" style="stroke: #000000"/>
    </g>
   </g>
   <g id="line2d_17">
    <g clip-path="url(#p373974f9e0)">
     <use xlink:href="#mdc0d5c00bf" x="270.9504" y="166.76352" style="stroke: #000000"/>
    </g>
   </g>
   <g id="line2d_18">
    <g clip-path="url(#p373974f9e0)">
     <use xlink:href="#mdc0d5c00bf" x="313.8048" y="166.76352" style="stroke: #000000"/>
    </g>
   </g>
   <g id="line2d_19">
    <g clip-path="url(#p373974f9e0)">
     <use xlink:href="#mdc0d5c00bf" x="142.3872" y="138.931193" style="stroke: #000000"/>
    </g>
   </g>
   <g id="line2d_20">
    <g clip-path="url(#p373974f9e0)">
     <use xlink:href="#mdc0d5c00bf" x="185.2416" y="138.931193" style="stroke: #000000"/>
    </g>
   </g>
   <g id="line2d_21">
    <g clip-path="url(#p373974f9e0)">
     <use xlink:href="#mdc0d5c00bf" x="313.8048" y="138.931193" style="stroke: #000000"/>
    </g>
   </g>
   <g id="line2d_22">
    <g clip-path="url(#p373974f9e0)">
     <use xlink:href="#mdc0d5c00bf" x="142.3872" y="111.09888" style="stroke: #000000"/>
    </g>
   </g>
   <g id="line2d_23">
    <g clip-path="url(#p373974f9e0)">
     <use xlink:href="#mdc0d5c00bf" x="185.2416" y="111.09888" style="stroke: #000000"/>
    </g>
   </g>
   <g id="line2d_24">
    <g clip-path="url(#p373974f9e0)">
     <use xlink:href="#mdc0d5c00bf" x="228.09601" y="111.09888" style="stroke: #000000"/>
    </g>
   </g>
   <g id="line2d_25">
    <g clip-path="url(#p373974f9e0)">
     <use xlink:href="#mdc0d5c00bf" x="142.3872" y="83.26656" style="stroke: #000000"/>
    </g>
   </g>
   <g id="line2d_26">
    <g clip-path="url(#p373974f9e0)">
     <use xlink:href="#mdc0d5c00bf" x="185.2416" y="83.26656" style="stroke: #000000"/>
    </g>
   </g>
   <g id="line2d_27">
    <g clip-path="url(#p373974f9e0)">
     <use xlink:href="#mdc0d5c00bf" x="228.09601" y="83.26656" style="stroke: #000000"/>
    </g>
   </g>
   <g id="line2d_28">
    <g clip-path="url(#p373974f9e0)">
     <use xlink:href="#mdc0d5c00bf" x="270.9504" y="83.26656" style="stroke: #000000"/>
    </g>
   </g>
   <g id="line2d_29">
    <g clip-path="url(#p373974f9e0)">
     <use xlink:href="#mdc0d5c00bf" x="185.2416" y="194.59584" style="stroke: #000000"/>
    </g>
   </g>
   <g id="line2d_30">
    <g clip-path="url(#p373974f9e0)">
     <use xlink:href="#mdc0d5c00bf" x="228.09601" y="194.59584" style="stroke: #000000"/>
    </g>
   </g>
   <g id="line2d_31">
    <g clip-path="url(#p373974f9e0)">
     <use xlink:href="#mdc0d5c00bf" x="270.9504" y="194.59584" style="stroke: #000000"/>
    </g>
   </g>
   <g id="line2d_32">
    <g clip-path="url(#p373974f9e0)">
     <use xlink:href="#mdc0d5c00bf" x="313.8048" y="194.59584" style="stroke: #000000"/>
    </g>
   </g>
   <g id="line2d_33">
    <g clip-path="url(#p373974f9e0)">
     <use xlink:href="#mdc0d5c00bf" x="228.09601" y="166.76352" style="stroke: #000000"/>
    </g>
   </g>
   <g id="line2d_34">
    <g clip-path="url(#p373974f9e0)">
     <use xlink:href="#mdc0d5c00bf" x="270.9504" y="166.76352" style="stroke: #000000"/>
    </g>
   </g>
   <g id="line2d_35">
    <g clip-path="url(#p373974f9e0)">
     <use xlink:href="#mdc0d5c00bf" x="313.8048" y="166.76352" style="stroke: #000000"/>
    </g>
   </g>
   <g id="line2d_36">
    <g clip-path="url(#p373974f9e0)">
     <use xlink:href="#mdc0d5c00bf" x="142.3872" y="138.931193" style="stroke: #000000"/>
    </g>
   </g>
   <g id="line2d_37">
    <g clip-path="url(#p373974f9e0)">
     <use xlink:href="#mdc0d5c00bf" x="270.9504" y="138.931193" style="stroke: #000000"/>
    </g>
   </g>
   <g id="line2d_38">
    <g clip-path="url(#p373974f9e0)">
     <use xlink:href="#mdc0d5c00bf" x="313.8048" y="138.931193" style="stroke: #000000"/>
    </g>
   </g>
   <g id="line2d_39">
    <g clip-path="url(#p373974f9e0)">
     <use xlink:href="#mdc0d5c00bf" x="142.3872" y="111.09888" style="stroke: #000000"/>
    </g>
   </g>
   <g id="line2d_40">
    <g clip-path="url(#p373974f9e0)">
     <use xlink:href="#mdc0d5c00bf" x="185.2416" y="111.09888" style="stroke: #000000"/>
    </g>
   </g>
   <g id="line2d_41">
    <g clip-path="url(#p373974f9e0)">
     <use xlink:href="#mdc0d5c00bf" x="313.8048" y="111.09888" style="stroke: #000000"/>
    </g>
   </g>
   <g id="line2d_42">
    <g clip-path="url(#p373974f9e0)">
     <use xlink:href="#mdc0d5c00bf" x="142.3872" y="83.26656" style="stroke: #000000"/>
    </g>
   </g>
   <g id="line2d_43">
    <g clip-path="url(#p373974f9e0)">
     <use xlink:href="#mdc0d5c00bf" x="185.2416" y="83.26656" style="stroke: #000000"/>
    </g>
   </g>
   <g id="line2d_44">
    <g clip-path="url(#p373974f9e0)">
     <use xlink:href="#mdc0d5c00bf" x="228.09601" y="83.26656" style="stroke: #000000"/>
    </g>
   </g>
   <g id="line2d_45">
    <g clip-path="url(#p373974f9e0)">
     <use xlink:href="#mdc0d5c00bf" x="142.3872" y="194.59584" style="stroke: #000000"/>
    </g>
   </g>
   <g id="line2d_46">
    <g clip-path="url(#p373974f9e0)">
     <use xlink:href="#mdc0d5c00bf" x="185.2416" y="194.59584" style="stroke: #000000"/>
    </g>
   </g>
   <g id="line2d_47">
    <g clip-path="url(#p373974f9e0)">
     <use xlink:href="#mdc0d5c00bf" x="228.09601" y="194.59584" style="stroke: #000000"/>
    </g>
   </g>
   <g id="line2d_48">
    <g clip-path="url(#p373974f9e0)">
     <use xlink:href="#mdc0d5c00bf" x="270.9504" y="194.59584" style="stroke: #000000"/>
    </g>
   </g>
   <g id="line2d_49">
    <g clip-path="url(#p373974f9e0)">
     <use xlink:href="#mdc0d5c00bf" x="185.2416" y="166.76352" style="stroke: #000000"/>
    </g>
   </g>
   <g id="line2d_50">
    <g clip-path="url(#p373974f9e0)">
     <use xlink:href="#mdc0d5c00bf" x="228.09601" y="166.76352" style="stroke: #000000"/>
    </g>
   </g>
   <g id="line2d_51">
    <g clip-path="url(#p373974f9e0)">
     <use xlink:href="#mdc0d5c00bf" x="270.9504" y="166.76352" style="stroke: #000000"/>
    </g>
   </g>
   <g id="line2d_52">
    <g clip-path="url(#p373974f9e0)">
     <use xlink:href="#mdc0d5c00bf" x="313.8048" y="166.76352" style="stroke: #000000"/>
    </g>
   </g>
   <g id="line2d_53">
    <g clip-path="url(#p373974f9e0)">
     <use xlink:href="#mdc0d5c00bf" x="228.09601" y="138.931193" style="stroke: #000000"/>
    </g>
   </g>
   <g id="line2d_54">
    <g clip-path="url(#p373974f9e0)">
     <use xlink:href="#mdc0d5c00bf" x="270.9504" y="138.931193" style="stroke: #000000"/>
    </g>
   </g>
   <g id="line2d_55">
    <g clip-path="url(#p373974f9e0)">
     <use xlink:href="#mdc0d5c00bf" x="313.8048" y="138.931193" style="stroke: #000000"/>
    </g>
   </g>
   <g id="line2d_56">
    <g clip-path="url(#p373974f9e0)">
     <use xlink:href="#mdc0d5c00bf" x="142.3872" y="111.09888" style="stroke: #000000"/>
    </g>
   </g>
   <g id="line2d_57">
    <g clip-path="url(#p373974f9e0)">
     <use xlink:href="#mdc0d5c00bf" x="270.9504" y="111.09888" style="stroke: #000000"/>
    </g>
   </g>
   <g id="line2d_58">
    <g clip-path="url(#p373974f9e0)">
     <use xlink:href="#mdc0d5c00bf" x="313.8048" y="111.09888" style="stroke: #000000"/>
    </g>
   </g>
   <g id="line2d_59">
    <g clip-path="url(#p373974f9e0)">
     <use xlink:href="#mdc0d5c00bf" x="142.3872" y="83.26656" style="stroke: #000000"/>
    </g>
   </g>
   <g id="line2d_60">
    <g clip-path="url(#p373974f9e0)">
     <use xlink:href="#mdc0d5c00bf" x="185.2416" y="83.26656" style="stroke: #000000"/>
    </g>
   </g>
   <g id="line2d_61">
    <g clip-path="url(#p373974f9e0)">
     <use xlink:href="#mdc0d5c00bf" x="313.8048" y="83.26656" style="stroke: #000000"/>
    </g>
   </g>
   <g id="line2d_62">
    <g clip-path="url(#p373974f9e0)">
     <use xlink:href="#mdc0d5c00bf" x="142.3872" y="194.59584" style="stroke: #000000"/>
    </g>
   </g>
   <g id="line2d_63">
    <g clip-path="url(#p373974f9e0)">
     <use xlink:href="#mdc0d5c00bf" x="185.2416" y="194.59584" style="stroke: #000000"/>
    </g>
   </g>
   <g id="line2d_64">
    <g clip-path="url(#p373974f9e0)">
     <use xlink:href="#mdc0d5c00bf" x="228.09601" y="194.59584" style="stroke: #000000"/>
    </g>
   </g>
   <g id="line2d_65">
    <g clip-path="url(#p373974f9e0)">
     <use xlink:href="#mdc0d5c00bf" x="142.3872" y="166.76352" style="stroke: #000000"/>
    </g>
   </g>
   <g id="line2d_66">
    <g clip-path="url(#p373974f9e0)">
     <use xlink:href="#mdc0d5c00bf" x="185.2416" y="166.76352" style="stroke: #000000"/>
    </g>
   </g>
   <g id="line2d_67">
    <g clip-path="url(#p373974f9e0)">
     <use xlink:href="#mdc0d5c00bf" x="228.09601" y="166.76352" style="stroke: #000000"/>
    </g>
   </g>
   <g id="line2d_68">
    <g clip-path="url(#p373974f9e0)">
     <use xlink:href="#mdc0d5c00bf" x="270.9504" y="166.76352" style="stroke: #000000"/>
    </g>
   </g>
   <g id="line2d_69">
    <g clip-path="url(#p373974f9e0)">
     <use xlink:href="#mdc0d5c00bf" x="185.2416" y="138.931193" style="stroke: #000000"/>
    </g>
   </g>
   <g id="line2d_70">
    <g clip-path="url(#p373974f9e0)">
     <use xlink:href="#mdc0d5c00bf" x="228.09601" y="138.931193" style="stroke: #000000"/>
    </g>
   </g>
   <g id="line2d_71">
    <g clip-path="url(#p373974f9e0)">
     <use xlink:href="#mdc0d5c00bf" x="270.9504" y="138.931193" style="stroke: #000000"/>
    </g>
   </g>
   <g id="line2d_72">
    <g clip-path="url(#p373974f9e0)">
     <use xlink:href="#mdc0d5c00bf" x="313.8048" y="138.931193" style="stroke: #000000"/>
    </g>
   </g>
   <g id="line2d_73">
    <g clip-path="url(#p373974f9e0)">
     <use xlink:href="#mdc0d5c00bf" x="228.09601" y="111.09888" style="stroke: #000000"/>
    </g>
   </g>
   <g id="line2d_74">
    <g clip-path="url(#p373974f9e0)">
     <use xlink:href="#mdc0d5c00bf" x="270.9504" y="111.09888" style="stroke: #000000"/>
    </g>
   </g>
   <g id="line2d_75">
    <g clip-path="url(#p373974f9e0)">
     <use xlink:href="#mdc0d5c00bf" x="313.8048" y="111.09888" style="stroke: #000000"/>
    </g>
   </g>
   <g id="line2d_76">
    <g clip-path="url(#p373974f9e0)">
     <use xlink:href="#mdc0d5c00bf" x="142.3872" y="83.26656" style="stroke: #000000"/>
    </g>
   </g>
   <g id="line2d_77">
    <g clip-path="url(#p373974f9e0)">
     <use xlink:href="#mdc0d5c00bf" x="270.9504" y="83.26656" style="stroke: #000000"/>
    </g>
   </g>
   <g id="line2d_78">
    <g clip-path="url(#p373974f9e0)">
     <use xlink:href="#mdc0d5c00bf" x="313.8048" y="83.26656" style="stroke: #000000"/>
    </g>
   </g>
   <g id="line2d_79">
    <g clip-path="url(#p373974f9e0)">
     <use xlink:href="#mdc0d5c00bf" x="142.3872" y="194.59584" style="stroke: #000000"/>
    </g>
   </g>
   <g id="line2d_80">
    <g clip-path="url(#p373974f9e0)">
     <use xlink:href="#mdc0d5c00bf" x="185.2416" y="194.59584" style="stroke: #000000"/>
    </g>
   </g>
   <g id="line2d_81">
    <g clip-path="url(#p373974f9e0)">
     <use xlink:href="#mdc0d5c00bf" x="313.8048" y="194.59584" style="stroke: #000000"/>
    </g>
   </g>
   <g id="line2d_82">
    <g clip-path="url(#p373974f9e0)">
     <use xlink:href="#mdc0d5c00bf" x="142.3872" y="166.76352" style="stroke: #000000"/>
    </g>
   </g>
   <g id="line2d_83">
    <g clip-path="url(#p373974f9e0)">
     <use xlink:href="#mdc0d5c00bf" x="185.2416" y="166.76352" style="stroke: #000000"/>
    </g>
   </g>
   <g id="line2d_84">
    <g clip-path="url(#p373974f9e0)">
     <use xlink:href="#mdc0d5c00bf" x="228.09601" y="166.76352" style="stroke: #000000"/>
    </g>
   </g>
   <g id="line2d_85">
    <g clip-path="url(#p373974f9e0)">
     <use xlink:href="#mdc0d5c00bf" x="142.3872" y="138.931193" style="stroke: #000000"/>
    </g>
   </g>
   <g id="line2d_86">
    <g clip-path="url(#p373974f9e0)">
     <use xlink:href="#mdc0d5c00bf" x="185.2416" y="138.931193" style="stroke: #000000"/>
    </g>
   </g>
   <g id="line2d_87">
    <g clip-path="url(#p373974f9e0)">
     <use xlink:href="#mdc0d5c00bf" x="228.09601" y="138.931193" style="stroke: #000000"/>
    </g>
   </g>
   <g id="line2d_88">
    <g clip-path="url(#p373974f9e0)">
     <use xlink:href="#mdc0d5c00bf" x="270.9504" y="138.931193" style="stroke: #000000"/>
    </g>
   </g>
   <g id="line2d_89">
    <g clip-path="url(#p373974f9e0)">
     <use xlink:href="#mdc0d5c00bf" x="185.2416" y="111.09888" style="stroke: #000000"/>
    </g>
   </g>
   <g id="line2d_90">
    <g clip-path="url(#p373974f9e0)">
     <use xlink:href="#mdc0d5c00bf" x="228.09601" y="111.09888" style="stroke: #000000"/>
    </g>
   </g>
   <g id="line2d_91">
    <g clip-path="url(#p373974f9e0)">
     <use xlink:href="#mdc0d5c00bf" x="270.9504" y="111.09888" style="stroke: #000000"/>
    </g>
   </g>
   <g id="line2d_92">
    <g clip-path="url(#p373974f9e0)">
     <use xlink:href="#mdc0d5c00bf" x="313.8048" y="111.09888" style="stroke: #000000"/>
    </g>
   </g>
   <g id="line2d_93">
    <g clip-path="url(#p373974f9e0)">
     <use xlink:href="#mdc0d5c00bf" x="228.09601" y="83.26656" style="stroke: #000000"/>
    </g>
   </g>
   <g id="line2d_94">
    <g clip-path="url(#p373974f9e0)">
     <use xlink:href="#mdc0d5c00bf" x="270.9504" y="83.26656" style="stroke: #000000"/>
    </g>
   </g>
   <g id="line2d_95">
    <g clip-path="url(#p373974f9e0)">
     <use xlink:href="#mdc0d5c00bf" x="313.8048" y="83.26656" style="stroke: #000000"/>
    </g>
   </g>
   <g id="line2d_96">
    <g clip-path="url(#p373974f9e0)">
     <use xlink:href="#mdc0d5c00bf" x="142.3872" y="194.59584" style="stroke: #000000"/>
    </g>
   </g>
   <g id="line2d_97">
    <g clip-path="url(#p373974f9e0)">
     <use xlink:href="#mdc0d5c00bf" x="270.9504" y="194.59584" style="stroke: #000000"/>
    </g>
   </g>
   <g id="line2d_98">
    <g clip-path="url(#p373974f9e0)">
     <use xlink:href="#mdc0d5c00bf" x="313.8048" y="194.59584" style="stroke: #000000"/>
    </g>
   </g>
   <g id="line2d_99">
    <g clip-path="url(#p373974f9e0)">
     <use xlink:href="#mdc0d5c00bf" x="142.3872" y="166.76352" style="stroke: #000000"/>
    </g>
   </g>
   <g id="line2d_100">
    <g clip-path="url(#p373974f9e0)">
     <use xlink:href="#mdc0d5c00bf" x="185.2416" y="166.76352" style="stroke: #000000"/>
    </g>
   </g>
   <g id="line2d_101">
    <g clip-path="url(#p373974f9e0)">
     <use xlink:href="#mdc0d5c00bf" x="313.8048" y="166.76352" style="stroke: #000000"/>
    </g>
   </g>
   <g id="line2d_102">
    <g clip-path="url(#p373974f9e0)">
     <use xlink:href="#mdc0d5c00bf" x="142.3872" y="138.931193" style="stroke: #000000"/>
    </g>
   </g>
   <g id="line2d_103">
    <g clip-path="url(#p373974f9e0)">
     <use xlink:href="#mdc0d5c00bf" x="185.2416" y="138.931193" style="stroke: #000000"/>
    </g>
   </g>
   <g id="line2d_104">
    <g clip-path="url(#p373974f9e0)">
     <use xlink:href="#mdc0d5c00bf" x="228.09601" y="138.931193" style="stroke: #000000"/>
    </g>
   </g>
   <g id="line2d_105">
    <g clip-path="url(#p373974f9e0)">
     <use xlink:href="#mdc0d5c00bf" x="142.3872" y="111.09888" style="stroke: #000000"/>
    </g>
   </g>
   <g id="line2d_106">
    <g clip-path="url(#p373974f9e0)">
     <use xlink:href="#mdc0d5c00bf" x="185.2416" y="111.09888" style="stroke: #000000"/>
    </g>
   </g>
   <g id="line2d_107">
    <g clip-path="url(#p373974f9e0)">
     <use xlink:href="#mdc0d5c00bf" x="228.09601" y="111.09888" style="stroke: #000000"/>
    </g>
   </g>
   <g id="line2d_108">
    <g clip-path="url(#p373974f9e0)">
     <use xlink:href="#mdc0d5c00bf" x="270.9504" y="111.09888" style="stroke: #000000"/>
    </g>
   </g>
   <g id="line2d_109">
    <g clip-path="url(#p373974f9e0)">
     <use xlink:href="#mdc0d5c00bf" x="185.2416" y="83.26656" style="stroke: #000000"/>
    </g>
   </g>
   <g id="line2d_110">
    <g clip-path="url(#p373974f9e0)">
     <use xlink:href="#mdc0d5c00bf" x="228.09601" y="83.26656" style="stroke: #000000"/>
    </g>
   </g>
   <g id="line2d_111">
    <g clip-path="url(#p373974f9e0)">
     <use xlink:href="#mdc0d5c00bf" x="270.9504" y="83.26656" style="stroke: #000000"/>
    </g>
   </g>
   <g id="line2d_112">
    <g clip-path="url(#p373974f9e0)">
     <use xlink:href="#mdc0d5c00bf" x="313.8048" y="83.26656" style="stroke: #000000"/>
    </g>
   </g>
   <g id="patch_104">
    <path d="M 54 252 
L 54 34.56 
" style="fill: none; stroke: #000000; stroke-width: 0.8; stroke-linejoin: miter; stroke-linecap: square"/>
   </g>
   <g id="patch_105">
    <path d="M 388.8 252 
L 388.8 34.56 
" style="fill: none; stroke: #000000; stroke-width: 0.8; stroke-linejoin: miter; stroke-linecap: square"/>
   </g>
   <g id="patch_106">
    <path d="M 54 252 
L 388.8 252 
" style="fill: none; stroke: #000000; stroke-width: 0.8; stroke-linejoin: miter; stroke-linecap: square"/>
   </g>
   <g id="patch_107">
    <path d="M 54 34.56 
L 388.8 34.56 
" style="fill: none; stroke: #000000; stroke-width: 0.8; stroke-linejoin: miter; stroke-linecap: square"/>
   </g>
  </g>
 </g>
 <defs>
  <clipPath id="p373974f9e0">
   <rect x="54" y="34.56" width="334.8" height="217.44"/>
  </clipPath>
 </defs>
</svg>
